<!-- Generator: Adobe Illustrator 22.1.0, SVG Export Plug-In  -->
<svg version="1.1"
	 xmlns="http://www.w3.org/2000/svg" xmlns:xlink="http://www.w3.org/1999/xlink" xmlns:a="http://ns.adobe.com/AdobeSVGViewerExtensions/3.0/"
	 x="0px" y="0px" width="22.975px" height="34.146px" viewBox="0 0 22.975 34.146"
	 style="enable-background:new 0 0 22.975 34.146;" xml:space="preserve">
<style type="text/css">
	.st0{fill:#D68833;}
	.st1{fill:#261B14;}
	.st2{fill:#FFFCED;}
	.st3{fill:none;stroke:#786648;stroke-width:0.3;stroke-miterlimit:10;}
	.st4{fill:#EBE1CD;}
	.st5{fill:#966E3C;}
	.st6{fill:#C08D6D;}
</style>
<defs>
</defs>
<g>
	<g>
		<g>
			<path class="st0" d="M10.574,28.125c0,0,1.818-3.965,3.14-10.739c1.322-6.774-3.635-8.261-3.635-8.261h-6.22
				c0,0-4.957,1.487-3.635,8.261c1.322,6.774,3.139,10.739,3.139,10.739H10.574z"/>
			<rect x="3.894" y="8.218" class="st1" width="6.149" height="0.99"/>
			<rect x="4.924" y="6.208" class="st1" width="4.089" height="2.083"/>
			<rect x="5.757" y="4.291" class="st1" width="2.422" height="2.083"/>
			<path class="st1" d="M7.802,4.447H6.135c0,0-0.6-1.605-0.6-1.869c0-0.528,1.433-1.019,1.433-1.019s1.434,0.453,1.434,1.019
				C8.402,2.918,7.802,4.447,7.802,4.447z"/>
			<path class="st2" d="M18.092,3c0,1.657-1.696,3-3.79,3c-2.093,0-3.789-1.343-3.789-3c0-1.657,1.696-3,3.789-3
				C16.396,0,18.092,1.343,18.092,3z"/>
			<rect x="4.076" y="2.796" class="st1" width="6.562" height="0.469"/>
			<line class="st3" x1="4.951" y1="8.125" x2="9.013" y2="8.125"/>
			<line class="st3" x1="5.75" y1="6.031" x2="8.187" y2="6.031"/>
			<line class="st3" x1="6.062" y1="4.187" x2="7.875" y2="4.187"/>
		</g>
		<g>
			<path class="st1" d="M11.201,18.125c0,2.945-1.894,5.333-4.232,5.333c-2.337,0-4.231-2.388-4.231-5.333
				c0-2.945,1.894-5.333,4.231-5.333C9.306,12.791,11.201,15.179,11.201,18.125z"/>
			<path class="st4" d="M10.836,18.125c0,2.692-1.732,4.874-3.867,4.874c-2.135,0-3.866-2.182-3.866-4.874
				c0-2.692,1.731-4.875,3.866-4.875C9.104,13.25,10.836,15.432,10.836,18.125z"/>
			<g>
				<g>
					<path class="st1" d="M6.33,14.09c0.005-0.005-0.133,0.025-0.106,0.202c0.008,0.077,0.066,0.167,0.161,0.199
						c0.128,0.046,0.227,0.003,0.309-0.103c0.073-0.108,0.073-0.268,0.026-0.412c-0.051-0.141-0.215-0.231-0.393-0.221
						c-0.177,0.008-0.365,0.093-0.482,0.248c-0.103,0.161-0.136,0.371-0.125,0.562c0.018,0.194,0.073,0.399,0.061,0.609
						c0.003,0.216-0.178,0.432-0.354,0.518c-0.183,0.105-0.422,0.101-0.588,0.017c-0.208-0.1-0.266-0.332-0.227-0.497
						c0.04-0.167,0.15-0.308,0.288-0.349c0.134-0.044,0.268-0.01,0.339,0.062c0.139,0.161,0.049,0.287,0.065,0.279l-0.015-0.003
						c-0.01,0.01,0.04-0.126-0.092-0.228c-0.119-0.116-0.43-0.022-0.459,0.263c-0.02,0.13,0.043,0.273,0.156,0.336
						c0.145,0.074,0.313,0.075,0.466-0.005c0.148-0.09,0.277-0.206,0.283-0.401c0.02-0.19-0.008-0.388-0.011-0.599
						c0.006-0.211,0.052-0.421,0.174-0.591c0.117-0.171,0.311-0.283,0.512-0.307c0.199-0.028,0.428,0.066,0.512,0.259
						c0.083,0.176,0.067,0.387-0.043,0.527c-0.095,0.148-0.324,0.181-0.425,0.122c-0.144-0.056-0.207-0.183-0.202-0.282
						c0.007-0.22,0.184-0.228,0.165-0.22L6.33,14.09z"/>
				</g>
			</g>
			<g>
				<g>
					<path class="st1" d="M4.593,16.121c0-0.02,0.059,0.145-0.141,0.236C4.364,16.4,4.22,16.39,4.115,16.278
						c-0.091-0.072-0.148-0.295-0.048-0.439c0.087-0.155,0.276-0.25,0.471-0.241c0.21,0.005,0.384,0.18,0.434,0.375
						c0.128,0.412-0.178,0.828-0.568,0.977c-0.195,0.078-0.389,0.127-0.557,0.218c-0.179,0.08-0.235,0.242-0.263,0.415
						c-0.016,0.171,0.048,0.328,0.172,0.432c0.102,0.081,0.258,0.085,0.37,0.017c0.251-0.135,0.221-0.458,0.068-0.525
						c-0.144-0.083-0.251,0.016-0.245,0.003L3.94,17.496c-0.001,0.019,0.081-0.114,0.282-0.046c0.094,0.038,0.177,0.149,0.187,0.291
						c0.014,0.144-0.073,0.298-0.213,0.398c-0.139,0.1-0.374,0.133-0.545-0.02c-0.144-0.122-0.235-0.341-0.209-0.55
						c0.013-0.195,0.144-0.445,0.345-0.524c0.189-0.092,0.4-0.118,0.586-0.175c0.181-0.063,0.362-0.174,0.471-0.331
						C4.942,16.372,4.95,16.166,4.89,16c-0.059-0.169-0.205-0.287-0.355-0.28c-0.15,0.011-0.299,0.072-0.37,0.181
						c-0.066,0.116-0.068,0.225,0.022,0.325c0.064,0.077,0.171,0.095,0.245,0.072c0.173-0.042,0.148-0.181,0.146-0.175L4.593,16.121
						z"/>
				</g>
			</g>
			<g>
				<g>
					<path class="st1" d="M7.426,14.019c-0.019-0.007,0.157-0.012,0.182,0.207c0.013,0.098-0.042,0.23-0.18,0.297
						c-0.097,0.066-0.327,0.051-0.433-0.089c-0.12-0.131-0.155-0.339-0.086-0.522c0.07-0.198,0.289-0.31,0.49-0.298
						c0.203,0.007,0.404,0.103,0.534,0.265c0.135,0.161,0.197,0.366,0.22,0.576c0.014,0.21,0.003,0.409,0.038,0.597
						c0.021,0.194,0.159,0.298,0.314,0.377c0.158,0.068,0.325,0.054,0.465-0.031c0.107-0.072,0.157-0.22,0.128-0.348
						c-0.051-0.281-0.368-0.351-0.478-0.225c-0.122,0.112-0.061,0.244-0.072,0.235l-0.014,0.004
						c0.017,0.007-0.083-0.111,0.042-0.283c0.063-0.078,0.196-0.123,0.333-0.089c0.141,0.03,0.262,0.162,0.314,0.325
						c0.052,0.161,0.014,0.397-0.186,0.513c-0.159,0.098-0.398,0.12-0.588,0.03c-0.182-0.072-0.38-0.273-0.394-0.488
						c-0.03-0.208,0.01-0.417,0.012-0.612c-0.005-0.191-0.055-0.398-0.17-0.55c-0.128-0.146-0.322-0.215-0.499-0.209
						c-0.178,0.004-0.335,0.107-0.375,0.252c-0.036,0.146-0.022,0.306,0.059,0.407c0.091,0.1,0.193,0.135,0.316,0.079
						c0.093-0.039,0.143-0.134,0.144-0.211c0.014-0.178-0.125-0.198-0.12-0.193L7.426,14.019z"/>
				</g>
			</g>
			<g>
				<g>
					<path class="st1" d="M9.316,15.933c-0.002-0.006-0.029,0.131,0.144,0.177c0.073,0.024,0.18,0.008,0.246-0.066
						c0.092-0.099,0.093-0.208,0.028-0.326c-0.068-0.11-0.216-0.173-0.366-0.188c-0.149-0.01-0.298,0.104-0.36,0.272
						c-0.064,0.165-0.061,0.371,0.035,0.54c0.106,0.159,0.285,0.273,0.464,0.34c0.186,0.061,0.396,0.091,0.583,0.187
						c0.199,0.084,0.324,0.335,0.334,0.531c0.024,0.209-0.074,0.428-0.219,0.546c-0.174,0.149-0.409,0.112-0.545,0.01
						c-0.138-0.104-0.223-0.259-0.206-0.403c0.013-0.141,0.098-0.25,0.192-0.287c0.203-0.065,0.283,0.069,0.281,0.05l-0.009,0.013
						c0.006,0.013-0.1-0.088-0.245-0.007c-0.154,0.065-0.19,0.386,0.058,0.526c0.111,0.069,0.267,0.069,0.371-0.01
						c0.125-0.103,0.192-0.257,0.181-0.429c-0.023-0.172-0.079-0.336-0.255-0.42c-0.167-0.094-0.358-0.147-0.553-0.229
						c-0.388-0.156-0.686-0.579-0.549-0.987c0.054-0.194,0.232-0.365,0.442-0.366c0.193-0.005,0.381,0.093,0.465,0.251
						c0.097,0.147,0.035,0.368-0.057,0.439c-0.109,0.109-0.252,0.116-0.34,0.071c-0.198-0.095-0.135-0.259-0.135-0.239L9.316,15.933
						z"/>
				</g>
			</g>
			<g>
				<g>
					<path class="st1" d="M7.632,22.109c-0.004,0.005,0.133-0.024,0.105-0.201c-0.007-0.077-0.064-0.167-0.16-0.199
						c-0.128-0.047-0.227-0.003-0.309,0.104c-0.073,0.108-0.074,0.267-0.026,0.411c0.051,0.141,0.216,0.231,0.394,0.222
						c0.177-0.008,0.365-0.093,0.482-0.249c0.102-0.161,0.136-0.371,0.125-0.562c-0.018-0.194-0.074-0.399-0.062-0.609
						c-0.003-0.217,0.179-0.432,0.354-0.519c0.184-0.104,0.422-0.102,0.588-0.017c0.208,0.099,0.266,0.332,0.226,0.497
						c-0.039,0.167-0.148,0.307-0.287,0.349c-0.135,0.045-0.269,0.011-0.34-0.062c-0.139-0.162-0.048-0.287-0.064-0.279l0.016,0.003
						c0.01-0.01-0.041,0.127,0.09,0.229c0.121,0.116,0.43,0.021,0.459-0.263c0.021-0.129-0.042-0.273-0.156-0.336
						c-0.144-0.074-0.312-0.074-0.465,0.006c-0.149,0.09-0.278,0.205-0.284,0.4c-0.019,0.191,0.009,0.388,0.011,0.599
						c-0.006,0.211-0.051,0.421-0.173,0.592c-0.117,0.171-0.31,0.283-0.512,0.307c-0.2,0.027-0.428-0.066-0.513-0.259
						c-0.083-0.176-0.064-0.387,0.044-0.527c0.095-0.149,0.324-0.182,0.425-0.123c0.143,0.056,0.207,0.183,0.202,0.282
						c-0.008,0.221-0.184,0.227-0.165,0.22L7.632,22.109z"/>
				</g>
			</g>
			<g>
				<g>
					<path class="st1" d="M9.37,20.079c-0.001,0.02-0.059-0.145,0.14-0.236c0.09-0.043,0.232-0.033,0.338,0.078
						c0.092,0.072,0.149,0.295,0.05,0.439c-0.087,0.155-0.276,0.253-0.47,0.243c-0.21-0.004-0.385-0.179-0.436-0.374
						c-0.056-0.195-0.025-0.416,0.087-0.59c0.11-0.178,0.286-0.301,0.48-0.387c0.195-0.078,0.389-0.127,0.558-0.218
						c0.178-0.08,0.235-0.242,0.263-0.415c0.017-0.171-0.048-0.326-0.171-0.432c-0.102-0.083-0.257-0.086-0.369-0.019
						c-0.251,0.136-0.224,0.457-0.069,0.525c0.143,0.084,0.25-0.015,0.245-0.002l0.008,0.013c0.001-0.019-0.081,0.114-0.282,0.045
						c-0.094-0.038-0.177-0.15-0.186-0.291c-0.013-0.144,0.074-0.297,0.214-0.398c0.138-0.1,0.375-0.133,0.544,0.022
						c0.142,0.121,0.235,0.341,0.208,0.55c-0.014,0.195-0.144,0.444-0.346,0.523c-0.189,0.091-0.399,0.117-0.587,0.175
						c-0.18,0.064-0.361,0.175-0.47,0.332c-0.098,0.167-0.105,0.373-0.044,0.539c0.059,0.168,0.205,0.286,0.356,0.278
						c0.15-0.011,0.298-0.072,0.369-0.182c0.066-0.117,0.068-0.225-0.023-0.325c-0.064-0.077-0.17-0.094-0.244-0.072
						c-0.174,0.043-0.149,0.181-0.146,0.175L9.37,20.079z"/>
				</g>
			</g>
			<g>
				<g>
					<path class="st1" d="M6.537,22.181c0.02,0.006-0.156,0.013-0.182-0.206c-0.013-0.098,0.042-0.23,0.18-0.297
						c0.097-0.066,0.327-0.051,0.434,0.089c0.119,0.131,0.153,0.34,0.084,0.522c-0.068,0.199-0.289,0.311-0.489,0.298
						c-0.203-0.007-0.404-0.104-0.534-0.265c-0.137-0.16-0.197-0.366-0.221-0.576c-0.014-0.21-0.002-0.409-0.037-0.597
						c-0.022-0.194-0.158-0.299-0.315-0.377c-0.158-0.068-0.326-0.054-0.464,0.031c-0.108,0.071-0.159,0.22-0.13,0.347
						c0.051,0.281,0.368,0.351,0.48,0.226c0.123-0.112,0.061-0.244,0.072-0.235l0.015-0.004c-0.018-0.007,0.084,0.111-0.043,0.283
						c-0.064,0.078-0.196,0.122-0.334,0.088c-0.141-0.031-0.262-0.162-0.313-0.326c-0.052-0.161-0.013-0.397,0.187-0.512
						c0.159-0.098,0.397-0.119,0.588-0.03c0.181,0.072,0.379,0.273,0.393,0.489c0.03,0.208-0.01,0.417-0.012,0.612
						c0.005,0.191,0.053,0.398,0.17,0.55c0.127,0.146,0.321,0.215,0.498,0.209c0.18-0.004,0.336-0.107,0.375-0.252
						c0.036-0.147,0.023-0.306-0.059-0.408c-0.09-0.1-0.191-0.135-0.314-0.079c-0.094,0.039-0.144,0.134-0.145,0.211
						c-0.014,0.179,0.126,0.197,0.121,0.193L6.537,22.181z"/>
				</g>
			</g>
			<g>
				<g>
					<path class="st1" d="M4.648,20.269c0.002,0.006,0.029-0.132-0.144-0.178c-0.073-0.024-0.18-0.008-0.246,0.067
						c-0.093,0.099-0.094,0.207-0.029,0.325c0.068,0.111,0.215,0.174,0.366,0.188c0.149,0.011,0.298-0.104,0.36-0.271
						c0.063-0.165,0.06-0.371-0.035-0.54c-0.105-0.16-0.285-0.274-0.464-0.341c-0.184-0.061-0.394-0.091-0.582-0.187
						c-0.2-0.083-0.325-0.335-0.336-0.53c-0.023-0.21,0.073-0.428,0.219-0.547c0.173-0.15,0.408-0.112,0.545-0.01
						c0.138,0.103,0.223,0.259,0.206,0.402c-0.012,0.141-0.097,0.251-0.19,0.288C4.115,19,4.036,18.865,4.037,18.884l0.008-0.013
						c-0.005-0.014,0.1,0.089,0.245,0.007c0.153-0.065,0.189-0.387-0.06-0.526c-0.111-0.069-0.268-0.069-0.371,0.01
						c-0.124,0.102-0.191,0.258-0.178,0.429c0.023,0.172,0.078,0.336,0.254,0.419c0.167,0.094,0.359,0.148,0.554,0.229
						c0.388,0.156,0.685,0.579,0.548,0.988c-0.055,0.194-0.232,0.365-0.442,0.365c-0.194,0.005-0.382-0.094-0.466-0.251
						c-0.096-0.146-0.034-0.369,0.059-0.438c0.108-0.109,0.252-0.116,0.34-0.072c0.197,0.096,0.135,0.259,0.135,0.239L4.648,20.269z
						"/>
				</g>
			</g>
			<g>
				<g>
					<path class="st5" d="M5.226,17.406c0.066,0.01,0.137,0.036,0.201,0.032c0.061-0.03,0.124-0.026,0.174-0.075
						c0.107-0.075,0.191-0.179,0.264-0.291c0.141-0.226,0.233-0.498,0.239-0.75c0-0.036,0.029-0.064,0.065-0.064
						c0.026,0,0.05,0.017,0.059,0.039c0.098,0.226,0.023,0.459-0.026,0.658c-0.056,0.202-0.116,0.403-0.077,0.6l-0.033-0.031
						l0.174-0.016c0.051-0.028,0.099-0.066,0.149-0.098c0.08-0.095,0.152-0.2,0.196-0.321c0.005-0.013,0.02-0.019,0.031-0.015
						c0.01,0.003,0.016,0.012,0.017,0.021l0.001,0.006l0.029,0.47l-0.064-0.02l0.286-0.318c0.017-0.021,0.047-0.023,0.067-0.006
						l0.013,0.017c0.03,0.066,0.052,0.139,0.089,0.198c0.031,0.059,0.079,0.124,0.117,0.127c0.071,0.016,0.162-0.153,0.218-0.272
						c0.126-0.268,0.197-0.554,0.315-0.847c0.015-0.037,0.057-0.055,0.093-0.04c0.034,0.014,0.052,0.054,0.042,0.089l-0.11,0.391
						c-0.023,0.124-0.063,0.267-0.037,0.365c-0.009,0.053,0.025,0.107,0.064,0.162c0.033,0.034,0.074,0.076,0.118,0.072
						c0.093,0.011,0.175-0.119,0.219-0.232c0.008-0.025,0.034-0.039,0.059-0.031c0.018,0.005,0.03,0.024,0.032,0.042l0.014,0.188
						l-0.056-0.038c0.079-0.018,0.157-0.028,0.22-0.036c0.059-0.013,0.102-0.073,0.148-0.124c0.009-0.011,0.025-0.011,0.035-0.002
						l0.006,0.007c0.021,0.031,0.027,0.08,0.062,0.101c0.018,0.01,0.031,0.029,0.052,0.032l0.03,0.008
						c0.017-0.003,0.007,0.012,0.027,0.016l0.013,0.003c0.004,0.001,0.009-0.002,0.009-0.006c0.001-0.004-0.002-0.008-0.006-0.009
						c-0.002,0-0.005,0-0.006,0.001c-0.003,0.005-0.034,0.025-0.039,0.015l-0.035-0.005c-0.024-0.002-0.041-0.02-0.064-0.03
						c-0.044-0.021-0.058-0.073-0.088-0.111l0.041,0.005c-0.046,0.061-0.078,0.136-0.168,0.167c-0.079,0.016-0.146,0.029-0.21,0.047
						c-0.024,0.007-0.047-0.006-0.054-0.029l-0.002-0.009l-0.024-0.184l0.092,0.011c-0.047,0.123-0.107,0.305-0.307,0.322
						c-0.098,0.007-0.17-0.055-0.228-0.114c-0.043-0.053-0.09-0.113-0.098-0.202c-0.046-0.17,0.015-0.297,0.034-0.438l0.115-0.393
						l0.134,0.049c-0.109,0.265-0.189,0.566-0.321,0.844c-0.033,0.07-0.069,0.141-0.122,0.205c-0.04,0.06-0.131,0.149-0.247,0.123
						c-0.112-0.037-0.142-0.125-0.182-0.192c-0.038-0.071-0.055-0.146-0.083-0.219l0.081,0.01l-0.301,0.304L6.68,17.591
						c-0.014,0.014-0.036,0.014-0.05,0.001c-0.007-0.007-0.01-0.016-0.011-0.024l-0.011-0.472l0.049,0.012
						c-0.056,0.119-0.116,0.235-0.199,0.342c-0.055,0.041-0.109,0.087-0.168,0.122l-0.211,0.03c-0.014,0.002-0.027-0.007-0.03-0.021
						l-0.003-0.01c-0.056-0.221,0.003-0.442,0.047-0.644c0.023-0.102,0.041-0.203,0.051-0.301c0.006-0.1-0.011-0.191-0.035-0.281
						l0.124-0.025c-0.022,0.3-0.134,0.564-0.293,0.8c-0.084,0.114-0.177,0.226-0.306,0.299c-0.057,0.045-0.148,0.041-0.215,0.059
						c-0.067-0.006-0.131-0.04-0.197-0.058c-0.004-0.001-0.007-0.005-0.006-0.009C5.217,17.407,5.222,17.405,5.226,17.406z"/>
				</g>
				<g>
					<path class="st5" d="M5.481,16.987c0.018,0.007-0.022-0.123,0.145-0.213c0.075-0.075,0.172-0.05,0.267-0.067
						c0.097,0.01,0.195-0.004,0.293-0.029c0.098-0.026,0.196-0.045,0.286-0.052c0.093-0.005,0.17-0.035,0.243-0.03
						c0.076,0.005,0.125-0.02,0.17-0.024c0.045-0.005,0.071-0.008,0.071-0.008c0.005-0.001,0.009,0.001,0.011,0.005
						c0,0.002-0.001,0.005-0.002,0.007c0-0.006-0.069,0.088-0.221,0.142c-0.149,0.055-0.353,0.067-0.553,0.042
						c-0.199-0.042-0.395,0.086-0.501,0.11c-0.063,0.004-0.11,0.046-0.14,0.083c-0.037,0.027-0.059,0.043-0.059,0.043l-0.01,0.007
						c-0.004,0.003-0.01,0.002-0.014-0.002c-0.002-0.004-0.002-0.01,0.002-0.013C5.476,16.987,5.479,16.986,5.481,16.987z"/>
				</g>
				<g>
					<path class="st5" d="M5.757,18.938c0.058,0.103,0.134,0.191,0.219,0.259l-0.033,0.005c0.04-0.059,0.085-0.116,0.121-0.175
						l0.072-0.184c0.007-0.02,0.028-0.031,0.049-0.024c0.014,0.004,0.024,0.019,0.026,0.032c0.013,0.108,0.032,0.222,0.066,0.345
						l-0.073-0.027c0.036-0.066,0.086-0.121,0.113-0.191c0.017-0.076,0.041-0.149,0.053-0.226c0.016-0.158,0.018-0.316,0.006-0.476
						l0.119-0.004c-0.002,0.282-0.036,0.548-0.059,0.819c-0.01,0.135-0.018,0.27-0.016,0.403c0.002,0.129,0.006,0.276,0.058,0.373
						c0.013,0.058,0.081,0.083,0.092,0.058c0.036-0.025,0.062-0.095,0.085-0.153c0.041-0.126,0.064-0.26,0.088-0.393l0.059-0.404
						c0.025-0.136,0.022-0.267,0.072-0.412c0.005-0.014,0.019-0.021,0.033-0.016c0.01,0.003,0.016,0.012,0.017,0.022l0.001,0.005
						c0.016,0.266,0.061,0.524,0.137,0.775l-0.066-0.01c0.094-0.158,0.154-0.33,0.191-0.514c0.006-0.026,0.031-0.043,0.057-0.038
						c0.015,0.003,0.026,0.012,0.033,0.023l0.006,0.01l0.21,0.373l-0.11,0.003c0.051-0.115,0.082-0.219,0.107-0.314l0.001-0.006
						c0.01-0.035,0.046-0.056,0.081-0.046c0.026,0.007,0.045,0.03,0.047,0.056l0.042,0.358l-0.126-0.039l0.1-0.24l0.043-0.262
						l0.013-0.558v-0.015c0.001-0.036,0.03-0.064,0.066-0.063c0.022,0,0.043,0.013,0.054,0.031c0.042,0.067,0.104,0.134,0.122,0.208
						c0.012,0.074,0.041,0.153,0.035,0.224c0.005,0.146-0.009,0.286-0.019,0.423c-0.015,0.137-0.01,0.269-0.002,0.398l0.047,0.18
						l0.105,0.148l-0.105,0.034l0.144-0.723c0.003-0.027,0.026-0.046,0.054-0.042c0.015,0.001,0.029,0.014,0.037,0.026
						c0.077,0.152,0.125,0.317,0.153,0.488l-0.07-0.014c0.071-0.169,0.132-0.348,0.173-0.536c0.001-0.01,0.009-0.017,0.019-0.016
						c0.007,0,0.012,0.006,0.015,0.012l0.085,0.242c0.002,0.004-0.001,0.008-0.004,0.009c-0.004,0.001-0.009-0.002-0.011-0.005
						l-0.102-0.23l0.033-0.005c-0.027,0.19-0.067,0.379-0.142,0.566c-0.007,0.018-0.028,0.027-0.047,0.02
						c-0.012-0.005-0.02-0.015-0.022-0.026l-0.002-0.009c-0.033-0.156-0.084-0.307-0.164-0.449l0.091-0.016L8.12,19.742
						l-0.001,0.007c-0.005,0.032-0.035,0.054-0.067,0.049c-0.016-0.002-0.028-0.011-0.038-0.022l-0.144-0.184L7.8,19.374
						c-0.015-0.147-0.014-0.292,0-0.431c0.012-0.139,0.025-0.275,0.022-0.405c0.006-0.069-0.02-0.123-0.027-0.186
						c-0.014-0.059-0.059-0.096-0.082-0.149l0.12-0.047l-0.017,0.559l-0.048,0.289l-0.117,0.274
						c-0.015,0.033-0.053,0.048-0.086,0.034c-0.022-0.009-0.036-0.03-0.039-0.053l-0.002-0.02L7.49,18.893l0.129,0.004
						c-0.035,0.126-0.078,0.24-0.125,0.333c-0.015,0.031-0.051,0.044-0.082,0.03c-0.012-0.005-0.022-0.017-0.028-0.028l-0.194-0.381
						l0.094-0.004c-0.045,0.189-0.118,0.37-0.226,0.539c-0.011,0.017-0.034,0.022-0.051,0.011c-0.009-0.005-0.014-0.013-0.017-0.021
						c-0.072-0.264-0.11-0.529-0.119-0.798l0.051,0.012c-0.076,0.242-0.073,0.532-0.113,0.798c-0.019,0.136-0.038,0.272-0.076,0.408
						c-0.025,0.066-0.038,0.138-0.109,0.199c-0.102,0.07-0.193-0.008-0.223-0.077c-0.08-0.142-0.076-0.283-0.087-0.421
						c-0.008-0.139-0.003-0.277,0.003-0.414c0.006-0.273,0.044-0.548,0.061-0.812v-0.005c0.002-0.033,0.03-0.059,0.063-0.057
						c0.03,0.002,0.055,0.027,0.056,0.058c0.008,0.166,0,0.332-0.023,0.499c-0.015,0.083-0.044,0.165-0.066,0.246
						c-0.032,0.079-0.095,0.149-0.142,0.221c-0.012,0.018-0.036,0.022-0.054,0.011c-0.008-0.005-0.014-0.013-0.016-0.022
						l-0.004-0.015c-0.027-0.108-0.046-0.23-0.055-0.359l0.074,0.008c-0.051,0.15-0.131,0.273-0.229,0.373l-0.005,0.005
						c-0.008,0.008-0.02,0.008-0.027,0c-0.091-0.088-0.156-0.183-0.205-0.289c-0.002-0.003,0-0.008,0.004-0.01
						C5.751,18.933,5.756,18.934,5.757,18.938z"/>
				</g>
				<g>
					<path class="st5" d="M5.698,18.407c0-0.003,0.013-0.039,0.032-0.051c0.01-0.021,0.022,0.007,0.034,0.016
						c0.013,0.023,0.025,0.02,0.038,0.001c0.014-0.02,0.027-0.032,0.039-0.03c0.012,0.001,0.023-0.013,0.033,0.008
						c0.019,0.02,0.033,0.054,0.033,0.056c0.002,0.005,0.002,0.01,0,0.015c0,0.002-0.014,0.036-0.033,0.056
						c-0.01,0.021-0.022,0.007-0.033,0.008c-0.012,0.003-0.025-0.01-0.039-0.03c-0.013-0.018-0.025-0.022-0.038,0.001
						c-0.013,0.009-0.024,0.036-0.034,0.016c-0.019-0.012-0.032-0.048-0.032-0.051C5.696,18.417,5.697,18.411,5.698,18.407z"/>
				</g>
				<g>
					<path class="st5" d="M7.012,18.407c0,0,0.083-0.073,0.227-0.122c0.079-0.014,0.2,0.012,0.28,0.045
						c0.088,0.05,0.188,0.053,0.282,0.033c0.049,0,0.076-0.028,0.127-0.054c0.047-0.02,0.093-0.036,0.125-0.063
						c0.066-0.044,0.139-0.103,0.221-0.125c0.157-0.054,0.271-0.024,0.268-0.028c0.004,0.001,0.006,0.005,0.006,0.009
						c-0.001,0.002-0.004,0.004-0.006,0.005c0,0-0.022,0.014-0.062,0.039c-0.037,0.029-0.095,0.029-0.148,0.086
						c-0.05,0.052-0.13,0.084-0.222,0.143c-0.045,0.03-0.091,0.047-0.139,0.059c-0.043,0.006-0.108,0.028-0.163,0.011
						C7.7,18.43,7.6,18.417,7.504,18.413c-0.103-0.017-0.162,0.019-0.232-0.016c-0.146,0.025-0.254,0.03-0.254,0.025
						c-0.004,0-0.008-0.004-0.008-0.008C7.009,18.411,7.01,18.408,7.012,18.407z"/>
				</g>
			</g>
		</g>
	</g>
	<g>
		<path class="st1" d="M17.984,12.365h-1.72c0,0-0.408-1.661-0.408-1.935c0-0.547,1.268-1.055,1.268-1.055s1.268,0.469,1.268,1.055
			C18.392,10.782,17.984,12.365,17.984,12.365z"/>
		<path class="st6" d="M18.523,34.146c0.833,0,1.75-0.083,1.75-1.333c0-2.5,3.577-8.014,2.5-12.434c-0.834-3.417-4.65-1-4.65-2.917
			c0-1.083,0.1-0.649,0.516-2.566c0.418-1.917-0.783-1.833-0.783-1.833h-1.463c0,0-1.199-0.083-0.783,1.833
			c0.418,1.917,0.518,1.316,0.518,2.566c0,1.917-3.818-0.5-4.65,2.917c-1.078,4.42,2.5,9.934,2.5,12.434
			c0,1.25,0.916,1.333,1.75,1.333H18.523z"/>
		<line class="st3" x1="15.935" y1="10.575" x2="18.325" y2="10.575"/>
		<rect x="16.5" y="11.25" class="st1" width="1.25" height="1.812"/>
		<g>
			<path class="st4" d="M16.507,13.572c0.015,0.01-0.252,0.006-0.341,0.273c-0.073,0.263-0.027,0.663,0.022,1.054
				c0.126,0.785,0.293,1.568,0.293,1.568l-0.014,0.004c0,0-0.232-0.765-0.398-1.552c-0.08-0.388-0.156-0.812-0.005-1.118
				c0.071-0.151,0.205-0.231,0.301-0.241c0.088-0.007,0.139-0.004,0.139-0.004L16.507,13.572z"/>
		</g>
		<g>
			<path class="st4" d="M16.936,13.572c0,0-0.051,0.017-0.066,0.091c-0.02,0.074-0.052,0.183-0.059,0.321
				c-0.017,0.273-0.034,0.639-0.031,1.009c0.018,0.74,0.162,1.475,0.162,1.475l-0.015,0.003c0,0-0.21-0.719-0.267-1.471
				c-0.037-0.374-0.037-0.756,0.042-1.034c0.033-0.139,0.069-0.255,0.122-0.327c0.051-0.083,0.111-0.083,0.108-0.082L16.936,13.572z
				"/>
		</g>
		<g>
			<path class="st4" d="M17.314,13.557c-0.004-0.001,0.058-0.002,0.107,0.082c0.053,0.071,0.089,0.188,0.122,0.327
				c0.08,0.278,0.079,0.661,0.043,1.034c-0.058,0.751-0.268,1.471-0.268,1.471l-0.015-0.003c0,0,0.146-0.734,0.162-1.475
				c0.004-0.37-0.014-0.736-0.03-1.009c-0.009-0.138-0.039-0.247-0.059-0.321c-0.016-0.075-0.067-0.091-0.066-0.091L17.314,13.557z"
				/>
		</g>
		<g>
			<path class="st4" d="M17.804,13.557c0,0,0.051-0.003,0.139,0.004c0.096,0.009,0.229,0.09,0.301,0.241
				c0.15,0.306,0.075,0.73-0.005,1.118c-0.166,0.787-0.398,1.552-0.398,1.552l-0.015-0.004c0,0,0.168-0.784,0.294-1.568
				c0.05-0.392,0.096-0.792,0.022-1.054c-0.089-0.267-0.355-0.263-0.341-0.273L17.804,13.557z"/>
		</g>
		<g>
			<path class="st1" d="M20.939,25.48c0,2.669-1.716,4.833-3.834,4.833c-2.117,0-3.834-2.164-3.834-4.833
				c0-2.67,1.717-4.833,3.834-4.833C19.223,20.646,20.939,22.81,20.939,25.48z"/>
			<path class="st4" d="M20.609,25.48c0,2.439-1.568,4.417-3.504,4.417c-1.936,0-3.504-1.978-3.504-4.417
				c0-2.439,1.568-4.417,3.504-4.417C19.041,21.063,20.609,23.041,20.609,25.48z"/>
			<g>
				<g>
					<path class="st1" d="M16.527,21.825c0.004-0.004-0.119,0.023-0.093,0.182c0.007,0.069,0.06,0.149,0.143,0.176
						c0.116,0.041,0.2,0.002,0.274-0.093c0.063-0.096,0.063-0.239,0.022-0.367c-0.045-0.126-0.19-0.207-0.351-0.198
						c-0.158,0.006-0.329,0.082-0.434,0.222c-0.093,0.146-0.122,0.336-0.112,0.508c0.017,0.175,0.069,0.361,0.058,0.552
						c0.003,0.198-0.164,0.397-0.324,0.476c-0.167,0.096-0.388,0.092-0.538,0.015c-0.193-0.092-0.245-0.306-0.208-0.458
						c0.036-0.153,0.138-0.281,0.265-0.319c0.123-0.041,0.247-0.009,0.311,0.059c0.126,0.149,0.043,0.262,0.058,0.255l-0.015-0.003
						c-0.009,0.009,0.035-0.115-0.084-0.205c-0.107-0.103-0.383-0.017-0.408,0.237c-0.017,0.116,0.04,0.241,0.139,0.297
						c0.13,0.066,0.279,0.067,0.416-0.004c0.134-0.082,0.248-0.182,0.254-0.357c0.018-0.172-0.006-0.351-0.008-0.542
						c-0.009-0.379,0.232-0.782,0.625-0.818c0.182-0.026,0.391,0.059,0.47,0.235c0.077,0.162,0.06,0.355-0.04,0.483
						c-0.087,0.136-0.301,0.166-0.391,0.112c-0.132-0.052-0.191-0.169-0.186-0.259c0.009-0.202,0.17-0.208,0.152-0.2L16.527,21.825z
						"/>
				</g>
			</g>
			<g>
				<g>
					<path class="st1" d="M14.953,23.664c0.001-0.019,0.057,0.132-0.126,0.217c-0.081,0.04-0.212,0.032-0.312-0.071
						c-0.082-0.064-0.137-0.271-0.045-0.404c0.08-0.143,0.253-0.231,0.431-0.222c0.192,0.004,0.352,0.166,0.397,0.343
						c0.115,0.375-0.162,0.753-0.516,0.891c-0.178,0.071-0.352,0.118-0.504,0.2c-0.16,0.072-0.209,0.215-0.234,0.37
						c-0.014,0.153,0.043,0.292,0.153,0.386c0.089,0.07,0.227,0.075,0.327,0.016c0.225-0.12,0.201-0.406,0.064-0.468
						c-0.127-0.076-0.226,0.012-0.221,0l-0.008-0.013c-0.001,0.017,0.071-0.104,0.258-0.043c0.086,0.034,0.162,0.136,0.171,0.266
						c0.013,0.132-0.067,0.273-0.194,0.366c-0.126,0.092-0.345,0.124-0.502-0.018c-0.13-0.111-0.215-0.313-0.19-0.504
						c0.012-0.177,0.134-0.408,0.316-0.479c0.173-0.083,0.364-0.105,0.533-0.157c0.162-0.057,0.327-0.157,0.425-0.298
						c0.089-0.15,0.094-0.337,0.04-0.486c-0.054-0.152-0.185-0.255-0.317-0.248c-0.136,0.011-0.268,0.064-0.331,0.161
						c-0.058,0.104-0.062,0.197,0.02,0.29c0.057,0.067,0.151,0.084,0.218,0.065c0.155-0.036,0.135-0.16,0.133-0.155L14.953,23.664z"
						/>
				</g>
			</g>
			<g>
				<g>
					<path class="st1" d="M17.52,21.759c-0.018-0.006,0.144-0.013,0.167,0.188c0.013,0.09-0.037,0.211-0.164,0.273
						c-0.086,0.06-0.301,0.048-0.397-0.081c-0.111-0.12-0.144-0.311-0.079-0.478c0.064-0.182,0.266-0.284,0.449-0.273
						c0.394,0.005,0.666,0.387,0.688,0.766c0.014,0.191,0.005,0.371,0.037,0.541c0.019,0.175,0.141,0.265,0.281,0.336
						c0.142,0.06,0.289,0.047,0.414-0.029c0.094-0.062,0.141-0.192,0.115-0.307c-0.045-0.251-0.326-0.315-0.427-0.204
						c-0.11,0.099-0.057,0.219-0.066,0.211l-0.015,0.004c0.016,0.006-0.077-0.1,0.037-0.259c0.059-0.072,0.179-0.114,0.305-0.083
						c0.13,0.028,0.24,0.148,0.289,0.297c0.049,0.147,0.015,0.366-0.17,0.472c-0.145,0.089-0.364,0.11-0.539,0.028
						c-0.166-0.065-0.348-0.251-0.359-0.448c-0.027-0.19,0.01-0.379,0.013-0.556c-0.003-0.172-0.048-0.36-0.151-0.498
						c-0.116-0.131-0.292-0.193-0.45-0.187c-0.161,0.005-0.301,0.097-0.335,0.226c-0.031,0.131-0.02,0.273,0.053,0.364
						c0.081,0.089,0.167,0.121,0.28,0.071c0.082-0.034,0.127-0.118,0.13-0.187c0.014-0.16-0.111-0.178-0.107-0.174L17.52,21.759z"/>
				</g>
			</g>
			<g>
				<g>
					<path class="st1" d="M19.233,23.494c-0.003-0.005-0.025,0.118,0.13,0.158c0.066,0.021,0.16,0.006,0.219-0.061
						c0.083-0.09,0.082-0.184,0.024-0.289c-0.062-0.098-0.192-0.154-0.327-0.167c-0.133-0.01-0.266,0.091-0.322,0.242
						c-0.058,0.148-0.056,0.334,0.029,0.487c0.096,0.143,0.259,0.247,0.42,0.306c0.168,0.055,0.359,0.081,0.53,0.167
						c0.182,0.076,0.298,0.308,0.307,0.486c0.022,0.191-0.067,0.392-0.2,0.5c-0.16,0.139-0.377,0.103-0.502,0.009
						c-0.126-0.095-0.203-0.238-0.188-0.37c0.012-0.129,0.09-0.229,0.177-0.263c0.187-0.058,0.257,0.065,0.257,0.048l-0.009,0.013
						c0.005,0.012-0.092-0.079-0.22-0.004c-0.138,0.06-0.168,0.346,0.055,0.469c0.1,0.061,0.237,0.059,0.328-0.009
						c0.111-0.092,0.172-0.229,0.16-0.383c-0.021-0.155-0.068-0.3-0.227-0.375c-0.15-0.085-0.323-0.135-0.5-0.21
						c-0.351-0.144-0.621-0.527-0.499-0.9c0.049-0.177,0.212-0.334,0.404-0.335c0.179-0.006,0.35,0.085,0.427,0.231
						c0.089,0.134,0.03,0.34-0.054,0.402c-0.101,0.101-0.231,0.106-0.312,0.065c-0.182-0.089-0.123-0.238-0.123-0.22L19.233,23.494z
						"/>
				</g>
			</g>
			<g>
				<g>
					<path class="st1" d="M17.707,29.091c-0.004,0.004,0.12-0.023,0.094-0.182c-0.008-0.068-0.061-0.149-0.144-0.176
						c-0.116-0.042-0.2-0.002-0.274,0.093c-0.064,0.096-0.063,0.238-0.022,0.367c0.044,0.125,0.19,0.207,0.352,0.199
						c0.158-0.006,0.328-0.082,0.434-0.222c0.093-0.146,0.122-0.336,0.111-0.508c-0.016-0.176-0.068-0.362-0.058-0.553
						c-0.004-0.197,0.163-0.397,0.323-0.476c0.167-0.096,0.387-0.093,0.539-0.016c0.192,0.091,0.245,0.306,0.208,0.457
						c-0.037,0.153-0.138,0.282-0.265,0.32c-0.123,0.041-0.247,0.009-0.31-0.058c-0.126-0.149-0.043-0.263-0.058-0.255l0.015,0.003
						c0.01-0.009-0.035,0.115,0.084,0.205c0.108,0.103,0.383,0.016,0.408-0.237c0.017-0.116-0.04-0.242-0.139-0.297
						c-0.131-0.066-0.279-0.066-0.416,0.005c-0.134,0.082-0.248,0.182-0.254,0.358c-0.018,0.172,0.006,0.35,0.008,0.542
						c0.008,0.38-0.233,0.782-0.625,0.818c-0.182,0.026-0.392-0.059-0.47-0.236c-0.077-0.161-0.06-0.355,0.041-0.483
						c0.086-0.136,0.3-0.165,0.39-0.112c0.133,0.052,0.191,0.169,0.186,0.26c-0.009,0.202-0.17,0.208-0.152,0.2L17.707,29.091z"/>
				</g>
			</g>
			<g>
				<g>
					<path class="st1" d="M19.281,27.251c-0.001,0.019-0.057-0.132,0.126-0.217c0.081-0.04,0.212-0.031,0.311,0.072
						c0.083,0.063,0.138,0.271,0.046,0.403c-0.08,0.143-0.253,0.232-0.431,0.222c-0.193-0.004-0.352-0.165-0.397-0.343
						c-0.115-0.375,0.162-0.753,0.516-0.891c0.178-0.071,0.351-0.117,0.504-0.2c0.16-0.072,0.209-0.215,0.234-0.37
						c0.014-0.153-0.043-0.292-0.153-0.386c-0.089-0.071-0.226-0.075-0.327-0.016c-0.225,0.12-0.201,0.406-0.065,0.468
						c0.127,0.077,0.226-0.012,0.221,0l0.008,0.013c0.001-0.017-0.072,0.104-0.258,0.044c-0.086-0.035-0.162-0.137-0.172-0.266
						c-0.012-0.132,0.067-0.274,0.195-0.366c0.126-0.092,0.345-0.124,0.502,0.019c0.13,0.111,0.215,0.313,0.191,0.504
						c-0.012,0.178-0.134,0.408-0.317,0.479c-0.172,0.083-0.363,0.105-0.532,0.157c-0.163,0.057-0.327,0.156-0.426,0.298
						c-0.088,0.15-0.093,0.337-0.039,0.486c0.054,0.152,0.186,0.255,0.317,0.248c0.135-0.011,0.268-0.064,0.33-0.161
						c0.059-0.104,0.063-0.197-0.019-0.289c-0.057-0.067-0.151-0.085-0.218-0.065c-0.156,0.037-0.135,0.16-0.133,0.156
						L19.281,27.251z"/>
				</g>
			</g>
			<g>
				<g>
					<path class="st1" d="M16.714,29.157c0.018,0.006-0.144,0.013-0.167-0.188c-0.013-0.09,0.037-0.211,0.164-0.273
						c0.086-0.06,0.301-0.047,0.397,0.081c0.11,0.12,0.144,0.311,0.079,0.478c-0.064,0.182-0.266,0.284-0.449,0.273
						c-0.394-0.005-0.666-0.387-0.688-0.766c-0.014-0.191-0.005-0.371-0.036-0.54c-0.021-0.175-0.142-0.265-0.282-0.337
						c-0.141-0.061-0.29-0.048-0.414,0.028c-0.094,0.062-0.141,0.193-0.115,0.307c0.045,0.251,0.326,0.315,0.426,0.204
						c0.111-0.099,0.058-0.219,0.067-0.21l0.015-0.004c-0.016-0.006,0.077,0.1-0.037,0.259c-0.059,0.072-0.18,0.113-0.306,0.083
						c-0.13-0.027-0.24-0.147-0.289-0.297c-0.048-0.148-0.014-0.366,0.171-0.472c0.146-0.089,0.364-0.109,0.539-0.027
						c0.166,0.065,0.348,0.251,0.359,0.448c0.027,0.189-0.01,0.379-0.013,0.556c0.003,0.172,0.048,0.36,0.151,0.497
						c0.116,0.131,0.292,0.193,0.451,0.187c0.16-0.005,0.3-0.097,0.334-0.226c0.03-0.131,0.019-0.273-0.053-0.364
						c-0.081-0.089-0.168-0.122-0.28-0.071c-0.081,0.034-0.127,0.118-0.13,0.187c-0.014,0.16,0.111,0.178,0.107,0.174L16.714,29.157
						z"/>
				</g>
			</g>
			<g>
				<g>
					<path class="st1" d="M15.001,27.422c0.003,0.005,0.025-0.118-0.13-0.158c-0.066-0.021-0.16-0.006-0.219,0.06
						c-0.084,0.091-0.082,0.184-0.024,0.289c0.062,0.098,0.192,0.154,0.327,0.168c0.133,0.01,0.266-0.091,0.322-0.242
						c0.058-0.148,0.056-0.334-0.029-0.486c-0.096-0.144-0.259-0.247-0.42-0.307c-0.167-0.055-0.359-0.08-0.529-0.167
						c-0.182-0.075-0.3-0.308-0.308-0.485c-0.021-0.191,0.067-0.392,0.2-0.5c0.16-0.14,0.377-0.104,0.502-0.009
						c0.125,0.095,0.202,0.238,0.188,0.37c-0.012,0.129-0.09,0.23-0.177,0.263c-0.186,0.058-0.257-0.065-0.257-0.048l0.009-0.013
						c-0.005-0.012,0.091,0.079,0.22,0.004c0.138-0.06,0.167-0.345-0.055-0.47c-0.1-0.061-0.237-0.059-0.328,0.01
						c-0.111,0.092-0.172,0.229-0.16,0.383c0.023,0.155,0.068,0.3,0.228,0.375c0.149,0.085,0.323,0.135,0.499,0.209
						c0.352,0.145,0.621,0.527,0.499,0.9c-0.049,0.177-0.212,0.335-0.405,0.335c-0.178,0.006-0.35-0.086-0.426-0.231
						c-0.089-0.134-0.03-0.34,0.054-0.402c0.101-0.101,0.231-0.107,0.312-0.065c0.181,0.089,0.122,0.238,0.122,0.22L15.001,27.422z"
						/>
				</g>
			</g>
			<g>
				<g>
					<path class="st5" d="M15.526,24.828c0.061,0.008,0.124,0.032,0.183,0.028c0.055-0.028,0.111-0.024,0.155-0.069
						c0.097-0.067,0.173-0.162,0.238-0.263c0.126-0.204,0.209-0.451,0.214-0.677c0-0.036,0.029-0.065,0.065-0.065
						c0.027,0,0.05,0.017,0.059,0.039c0.089,0.208,0.021,0.42-0.025,0.6c-0.05,0.183-0.105,0.364-0.071,0.542l-0.033-0.031
						l0.156-0.014c0.046-0.025,0.089-0.059,0.135-0.088c0.072-0.085,0.139-0.18,0.178-0.29c0.005-0.013,0.02-0.02,0.031-0.015
						c0.01,0.003,0.017,0.012,0.017,0.021v0.006l0.028,0.425l-0.065-0.02l0.259-0.289c0.018-0.021,0.048-0.023,0.068-0.006
						l0.013,0.017c0.027,0.059,0.047,0.126,0.081,0.179c0.028,0.053,0.072,0.111,0.101,0.112c0.058,0.015,0.143-0.136,0.191-0.244
						c0.113-0.242,0.178-0.501,0.285-0.768c0.015-0.037,0.057-0.055,0.093-0.04c0.034,0.014,0.052,0.054,0.042,0.089l-0.1,0.354
						c-0.02,0.111-0.057,0.242-0.033,0.328c-0.009,0.046,0.021,0.096,0.057,0.145c0.029,0.03,0.064,0.067,0.103,0.063
						c0.079,0.011,0.153-0.104,0.193-0.206c0.007-0.025,0.034-0.039,0.059-0.032c0.018,0.005,0.031,0.024,0.034,0.042l0.011,0.172
						l-0.056-0.038c0.072-0.017,0.143-0.025,0.2-0.033c0.051-0.011,0.09-0.064,0.133-0.11c0.01-0.011,0.025-0.011,0.036-0.001
						l0.006,0.006c0.02,0.028,0.024,0.072,0.055,0.091c0.015,0.009,0.027,0.026,0.046,0.029c0.019,0.009,0.036,0,0.051,0.022
						l0.005,0.007c0.004,0.006,0.012,0.007,0.017,0.003c0.006-0.004,0.007-0.012,0.003-0.017c-0.003-0.005-0.01-0.006-0.015-0.004
						c-0.002,0.006-0.032,0.024-0.036,0.015l-0.031-0.004c-0.022-0.001-0.038-0.018-0.059-0.027c-0.04-0.02-0.053-0.067-0.08-0.102
						l0.041,0.005c-0.042,0.056-0.07,0.124-0.153,0.153c-0.073,0.015-0.134,0.027-0.19,0.044c-0.022,0.007-0.047-0.006-0.054-0.028
						l-0.002-0.01l-0.022-0.166l0.092,0.011c-0.042,0.112-0.096,0.279-0.282,0.296c-0.091,0.007-0.157-0.05-0.211-0.106
						c-0.039-0.048-0.082-0.103-0.09-0.184c-0.043-0.158,0.013-0.272,0.031-0.4l0.102-0.355l0.135,0.049
						c-0.099,0.238-0.171,0.512-0.292,0.765c-0.029,0.064-0.062,0.128-0.11,0.188c-0.038,0.054-0.121,0.138-0.231,0.112
						c-0.104-0.035-0.132-0.116-0.167-0.177c-0.035-0.065-0.05-0.133-0.075-0.199l0.081,0.011l-0.273,0.274l-0.006,0.005
						c-0.014,0.014-0.035,0.014-0.049,0c-0.008-0.007-0.011-0.016-0.011-0.024l-0.009-0.427l0.049,0.013
						c-0.051,0.108-0.105,0.213-0.182,0.311c-0.049,0.037-0.098,0.08-0.151,0.112L16.3,25.011c-0.015,0.002-0.027-0.007-0.031-0.021
						l-0.002-0.01c-0.053-0.202,0.001-0.403,0.04-0.586c0.044-0.184,0.07-0.368,0.014-0.524l0.124-0.025
						c-0.021,0.274-0.123,0.513-0.268,0.728c-0.077,0.104-0.162,0.206-0.279,0.271c-0.052,0.041-0.135,0.036-0.196,0.052
						c-0.062-0.005-0.12-0.036-0.18-0.053c-0.004-0.001-0.007-0.005-0.005-0.009C15.518,24.829,15.522,24.827,15.526,24.828z"/>
				</g>
				<g>
					<path class="st5" d="M15.756,24.449c0.017,0.006-0.024-0.112,0.129-0.197c0.069-0.07,0.158-0.045,0.245-0.06
						c0.088,0.012,0.178-0.002,0.266-0.026c0.089-0.025,0.178-0.044,0.26-0.05c0.084-0.004,0.153-0.033,0.22-0.026
						c0.068,0.006,0.113-0.016,0.153-0.019c0.042-0.003,0.066-0.005,0.066-0.005c0.004-0.001,0.008,0.002,0.01,0.006
						c0,0.002-0.001,0.005-0.002,0.007c0.001-0.005-0.06,0.083-0.198,0.134c-0.137,0.051-0.321,0.063-0.502,0.036
						c-0.182-0.043-0.358,0.083-0.452,0.101c-0.057,0.001-0.1,0.04-0.127,0.072c-0.035,0.024-0.055,0.038-0.055,0.038l-0.01,0.007
						c-0.004,0.003-0.01,0.002-0.013-0.002c-0.003-0.004-0.002-0.009,0.002-0.012C15.752,24.448,15.754,24.448,15.756,24.449z"/>
				</g>
				<g>
					<path class="st5" d="M16.007,26.216c0.053,0.093,0.123,0.172,0.199,0.234l-0.032,0.005c0.087-0.102,0.135-0.217,0.174-0.325
						c0.007-0.02,0.028-0.031,0.049-0.024c0.015,0.005,0.024,0.018,0.026,0.032c0.011,0.097,0.028,0.199,0.061,0.311l-0.073-0.027
						c0.032-0.06,0.076-0.109,0.1-0.172c0.016-0.068,0.038-0.134,0.048-0.204c0.014-0.142,0.016-0.285,0.004-0.43l0.12-0.004
						c-0.002,0.256-0.032,0.497-0.053,0.743c-0.009,0.122-0.018,0.245-0.015,0.365c0.002,0.116,0.004,0.25,0.051,0.335
						c0.01,0.052,0.07,0.072,0.077,0.052c0.031-0.022,0.056-0.085,0.075-0.137c0.037-0.113,0.059-0.235,0.08-0.355l0.055-0.366
						c0.024-0.124,0.019-0.242,0.066-0.375c0.005-0.013,0.019-0.02,0.032-0.015c0.01,0.003,0.017,0.012,0.018,0.022v0.005
						c0.015,0.241,0.057,0.475,0.126,0.701l-0.067-0.01c0.084-0.142,0.139-0.298,0.173-0.464c0.005-0.026,0.03-0.043,0.057-0.038
						c0.015,0.003,0.025,0.012,0.032,0.024l0.006,0.01l0.191,0.338l-0.11,0.002c0.046-0.105,0.073-0.199,0.097-0.283l0.001-0.005
						c0.01-0.035,0.046-0.056,0.081-0.046c0.026,0.007,0.045,0.03,0.048,0.056l0.036,0.326l-0.126-0.039
						c0.07-0.14,0.116-0.289,0.128-0.452l0.012-0.505l0.001-0.014c0.001-0.036,0.03-0.064,0.066-0.063
						c0.022,0,0.042,0.013,0.054,0.03c0.039,0.061,0.096,0.124,0.112,0.191c0.011,0.067,0.038,0.14,0.032,0.205
						c0.004,0.133-0.009,0.26-0.018,0.384c-0.013,0.124-0.008,0.243-0.001,0.359l0.042,0.162l0.094,0.132l-0.106,0.034l0.13-0.655
						c0.003-0.026,0.027-0.045,0.054-0.042c0.015,0.001,0.03,0.014,0.037,0.026c0.07,0.139,0.114,0.289,0.14,0.444l-0.071-0.014
						l0.159-0.484c0.001-0.01,0.009-0.017,0.019-0.016c0.006,0,0.012,0.007,0.015,0.012l0.077,0.22
						c0.001,0.004-0.002,0.008-0.006,0.009c-0.003,0.001-0.008-0.002-0.01-0.005l-0.094-0.208l0.034-0.004l-0.128,0.513
						c-0.004,0.018-0.024,0.03-0.042,0.025c-0.013-0.003-0.022-0.014-0.025-0.026l-0.003-0.014
						c-0.031-0.141-0.077-0.276-0.149-0.405l0.091-0.017l-0.102,0.67v0.006c-0.006,0.032-0.035,0.055-0.067,0.05
						c-0.016-0.002-0.029-0.011-0.038-0.022l-0.133-0.169l-0.063-0.2c-0.014-0.134-0.013-0.266,0-0.392
						c0.01-0.126,0.022-0.25,0.02-0.367c0.005-0.062-0.019-0.11-0.024-0.166c-0.013-0.053-0.053-0.085-0.073-0.132l0.12-0.047
						l-0.015,0.507c-0.014,0.178-0.065,0.35-0.151,0.513c-0.017,0.033-0.057,0.045-0.09,0.028c-0.019-0.011-0.033-0.031-0.035-0.052
						l-0.001-0.015l-0.03-0.313l0.129,0.004c-0.033,0.116-0.072,0.219-0.115,0.303c-0.014,0.031-0.051,0.044-0.081,0.03
						c-0.013-0.006-0.023-0.017-0.029-0.028L17.3,26.14l0.095-0.004c-0.042,0.171-0.108,0.335-0.206,0.489
						c-0.012,0.017-0.034,0.022-0.052,0.011c-0.008-0.005-0.014-0.013-0.016-0.021c-0.065-0.24-0.101-0.48-0.107-0.724l0.05,0.012
						c-0.068,0.217-0.066,0.482-0.102,0.723c-0.017,0.123-0.033,0.246-0.068,0.37c-0.023,0.061-0.034,0.125-0.1,0.183
						c-0.096,0.066-0.182-0.007-0.208-0.07c-0.073-0.13-0.07-0.258-0.081-0.384c-0.007-0.127-0.002-0.251,0.002-0.375
						c0.005-0.248,0.039-0.498,0.055-0.735v-0.005c0.002-0.033,0.031-0.058,0.065-0.056c0.03,0.002,0.055,0.027,0.056,0.058
						c0.006,0.15,0,0.302-0.021,0.453c-0.014,0.075-0.04,0.149-0.06,0.224c-0.029,0.072-0.087,0.136-0.131,0.202
						c-0.012,0.018-0.035,0.022-0.053,0.011c-0.009-0.005-0.014-0.014-0.017-0.022l-0.004-0.015
						c-0.024-0.097-0.041-0.208-0.049-0.326l0.075,0.008c-0.047,0.138-0.12,0.249-0.211,0.339l-0.005,0.005
						c-0.008,0.008-0.02,0.008-0.027,0c-0.082-0.081-0.141-0.167-0.185-0.263c-0.002-0.003-0.001-0.008,0.003-0.01
						C16.002,26.211,16.006,26.213,16.007,26.216z"/>
				</g>
				<g>
					<path class="st5" d="M15.954,25.735c0-0.003,0.012-0.039,0.03-0.051c0.009-0.021,0.019,0.007,0.03,0.016
						c0.011,0.023,0.022,0.02,0.034,0.001c0.013-0.02,0.024-0.032,0.035-0.03c0.012,0.001,0.021-0.013,0.031,0.008
						c0.018,0.02,0.029,0.054,0.029,0.056c0.002,0.005,0.002,0.01,0,0.015c0,0.002-0.012,0.036-0.029,0.056
						c-0.01,0.021-0.019,0.007-0.031,0.008c-0.011,0.002-0.023-0.01-0.035-0.03c-0.012-0.018-0.023-0.022-0.034,0.001
						c-0.012,0.009-0.022,0.036-0.03,0.016c-0.019-0.012-0.03-0.048-0.03-0.051C15.952,25.745,15.952,25.74,15.954,25.735z"/>
				</g>
				<g>
					<path class="st5" d="M17.145,25.735c0,0,0.073-0.069,0.204-0.116c0.072-0.015,0.186,0.011,0.257,0.042
						c0.079,0.048,0.171,0.05,0.255,0.03c0.043,0,0.066-0.027,0.113-0.051c0.042-0.018,0.084-0.033,0.111-0.059
						c0.061-0.039,0.125-0.093,0.201-0.113c0.145-0.047,0.249-0.018,0.244-0.021c0.005,0.001,0.008,0.005,0.006,0.009
						c0,0.002-0.002,0.004-0.004,0.005c0,0.008-0.088,0.047-0.189,0.119c-0.043,0.048-0.116,0.076-0.2,0.13
						c-0.042,0.027-0.083,0.043-0.126,0.054c-0.039,0.004-0.1,0.025-0.149,0.008c-0.101-0.015-0.191-0.027-0.278-0.029
						c-0.095-0.015-0.145,0.021-0.209-0.013c-0.131,0.022-0.231,0.023-0.232,0.018c-0.004,0-0.007-0.004-0.007-0.008
						C17.142,25.739,17.143,25.737,17.145,25.735z"/>
				</g>
			</g>
		</g>
	</g>
</g>
</svg>