<!-- Generator: Adobe Illustrator 22.1.0, SVG Export Plug-In  -->
<svg version="1.1"
	 xmlns="http://www.w3.org/2000/svg" xmlns:xlink="http://www.w3.org/1999/xlink" xmlns:a="http://ns.adobe.com/AdobeSVGViewerExtensions/3.0/"
	 x="0px" y="0px" width="99.036px" height="99.062px" viewBox="0 0 99.036 99.062"
	 style="enable-background:new 0 0 99.036 99.062;" xml:space="preserve">
<style type="text/css">
	.st0{fill:#262626;}
	.st1{fill-rule:evenodd;clip-rule:evenodd;fill:#262626;}
</style>
<defs>
</defs>
<path class="st0" d="M49.519,0C63.2,0,75.565,5.565,84.532,14.504c8.966,8.966,14.504,21.359,14.504,35.042
	c0,13.653-5.538,26.047-14.504,35.012C75.565,93.497,63.2,99.062,49.519,99.062c-13.683,0-26.048-5.566-35.013-14.505
	C5.538,75.593,0,63.199,0,49.545C0,35.863,5.538,23.47,14.506,14.504C23.471,5.565,35.836,0,49.519,0L49.519,0z M81.79,17.246
	C73.536,8.992,62.132,3.893,49.519,3.893c-12.614,0-24.019,5.099-32.272,13.353c-8.279,8.253-13.38,19.687-13.38,32.299
	c0,12.585,5.101,24.019,13.38,32.272c8.254,8.252,19.658,13.38,32.272,13.38c12.613,0,24.018-5.127,32.271-13.38
	c8.28-8.253,13.38-19.687,13.38-32.272C95.17,36.933,90.07,25.499,81.79,17.246L81.79,17.246z"/>
<path class="st1" d="M74.798,34.108c-1.838,0.796-3.838,1.344-5.949,1.618c2.165-1.288,3.809-3.263,4.579-5.675
	c-2.002,1.179-4.25,2.029-6.607,2.495c-1.867-2-4.579-3.235-7.596-3.235c-5.703,0-10.365,4.579-10.365,10.199
	c0,0.823,0.139,1.591,0.303,2.332c-8.637-0.412-16.287-4.47-21.388-10.667c-0.877,1.536-1.425,3.263-1.425,5.127
	c0,3.564,1.864,6.69,4.605,8.5c-1.699-0.027-3.29-0.494-4.688-1.262c0,0.055,0,0.083,0,0.137c0,1.316,0.247,2.523,0.712,3.674
	c1.263,3.209,4.142,5.621,7.624,6.307c-0.906,0.247-1.783,0.383-2.742,0.383c-0.658,0-1.316-0.082-1.948-0.219
	c1.345,4.058,5.155,7.019,9.681,7.129c-3.566,2.742-8.007,4.359-12.86,4.359c-0.851,0-1.644-0.056-2.494-0.137
	c4.605,2.879,10.062,4.579,15.902,4.579c16.204,0,26.212-11.215,28.816-22.868c0.468-2.083,0.686-4.14,0.686-6.168
	c0-0.439,0-0.904,0-1.316C71.645,37.947,73.428,36.137,74.798,34.108L74.798,34.108z"/>
</svg>