<!-- Generator: Adobe Illustrator 22.1.0, SVG Export Plug-In  -->
<svg version="1.1"
	 xmlns="http://www.w3.org/2000/svg" xmlns:xlink="http://www.w3.org/1999/xlink" xmlns:a="http://ns.adobe.com/AdobeSVGViewerExtensions/3.0/"
	 x="0px" y="0px" width="99.036px" height="99.035px" viewBox="0 0 99.036 99.035"
	 style="enable-background:new 0 0 99.036 99.035;" xml:space="preserve">
<style type="text/css">
	.st0{fill:#262626;}
	.st1{fill-rule:evenodd;clip-rule:evenodd;fill:#262626;}
</style>
<defs>
</defs>
<path class="st0" d="M49.518,0C63.2,0,75.593,5.538,84.531,14.504c8.966,8.966,14.505,21.331,14.505,35.013
	c0,13.682-5.539,26.047-14.505,35.013C75.593,93.497,63.2,99.035,49.518,99.035c-13.654,0-26.047-5.538-35.013-14.504
	C5.538,75.565,0,63.199,0,49.518c0-13.682,5.538-26.047,14.505-35.013C23.471,5.538,35.864,0,49.518,0L49.518,0z M81.817,17.246
	C73.537,8.993,62.131,3.865,49.518,3.865c-12.585,0-24.018,5.128-32.271,13.381C8.993,25.499,3.866,36.905,3.866,49.518
	c0,12.613,5.127,24.019,13.381,32.299C25.5,90.07,36.933,95.169,49.518,95.169c12.613,0,24.019-5.1,32.299-13.353
	C90.07,73.536,95.17,62.13,95.17,49.518C95.17,36.905,90.07,25.499,81.817,17.246L81.817,17.246z"/>
<path class="st1" d="M36.85,49.518c0-6.992,5.676-12.695,12.667-12.695c7.02,0,12.695,5.703,12.695,12.695
	c0,7.018-5.675,12.695-12.695,12.695C42.526,62.212,36.85,56.536,36.85,49.518L36.85,49.518z M62.625,24.704H36.44
	c-6.443,0-11.735,5.264-11.735,11.735v26.185c0,6.442,5.292,11.734,11.735,11.734h26.185c6.471,0,11.735-5.292,11.735-11.734V36.439
	C74.359,29.968,69.095,24.704,62.625,24.704L62.625,24.704z M36.44,27.638h26.185c4.853,0,8.801,3.947,8.801,8.801v26.185
	c0,4.853-3.948,8.8-8.801,8.8H36.44c-4.854,0-8.802-3.948-8.802-8.8V36.439C27.638,31.585,31.586,27.638,36.44,27.638L36.44,27.638z
	 M65.229,31.339c-1.426,0-2.577,1.151-2.577,2.577c0,1.426,1.151,2.578,2.577,2.578c1.426,0,2.578-1.151,2.578-2.578
	C67.807,32.491,66.655,31.339,65.229,31.339L65.229,31.339z M65.53,49.518c0-8.829-7.156-16.012-16.012-16.012
	c-8.829,0-16.012,7.183-16.012,16.012c0,8.856,7.183,16.013,16.012,16.013C58.375,65.53,65.53,58.374,65.53,49.518L65.53,49.518z"/>
</svg>