<!-- Generator: Adobe Illustrator 22.1.0, SVG Export Plug-In  -->
<svg version="1.1"
	 xmlns="http://www.w3.org/2000/svg" xmlns:xlink="http://www.w3.org/1999/xlink" xmlns:a="http://ns.adobe.com/AdobeSVGViewerExtensions/3.0/"
	 x="0px" y="0px" width="31.675px" height="39.205px" viewBox="0 0 31.675 39.205"
	 style="overflow:inherit;enable-background:new 0 0 31.675 39.205;" xml:space="preserve">
<style type="text/css">
	.st0{fill:#BF9E4C;}
	.st1{fill:none;stroke:#FFFBE7;stroke-width:0.25;stroke-miterlimit:10;}
	.st2{fill:none;stroke:#000000;stroke-width:0.25;stroke-miterlimit:10;}
	.st3{fill:#6F521C;}
	.st4{fill:none;stroke:#C5A65A;stroke-width:0.25;stroke-miterlimit:10;}
	.st5{fill:none;stroke:#6F521C;stroke-width:0.25;stroke-miterlimit:10;}
	.st6{fill:#929926;}
	.st7{fill:none;stroke:#4E521D;stroke-width:0.25;stroke-miterlimit:10;}
	.st8{fill:#E3DAC6;}
</style>
<defs>
</defs>
<g>
	<polygon class="st0" points="23.377,0.879 23.377,12.085 15.947,12.085 15.947,0.879 7.691,0.879 7.691,37.325 31.635,37.325 
		31.635,0.879 	"/>
	<line class="st1" x1="7.788" y1="24.792" x2="31.537" y2="24.792"/>
	<line class="st1" x1="7.788" y1="16.393" x2="31.537" y2="16.393"/>
	<line class="st1" x1="7.788" y1="12.088" x2="31.537" y2="12.088"/>
	<line class="st1" x1="7.788" y1="10.793" x2="15.823" y2="10.793"/>
	<line class="st1" x1="23.541" y1="10.793" x2="31.575" y2="10.793"/>
	<line class="st1" x1="23.439" y1="2.018" x2="31.603" y2="2.018"/>
	<g>
		<line class="st1" x1="8.588" y1="10.823" x2="8.588" y2="12.159"/>
		<line class="st1" x1="9.392" y1="10.823" x2="9.392" y2="12.159"/>
		<line class="st1" x1="10.197" y1="10.823" x2="10.197" y2="12.159"/>
		<line class="st1" x1="11.001" y1="10.823" x2="11.001" y2="12.159"/>
		<line class="st1" x1="11.805" y1="10.823" x2="11.805" y2="12.159"/>
		<line class="st1" x1="12.61" y1="10.823" x2="12.61" y2="12.159"/>
		<line class="st1" x1="13.414" y1="10.823" x2="13.414" y2="12.159"/>
		<line class="st1" x1="14.219" y1="10.823" x2="14.219" y2="12.159"/>
		<line class="st1" x1="15.024" y1="10.823" x2="15.024" y2="12.159"/>
	</g>
	<g>
		<line class="st1" x1="24.3" y1="10.823" x2="24.3" y2="12.159"/>
		<line class="st1" x1="25.104" y1="10.823" x2="25.104" y2="12.159"/>
		<line class="st1" x1="25.91" y1="10.823" x2="25.91" y2="12.159"/>
		<line class="st1" x1="26.713" y1="10.823" x2="26.713" y2="12.159"/>
		<line class="st1" x1="27.518" y1="10.823" x2="27.518" y2="12.159"/>
		<line class="st1" x1="28.321" y1="10.823" x2="28.321" y2="12.159"/>
		<line class="st1" x1="29.126" y1="10.823" x2="29.126" y2="12.159"/>
		<line class="st1" x1="29.931" y1="10.823" x2="29.931" y2="12.159"/>
		<line class="st1" x1="30.735" y1="10.823" x2="30.735" y2="12.159"/>
	</g>
	<g>
		<line class="st1" x1="24.3" y1="0.861" x2="24.3" y2="2.006"/>
		<line class="st1" x1="25.104" y1="0.861" x2="25.104" y2="2.006"/>
		<line class="st1" x1="25.91" y1="0.861" x2="25.91" y2="2.006"/>
		<line class="st1" x1="26.713" y1="0.861" x2="26.713" y2="2.006"/>
		<line class="st1" x1="27.518" y1="0.861" x2="27.518" y2="2.006"/>
		<line class="st1" x1="28.321" y1="0.861" x2="28.321" y2="2.006"/>
		<line class="st1" x1="29.126" y1="0.861" x2="29.126" y2="2.006"/>
		<line class="st1" x1="29.931" y1="0.861" x2="29.931" y2="2.006"/>
		<line class="st1" x1="30.735" y1="0.861" x2="30.735" y2="2.006"/>
	</g>
	<g>
		<line class="st2" x1="24.3" y1="0.125" x2="24.3" y2="0.861"/>
		<line class="st2" x1="25.104" y1="0.125" x2="25.104" y2="0.861"/>
		<line class="st2" x1="25.91" y1="0.125" x2="25.91" y2="0.861"/>
		<line class="st2" x1="26.713" y1="0.125" x2="26.713" y2="0.861"/>
		<line class="st2" x1="27.518" y1="0.125" x2="27.518" y2="0.861"/>
		<line class="st2" x1="28.321" y1="0.125" x2="28.321" y2="0.861"/>
		<line class="st2" x1="29.126" y1="0.125" x2="29.126" y2="0.861"/>
		<line class="st2" x1="29.931" y1="0.125" x2="29.931" y2="0.861"/>
		<line class="st2" x1="30.735" y1="0.125" x2="30.735" y2="0.861"/>
		<line class="st2" x1="31.55" y1="0.125" x2="31.55" y2="0.861"/>
		<line class="st2" x1="23.485" y1="0.125" x2="23.485" y2="0.861"/>
		<line class="st2" x1="23.376" y1="0.125" x2="31.633" y2="0.125"/>
	</g>
	<g>
		<line class="st2" x1="8.616" y1="0.125" x2="8.616" y2="0.861"/>
		<line class="st2" x1="9.419" y1="0.125" x2="9.419" y2="0.861"/>
		<line class="st2" x1="10.225" y1="0.125" x2="10.225" y2="0.861"/>
		<line class="st2" x1="11.029" y1="0.125" x2="11.029" y2="0.861"/>
		<line class="st2" x1="11.833" y1="0.125" x2="11.833" y2="0.861"/>
		<line class="st2" x1="12.637" y1="0.125" x2="12.637" y2="0.861"/>
		<line class="st2" x1="13.442" y1="0.125" x2="13.442" y2="0.861"/>
		<line class="st2" x1="14.247" y1="0.125" x2="14.247" y2="0.861"/>
		<line class="st2" x1="15.05" y1="0.125" x2="15.05" y2="0.861"/>
		<line class="st2" x1="15.866" y1="0.125" x2="15.866" y2="0.861"/>
		<line class="st2" x1="7.801" y1="0.125" x2="7.801" y2="0.861"/>
		<line class="st2" x1="7.691" y1="0.125" x2="15.948" y2="0.125"/>
	</g>
	<line class="st1" x1="7.724" y1="2.018" x2="15.887" y2="2.018"/>
	<g>
		<line class="st1" x1="8.588" y1="0.861" x2="8.588" y2="2.006"/>
		<line class="st1" x1="9.392" y1="0.861" x2="9.392" y2="2.006"/>
		<line class="st1" x1="10.197" y1="0.861" x2="10.197" y2="2.006"/>
		<line class="st1" x1="11.001" y1="0.861" x2="11.001" y2="2.006"/>
		<line class="st1" x1="11.805" y1="0.861" x2="11.805" y2="2.006"/>
		<line class="st1" x1="12.61" y1="0.861" x2="12.61" y2="2.006"/>
		<line class="st1" x1="13.414" y1="0.861" x2="13.414" y2="2.006"/>
		<line class="st1" x1="14.219" y1="0.861" x2="14.219" y2="2.006"/>
		<line class="st1" x1="15.024" y1="0.861" x2="15.024" y2="2.006"/>
	</g>
	<line class="st1" x1="7.788" y1="27.035" x2="31.537" y2="27.035"/>
	<g>
		<rect x="8.712" y="25.352" class="st3" width="0.595" height="1.221"/>
		<rect x="10.262" y="25.352" class="st3" width="0.594" height="1.221"/>
		<rect x="11.813" y="25.352" class="st3" width="0.593" height="1.221"/>
		<rect x="13.362" y="25.352" class="st3" width="0.595" height="1.221"/>
		<rect x="14.912" y="25.352" class="st3" width="0.593" height="1.221"/>
		<rect x="16.463" y="25.352" class="st3" width="0.593" height="1.221"/>
		<rect x="18.012" y="25.352" class="st3" width="0.594" height="1.221"/>
		<rect x="19.562" y="25.352" class="st3" width="0.595" height="1.221"/>
		<rect x="21.112" y="25.352" class="st3" width="0.593" height="1.221"/>
		<rect x="22.661" y="25.352" class="st3" width="0.595" height="1.221"/>
		<rect x="24.212" y="25.352" class="st3" width="0.593" height="1.221"/>
		<rect x="25.761" y="25.352" class="st3" width="0.595" height="1.221"/>
		<rect x="27.312" y="25.352" class="st3" width="0.593" height="1.221"/>
		<rect x="28.862" y="25.352" class="st3" width="0.594" height="1.221"/>
		<rect x="30.411" y="25.352" class="st3" width="0.593" height="1.221"/>
	</g>
	<g>
		<path class="st3" d="M19.662,27.778c0,0-3.314,1.435-3.314,4.601v4.947h6.629v-4.947C22.977,29.262,19.662,27.778,19.662,27.778z"
			/>
		<path class="st4" d="M22.433,37.325v-4.597c0-2.896-2.771-4.276-2.771-4.276s-2.77,1.333-2.77,4.276v4.597"/>
		<path class="st4" d="M21.517,32.283c0-1.891-1.855-2.792-1.855-2.792s-1.854,0.87-1.854,2.792"/>
		<path class="st4" d="M20.689,32.236c0-1.189-1.026-1.755-1.026-1.755s-1.025,0.548-1.025,1.755"/>
		<g>
			<path d="M18.525,32.792c-0.354,0-0.643,0.288-0.643,0.643v3.89h1.287v-3.89C19.168,33.08,18.881,32.792,18.525,32.792z"/>
			<path d="M20.8,32.792c-0.356,0-0.643,0.288-0.643,0.643v3.89h1.286v-3.89C21.443,33.08,21.155,32.792,20.8,32.792z"/>
		</g>
	</g>
	<g>
		<path class="st3" d="M12.047,28.896c0,0-2.927,1.266-2.927,4.062v4.367h5.854v-4.367C14.974,30.206,12.047,28.896,12.047,28.896z"
			/>
		<path class="st4" d="M14.493,37.325v-4.06c0-2.558-2.446-3.775-2.446-3.775s-2.446,1.178-2.446,3.775v4.06"/>
		<path class="st4" d="M13.686,32.873c0-1.669-1.639-2.464-1.639-2.464s-1.638,0.768-1.638,2.464"/>
		<path class="st4" d="M12.953,32.832c0-1.05-0.906-1.549-0.906-1.549s-0.905,0.483-0.905,1.549"/>
		<g>
			<path d="M11.042,33.322c-0.314,0-0.568,0.254-0.568,0.569v3.434h1.136v-3.434C11.61,33.576,11.355,33.322,11.042,33.322z"/>
			<path d="M13.051,33.322c-0.313,0-0.566,0.254-0.566,0.569v3.434h1.135v-3.434C13.619,33.576,13.365,33.322,13.051,33.322z"/>
		</g>
	</g>
	<g>
		<path class="st3" d="M27.279,28.896c0,0-2.928,1.266-2.928,4.062v4.367h5.855v-4.367C30.206,30.206,27.279,28.896,27.279,28.896z"
			/>
		<path class="st4" d="M29.725,37.325v-4.06c0-2.558-2.446-3.775-2.446-3.775s-2.447,1.178-2.447,3.775v4.06"/>
		<path class="st4" d="M28.916,32.873c0-1.669-1.638-2.464-1.638-2.464s-1.638,0.768-1.638,2.464"/>
		<path class="st4" d="M28.183,32.832c0-1.05-0.905-1.549-0.905-1.549s-0.905,0.483-0.905,1.549"/>
		<g>
			<path d="M26.274,33.322c-0.313,0-0.567,0.254-0.567,0.569v3.434h1.135v-3.434C26.841,33.576,26.588,33.322,26.274,33.322z"/>
			<path d="M28.283,33.322c-0.314,0-0.568,0.254-0.568,0.569v3.434h1.135v-3.434C28.851,33.576,28.597,33.322,28.283,33.322z"/>
		</g>
	</g>
	<path d="M22.64,20.623c0,1.643-1.333,2.976-2.978,2.976c-1.644,0-2.977-1.333-2.977-2.976c0-1.646,1.333-2.979,2.977-2.979
		C21.306,17.644,22.64,18.977,22.64,20.623z"/>
	<path class="st4" d="M21.48,20.623c0,1.003-0.813,1.816-1.818,1.816c-1.004,0-1.818-0.813-1.818-1.816
		c0-1.005,0.813-1.819,1.818-1.819C20.667,18.804,21.48,19.617,21.48,20.623z"/>
	<path class="st4" d="M20.289,20.623c0,0.345-0.281,0.626-0.627,0.626c-0.345,0-0.626-0.281-0.626-0.626
		c0-0.347,0.281-0.628,0.626-0.628C20.008,19.995,20.289,20.276,20.289,20.623z"/>
	<line class="st1" x1="23.406" y1="12.085" x2="23.406" y2="24.696"/>
	<line class="st1" x1="15.948" y1="12.085" x2="15.948" y2="24.696"/>
	<g>
		<path class="st5" d="M30.064,24.601V20.98c0-2.281-2.535-3.368-2.535-3.368s-2.534,1.051-2.534,3.368v3.621"/>
		<g>
			<path d="M26.524,20.054c-0.313,0-0.567,0.253-0.567,0.569v4.042h1.135v-4.042C27.091,20.307,26.838,20.054,26.524,20.054z"/>
			<path d="M28.533,20.054c-0.313,0-0.568,0.253-0.568,0.569v4.042h1.136v-4.042C29.102,20.307,28.847,20.054,28.533,20.054z"/>
		</g>
	</g>
	<g>
		<path class="st5" d="M14.394,24.601V20.98c0-2.281-2.535-3.368-2.535-3.368s-2.535,1.051-2.535,3.368v3.621"/>
		<g>
			<path d="M10.853,20.054c-0.312,0-0.566,0.253-0.566,0.569v4.042h1.135v-4.042C11.422,20.307,11.169,20.054,10.853,20.054z"/>
			<path d="M12.864,20.054c-0.314,0-0.568,0.253-0.568,0.569v4.042h1.136v-4.042C13.432,20.307,13.177,20.054,12.864,20.054z"/>
		</g>
	</g>
	<g>
		<line class="st4" x1="19.662" y1="20.01" x2="19.662" y2="17.346"/>
		<line class="st4" x1="19.662" y1="23.896" x2="19.662" y2="21.232"/>
	</g>
	<g>
		<line class="st4" x1="19.358" y1="20.093" x2="18.026" y2="17.786"/>
		<line class="st4" x1="21.299" y1="23.458" x2="19.968" y2="21.15"/>
	</g>
	<g>
		<line class="st4" x1="19.133" y1="20.315" x2="16.826" y2="18.985"/>
		<line class="st4" x1="22.499" y1="22.258" x2="20.192" y2="20.926"/>
	</g>
	<g>
		<line class="st4" x1="19.05" y1="20.623" x2="16.388" y2="20.623"/>
		<line class="st4" x1="22.938" y1="20.623" x2="20.272" y2="20.622"/>
	</g>
	<g>
		<line class="st4" x1="19.133" y1="20.928" x2="16.826" y2="22.258"/>
		<line class="st4" x1="22.499" y1="18.985" x2="20.19" y2="20.315"/>
	</g>
	<g>
		<line class="st4" x1="19.358" y1="21.151" x2="18.026" y2="23.458"/>
		<line class="st4" x1="21.299" y1="17.786" x2="19.967" y2="20.094"/>
	</g>
	<path class="st5" d="M22.984,20.623c0,1.834-1.486,3.321-3.322,3.321c-1.835,0-3.321-1.486-3.321-3.321
		c0-1.837,1.486-3.323,3.321-3.323C21.498,17.3,22.984,18.786,22.984,20.623z"/>
	<g>
		<path d="M9.498,12.915c-0.188,0-0.339,0.153-0.339,0.342v2.423H9.84v-2.423C9.84,13.068,9.688,12.915,9.498,12.915z"/>
		<path d="M10.704,12.915c-0.188,0-0.341,0.153-0.341,0.342v2.423h0.681v-2.423C11.044,13.068,10.892,12.915,10.704,12.915z"/>
	</g>
	<g>
		<path d="M12.892,12.915c-0.188,0-0.341,0.153-0.341,0.342v2.423h0.681v-2.423C13.232,13.068,13.079,12.915,12.892,12.915z"/>
		<path d="M14.096,12.915c-0.188,0-0.34,0.153-0.34,0.342v2.423h0.682v-2.423C14.437,13.068,14.284,12.915,14.096,12.915z"/>
	</g>
	<g>
		<path d="M25.211,12.915c-0.188,0-0.34,0.153-0.34,0.342v2.423h0.68v-2.423C25.551,13.068,25.399,12.915,25.211,12.915z"/>
		<path d="M26.415,12.915c-0.189,0-0.34,0.153-0.34,0.342v2.423h0.681v-2.423C26.756,13.068,26.604,12.915,26.415,12.915z"/>
	</g>
	<g>
		<path d="M28.604,12.915c-0.188,0-0.34,0.153-0.34,0.342v2.423h0.681v-2.423C28.944,13.068,28.791,12.915,28.604,12.915z"/>
		<path d="M29.808,12.915c-0.188,0-0.34,0.153-0.34,0.342v2.423h0.681v-2.423C30.149,13.068,29.996,12.915,29.808,12.915z"/>
	</g>
	<g>
		<path d="M17.396,12.915c-0.188,0-0.34,0.153-0.34,0.342v2.423h0.68v-2.423C17.736,13.068,17.583,12.915,17.396,12.915z"/>
		<path d="M18.601,12.915c-0.188,0-0.34,0.153-0.34,0.342v2.423h0.681v-2.423C18.942,13.068,18.789,12.915,18.601,12.915z"/>
	</g>
	<g>
		<path d="M20.789,12.915c-0.188,0-0.34,0.153-0.34,0.342v2.423h0.68v-2.423C21.129,13.068,20.977,12.915,20.789,12.915z"/>
		<path d="M21.994,12.915c-0.188,0-0.341,0.153-0.341,0.342v2.423h0.681v-2.423C22.333,13.068,22.182,12.915,21.994,12.915z"/>
	</g>
	<g>
		<g>
			<path d="M26.554,3.861c-0.314,0-0.568,0.254-0.568,0.568v6.226h1.135V4.429C27.121,4.115,26.868,3.861,26.554,3.861z"/>
			<path d="M28.563,3.861c-0.312,0-0.567,0.254-0.567,0.568v6.226h1.136V4.429C29.132,4.115,28.877,3.861,28.563,3.861z"/>
		</g>
		<path class="st5" d="M30.022,10.655V4.847c0-2.281-2.493-2.303-2.493-2.303s-2.491-0.015-2.491,2.303v5.808"/>
	</g>
	<g>
		<g>
			<path d="M10.83,3.861c-0.314,0-0.567,0.254-0.567,0.568v6.226h1.135V4.429C11.398,4.115,11.143,3.861,10.83,3.861z"/>
			<path d="M12.839,3.861c-0.314,0-0.569,0.254-0.569,0.568v6.226h1.137V4.429C13.407,4.115,13.152,3.861,12.839,3.861z"/>
		</g>
		<path class="st5" d="M14.298,10.655V4.847c0-2.281-2.494-2.303-2.494-2.303S9.312,2.53,9.312,4.847v5.808"/>
	</g>
</g>
<g>
	<path class="st6" d="M3.105,36.487c-2.151-0.08-3.224-4.46-3.095-6.769c0.068-1.196,0.125-3.179,1.104-3.426
		c0.585-0.146,1.185,0.467,1.132,1.033c0.196-0.661,1.5-3.934,2.137-2.686c0.5,0.98,0.076,3.173,0.076,4.261
		c0.158-0.538,0.557-1.095,0.956-1.016c0.797,0.398-0.141,3.809-0.14,4.975c0.018-0.076,0.148-0.839,0.378-0.992
		c0.717-0.479,0.6,0.598,0.497,0.921C5.172,35.85,4.164,36.526,3.105,36.487z"/>
	<path d="M2.892,39.205c0.027-0.958,0.186-1.915,0.131-2.873c-0.034-0.593-0.195-1.178-0.256-1.769
		c-0.092-0.893,0.003-1.847-0.01-2.747c-0.009-0.527,0.051-1.054,0.1-1.58c0.041-0.435,0.206-1.927,0.169-2.365
		c0.361,0.9,0,3.267,0,4.369c0,1.3,0.148,2.577,0.315,3.844c0.128,0.963,0.022,2.051-0.045,3.028L2.892,39.205z"/>
	<path class="st2" d="M4.101,32.824c0.012-0.239,0.072-0.554,0.198-0.757"/>
	<g>
		<path class="st2" d="M2.786,31.389c-0.599-0.621-0.995-2.031-1.593-2.708"/>
		<path class="st2" d="M3.026,30.313c0.248-0.238,0.519-0.81,0.796-0.955"/>
		<path class="st2" d="M2.906,32.346c0.25-0.165,0.881-0.774,0.916-0.956"/>
		<path class="st2" d="M2.826,33.38c0.12-0.236-0.823-0.828-1.035-1.035c-0.315-0.308-0.542-0.812-0.916-1.036"/>
		<path class="st2" d="M3.066,33.859c0.23-0.314,0.557-0.599,0.834-0.886c0.194-0.2,0.789-0.568,0.798-0.788"/>
		<path class="st2" d="M3.185,35.252c0.316,0.102,1.217-0.804,1.552-0.996"/>
		<path class="st2" d="M2.826,34.655c-0.544-0.062-1.141-0.782-1.552-1.075"/>
		<path class="st2" d="M2.189,30.474c-0.507-0.138-0.619-0.197-1.035-0.358"/>
		<path class="st2" d="M1.95,29.797c-0.03-0.337,0.087-0.668,0.12-0.996"/>
	</g>
	<g>
		<path class="st7" d="M4.22,24.898c0.016,0.133,0.044,0.271,0.079,0.398"/>
		<path class="st7" d="M3.862,25.376c0.152,0.07,0.191,0.292,0.199,0.478"/>
		<path class="st7" d="M3.623,25.774c0.09,0.041,0.145,0.15,0.159,0.279"/>
		<path class="st7" d="M4.021,26.452c0.039,0.076,0.092,0.185,0.12,0.238"/>
		<path class="st7" d="M4.34,26.014c0.05,0.113,0.091,0.234,0.12,0.358"/>
		<path class="st7" d="M3.702,27.766c0.121,0.091,0.166,0.241,0.16,0.399"/>
		<path class="st7" d="M4.021,27.407c0.019,0.119,0.045,0.241,0.08,0.358"/>
		<path class="st7" d="M3.623,26.969c0.044,0.062,0.095,0.181,0.119,0.279"/>
		<path class="st7" d="M4.061,26.969c0.101,0.119,0.181,0.254,0.238,0.399"/>
		<path class="st7" d="M3.543,24.978c0.115,0.033,0.17,0.142,0.16,0.279"/>
		<path class="st7" d="M4.698,28.682c0.07,0.114,0.14,0.239,0.2,0.358"/>
		<path class="st7" d="M5.136,28.761c0.083,0.09,0.154,0.204,0.199,0.319"/>
		<path class="st7" d="M5.175,29.318c0.049,0.086,0.09,0.182,0.12,0.28"/>
		<path class="st7" d="M4.818,29.797c0.11,0.132,0.208,0.298,0.238,0.477"/>
		<path class="st7" d="M4.737,30.752c0.054,0.115,0.109,0.24,0.161,0.358"/>
		<path class="st7" d="M5.056,30.872c0.088,0.097,0.157,0.257,0.239,0.358"/>
		<path class="st7" d="M5.256,30.155c0.082,0.078,0.161,0.203,0.199,0.319"/>
		<path class="st7" d="M4.42,29.12c0.104,0.074,0.192,0.191,0.238,0.319"/>
		<path class="st7" d="M5.256,28.164c0.09,0.089,0.158,0.2,0.199,0.318"/>
		<path class="st7" d="M4.977,31.748c0.044,0.103,0.084,0.211,0.118,0.319"/>
		<path class="st7" d="M5.335,33.062c0.069,0.066,0.13,0.175,0.159,0.278"/>
		<path class="st7" d="M5.574,32.305c0.093,0.055,0.169,0.162,0.199,0.279"/>
		<path class="st7" d="M5.654,32.784c0.07,0.095,0.142,0.21,0.2,0.318"/>
		<path class="st7" d="M5.932,31.947c0.077,0.072,0.138,0.175,0.159,0.279"/>
		<path class="st7" d="M5.175,33.739c0.13,0.099,0.186,0.271,0.199,0.438"/>
		<path class="st7" d="M4.259,30.912c0.047,0.075,0.087,0.156,0.12,0.239"/>
		<path class="st7" d="M4.259,29.797c0.155,0.029,0.26,0.157,0.28,0.318"/>
		<path class="st7" d="M3.464,28.682c0.117,0.055,0.218,0.158,0.278,0.278"/>
		<path class="st7" d="M3.862,28.562c0.101,0.079,0.186,0.192,0.239,0.318"/>
		<path class="st7" d="M3.026,26.252c0.121,0.038,0.221,0.145,0.278,0.279"/>
		<path class="st7" d="M4.22,33.38c0.122,0.133,0.199,0.297,0.199,0.478"/>
		<path class="st7" d="M4.539,35.132c0.006,0.035,0.047,0.342,0.04,0.478"/>
		<path class="st7" d="M4.778,34.934c0.042,0.113,0.055,0.234,0.04,0.358"/>
		<path class="st7" d="M4.737,33.898c0.108,0.111,0.165,0.274,0.2,0.438"/>
		<path class="st7" d="M3.941,35.651c0.089,0.101,0.103,0.245,0.08,0.397"/>
		<path class="st7" d="M4.818,32.704c0.082,0.07,0.145,0.197,0.16,0.318"/>
		<path class="st7" d="M3.901,31.827c0.078,0.06,0.123,0.17,0.12,0.279"/>
		<path class="st7" d="M3.981,29.955c0.156,0.129,0.235,0.337,0.318,0.519"/>
		<path class="st7" d="M2.428,28.164c0.082,0.033,0.193,0.165,0.239,0.278"/>
		<path class="st7" d="M2.508,28.761C2.56,28.84,2.614,28.92,2.667,29"/>
		<path class="st7" d="M1.592,30.952c0.109,0.134,0.223,0.275,0.279,0.437"/>
		<path class="st7" d="M1.592,27.008c0.092,0.116,0.194,0.234,0.279,0.359"/>
		<path class="st7" d="M1.472,27.407c0.086-0.042,0.162,0.034,0.199,0.159"/>
	</g>
</g>
<path class="st8" d="M21.088,31.459c0.02,0.028,0.015,0.048-0.002,0.07c-0.049,0.004-0.062-0.002-0.088-0.038
	C21.03,31.478,21.032,31.425,21.088,31.459z"/>
<polygon class="st8" points="25.676,28.279 25.576,28.263 25.62,28.245 "/>
<path class="st8" d="M19.854,32.122c0.018,0.017,0.032,0.047,0.045,0.077c-0.013,0.035-0.077,0.038-0.112,0.034
	c-0.119-0.028-0.194-0.105-0.243-0.173l-0.019,0.008c-0.024,0.002,0.038-0.002,0.055-0.005c0.027-0.029-0.034-0.038-0.059-0.055
	C19.633,32.008,19.785,32.038,19.854,32.122z"/>
<path class="st8" d="M19.718,32.134l-0.017-0.032c-0.055,0.026,0.002-0.005-0.044-0.019C19.702,32.138,19.694,32.058,19.718,32.134z
	"/>
<path class="st8" d="M19.985,32.417c0.105-0.013,0.248,0.053,0.318,0.125c0.022,0.039,0.053,0.099-0.023,0.101
	c-0.094-0.01-0.21-0.029-0.285-0.091c0.007-0.062-0.086-0.083-0.13-0.126C19.896,32.403,19.997,32.498,19.985,32.417z"/>
<polygon class="st8" points="20.098,32.467 20.103,32.485 20.091,32.479 "/>
<path class="st8" d="M29.129,22.521c0.02-0.005,0.025,0.007,0.036,0.021c-0.006,0.021-0.043,0.055-0.069,0.029
	C29.101,22.55,29.097,22.527,29.129,22.521z"/>
<path class="st8" d="M22.441,27.642c0.041-0.004,0.09-0.026,0.128-0.01c0.019,0.06-0.093,0.093-0.146,0.122h-0.12
	C22.328,27.713,22.378,27.672,22.441,27.642z"/>
<path class="st8" d="M22.618,27.214c0.018-0.003,0.039,0.005,0.052-0.003l0.019,0.018c-0.062,0.083-0.177,0.073-0.265,0.11
	C22.457,27.301,22.53,27.223,22.618,27.214z"/>
<path class="st8" d="M23.851,33.459c-0.006-0.013-0.023,0.047-0.056,0.024L23.851,33.459z"/>
<path class="st8" d="M23.794,33.225l-0.003,0.011L23.794,33.225l-0.045,0.013C23.765,33.233,23.772,33.216,23.794,33.225z"/>
<path class="st8" d="M16.034,27.444c0.014-0.002,0.022,0.005,0.03,0.016l-0.042,0.001C16.035,27.459,16.034,27.45,16.034,27.444z"/>
<path class="st8" d="M20.74,22.085c0.064-0.009,0.145-0.038,0.166,0.025c0.015,0.13-0.188,0.153-0.273,0.192l-0.02,0.013
	c0.008-0.023-0.039-0.023-0.034-0.052c-0.075,0.075-0.101-0.046-0.176,0.02C20.49,22.185,20.597,22.121,20.74,22.085z"/>
<path class="st8" d="M22.481,21.919c0.13,0.1-0.099,0.142-0.161,0.179l-0.174,0.007C22.207,22.006,22.321,21.905,22.481,21.919z"/>
<polygon class="st8" points="22.392,21.971 22.398,22.034 22.306,22.008 22.39,22.026 "/>
<polygon class="st8" points="28.021,21.998 27.962,21.998 27.99,21.967 "/>
<path class="st8" d="M13.179,22.815c-0.007,0.017,0.012,0.039-0.002,0.06c-0.026,0.022-0.072,0.053-0.137,0.014l-0.114-0.128
	c0.006-0.013,0.021-0.005,0.034-0.007l-0.008-0.073C13.067,22.65,13.124,22.751,13.179,22.815z"/>
<path class="st8" d="M14.476,17.225c0.065,0.012,0.174,0.044,0.185,0.119c0.015,0.036,0.026,0.104-0.005,0.147
	c-0.139,0.048-0.201-0.083-0.297-0.122l0.017,0.002c0.047-0.038-0.008-0.081-0.011-0.119C14.408,17.255,14.457,17.242,14.476,17.225
	z"/>
<path class="st8" d="M12.741,20.738c-0.014,0.001-0.011,0.014-0.019,0.022l-0.054-0.015c-0.001,0.019,0.054-0.018,0.044-0.059
	C12.699,20.708,12.733,20.721,12.741,20.738z"/>
<path class="st8" d="M30.82,32.205c0.059,0.034,0.171,0.016,0.205,0.08c-0.002,0.032-0.053,0.041-0.081,0.03
	c-0.068-0.017-0.083-0.07-0.132-0.102L30.82,32.205z"/>
<path class="st8" d="M30.775,31.236c-0.014,0.011-0.006,0.024-0.006,0.038l0.006-0.008l0.013,0.006l-0.004,0.007
	c-0.007-0.005-0.013-0.003-0.018-0.002c0.006,0.026,0.026,0.042,0.052,0.024c-0.062-0.037,0.027-0.053,0.001-0.082
	c0.047,0.009,0.145,0.032,0.13,0.099c-0.016,0.021-0.052,0.028-0.076,0.029c-0.027-0.018-0.078-0.023-0.112-0.031
	c0.007,0.002,0.013,0.008,0.022,0.004l0.003-0.009l-0.047-0.026c0.013-0.004,0.005-0.027,0.029-0.027l-0.031-0.027
	C30.751,31.23,30.762,31.245,30.775,31.236z"/>
<path class="st8" d="M30.497,38.015c0.039,0.054-0.05,0.072-0.084,0.074c-0.117,0.004-0.147-0.121-0.252-0.107
	C30.268,37.974,30.409,37.945,30.497,38.015z"/>
<path class="st8" d="M30.82,31.268c0.014,0.006-0.022,0.007-0.018,0.001l0.005-0.007L30.82,31.268z"/>
<path class="st8" d="M30.862,31.257c-0.005,0.012,0.005,0.029,0.006,0.041l-0.02,0.008c0.009,0.008,0,0.014-0.004,0.021
	l-0.012-0.037C30.849,31.278,30.871,31.283,30.862,31.257l-0.024,0.011C30.84,31.259,30.851,31.262,30.862,31.257z"/>
<path class="st8" d="M13.998,17.475c-0.002,0.014,0.006,0.033,0.01,0.049l-0.024,0.009c0.008,0.007,0,0.015-0.004,0.024
	l-0.016-0.044C13.984,17.499,14.01,17.505,13.998,17.475L13.97,17.49C13.974,17.478,13.99,17.48,13.998,17.475z"/>
<path class="st8" d="M21.154,23.064c0.019,0.02,0.049,0.033,0.051,0.062c-0.04,0.02-0.028,0.065-0.094,0.062
	C21.011,23.15,21.057,23.051,21.154,23.064z"/>
<path class="st8" d="M21.831,23.169c0.023,0.023-0.01,0.041-0.022,0.06c-0.022,0.015-0.049-0.014-0.079-0.02
	C21.712,23.166,21.789,23.127,21.831,23.169z"/>
<path class="st8" d="M22.231,22.685c0.025,0.03,0.012,0.069-0.025,0.077c-0.027-0.017-0.072-0.018-0.058-0.052
	C22.152,22.664,22.201,22.696,22.231,22.685z"/>
<path class="st8" d="M21.988,23.146c0.024,0.05,0.187,0.055,0.088,0.127c-0.041-0.042-0.151-0.012-0.166-0.087
	C21.933,23.177,21.95,23.148,21.988,23.146z"/>
<path class="st8" d="M24.822,19.74c0.066,0.032,0.158,0.057,0.152,0.129c-0.014,0.078-0.09,0.033-0.132,0.05
	c-0.064-0.012-0.096-0.058-0.145-0.084c0.015-0.015,0.035-0.028,0.006-0.041C24.763,19.761,24.735,19.748,24.822,19.74z"/>
<path class="st8" d="M24.424,31.469c0.025,0.005,0.053,0.024,0.06,0.05c-0.035,0.009-0.051,0.047-0.094,0.029
	C24.33,31.522,24.382,31.475,24.424,31.469z"/>
<path class="st8" d="M15.272,27.708l0.036-0.01c-0.002-0.024-0.035-0.02-0.05-0.034c0.093-0.038,0.176,0.002,0.288,0.013
	c0.042,0.05,0.109,0.096,0.084,0.167c-0.021,0.065-0.096,0.042-0.149,0.058c-0.082-0.003-0.103-0.104-0.197-0.094l0.019-0.007
	l-0.078-0.129C15.24,27.684,15.275,27.683,15.272,27.708z"/>
<path class="st8" d="M28.445,22.328c0.064,0.034,0.157,0.056,0.149,0.128c-0.011,0.078-0.086,0.036-0.131,0.05
	c-0.064-0.012-0.096-0.056-0.147-0.084c0.016-0.015,0.037-0.027,0.009-0.04C28.386,22.348,28.359,22.334,28.445,22.328z"/>
<path class="st8" d="M30.996,23.076c0.094,0.002,0.165,0.03,0.216,0.092c-0.009,0.023,0.017,0.062-0.027,0.064
	c-0.102,0.04-0.175-0.052-0.236-0.1C30.996,23.143,30.97,23.088,30.996,23.076z"/>
<path class="st8" d="M23.332,27.443c0.027,0.006,0.055,0.025,0.061,0.052c-0.036,0.008-0.053,0.047-0.094,0.028
	C23.239,27.498,23.29,27.449,23.332,27.443z"/>
<path class="st8" d="M23.924,26.73c0.035,0.041,0.11,0.094,0.057,0.142c-0.034,0.057-0.089,0.073-0.168,0.041
	c-0.088-0.002-0.042-0.078-0.079-0.105C23.765,26.741,23.845,26.745,23.924,26.73z"/>
<path class="st8" d="M23.529,27.315c0.019,0.011,0.041,0.012,0.043,0.03c-0.015,0.025-0.031,0.041-0.064,0.044
	C23.466,27.372,23.476,27.308,23.529,27.315z"/>
<path class="st8" d="M22.976,28.929c0.02,0.018,0.048,0.032,0.054,0.062c-0.043,0.021-0.032,0.063-0.099,0.06
	C22.832,29.015,22.878,28.917,22.976,28.929z"/>
<path class="st8" d="M23.997,27.779c0.057,0.006,0.018,0.048,0.026,0.07c-0.029,0.024-0.083,0-0.084-0.037
	C23.947,27.788,23.972,27.787,23.997,27.779z"/>
<path class="st8" d="M23.653,29.034c0.024,0.022-0.011,0.041-0.021,0.06c-0.024,0.013-0.05-0.015-0.08-0.021
	C23.535,29.029,23.611,28.992,23.653,29.034z"/>
<path class="st8" d="M24.051,28.551c0.029,0.027,0.012,0.068-0.023,0.076C24,28.61,23.956,28.609,23.97,28.573
	C23.974,28.528,24.023,28.56,24.051,28.551z"/>
<path class="st8" d="M23.811,29.012c0.02,0.05,0.185,0.055,0.088,0.125c-0.043-0.04-0.151-0.01-0.165-0.086
	C23.755,29.041,23.772,29.012,23.811,29.012z"/>
<polygon class="st8" points="22.478,26.353 22.487,26.343 22.533,26.362 22.524,26.374 "/>
<path class="st8" d="M23.067,26.746l-0.029,0.043c-0.115-0.005-0.171-0.096-0.191-0.174C22.904,26.65,23.042,26.664,23.067,26.746z"
	/>
<path class="st8" d="M29.195,21.747c-0.05,0.132-0.209-0.019-0.281-0.049l-0.091-0.123C28.96,21.583,29.131,21.626,29.195,21.747z"
	/>
<polygon class="st8" points="29.092,21.704 29.022,21.732 29.006,21.655 29.028,21.723 "/>
<path class="st8" d="M23.169,18.123c0.065,0.032,0.158,0.056,0.151,0.128c-0.014,0.079-0.089,0.035-0.133,0.05
	c-0.063-0.012-0.094-0.056-0.144-0.085c0.013-0.014,0.035-0.029,0.007-0.04C23.112,18.142,23.082,18.13,23.169,18.123z"/>
<path class="st8" d="M13.943,22.609l0.019-0.003l-0.004,0.009l0.032,0.013l-0.023,0.017l-0.037-0.054
	C13.931,22.599,13.929,22.607,13.943,22.609z"/>
<path class="st8" d="M14.23,22.719c-0.02,0.043-0.086,0.019-0.106,0.022l-0.121-0.069l0.053-0.016
	c-0.057,0.048,0.032,0.065,0.042,0.076c0.018-0.016,0.054-0.017,0.057-0.043c0.001-0.077-0.097-0.058-0.128-0.072l0.014-0.004
	l-0.07-0.048C14.074,22.587,14.225,22.602,14.23,22.719z"/>
<path class="st8" d="M26.723,19.967c0.015,0,0.02,0.015,0.023,0.021l-0.019,0.034l-0.031-0.036
	C26.709,19.977,26.721,19.979,26.723,19.967z"/>
<polygon class="st8" points="24.133,22.327 24.136,22.346 24.123,22.342 "/>
<path class="st8" d="M23.47,36.53c0.002,0.011,0.019,0.019,0.021,0.033c-0.006,0.017-0.017,0.042-0.064,0.037l-0.099-0.042
	c-0.002-0.007,0.008-0.007,0.014-0.011l-0.031-0.039C23.359,36.469,23.422,36.511,23.47,36.53z"/>
<path class="st8" d="M25.747,33.149c-0.018,0.042-0.087,0.019-0.106,0.02l-0.12-0.065l0.053-0.018
	c-0.058,0.047,0.034,0.064,0.044,0.073c0.016-0.017,0.05-0.016,0.055-0.042c0-0.078-0.097-0.057-0.129-0.071l0.016-0.005
	l-0.074-0.046C25.591,33.016,25.742,33.032,25.747,33.149z"/>
<path class="st8" d="M30.9,19.175c-0.012,0.006-0.002,0.016-0.002,0.027l-0.056,0.006c0.011,0.016,0.035-0.037,0.002-0.068
	C30.846,19.163,30.883,19.162,30.9,19.175z"/>
<path class="st8" d="M10.597,26.732l0.012,0.005l-0.021,0.033C10.563,26.763,10.56,26.729,10.597,26.732z"/>
<path class="st8" d="M10.665,26.792c0.056-0.016,0,0-0.016,0.002l0.009,0.034l0.08-0.007l-0.003-0.019l0.003,0.019
	c0.031,0,0.026-0.03,0.041-0.043c-0.026-0.034-0.087-0.022-0.136-0.015l-0.005-0.014c0.082-0.012,0.148,0.032,0.226,0.077
	c0.015,0.024,0.007,0.052-0.003,0.07c-0.11,0.016-0.186-0.043-0.247-0.107L10.665,26.792z"/>
<polygon class="st8" points="10.726,26.87 10.72,26.854 10.763,26.845 "/>
<path class="st8" d="M11.172,28.175c0.113,0.036,0.234,0.028,0.25,0.146c-0.019,0.058-0.119,0.059-0.172,0.05l-0.146-0.061
	l0.018-0.004l-0.024-0.07l0.015-0.004l-0.026-0.042C11.128,28.21,11.194,28.203,11.172,28.175z"/>
<path class="st8" d="M11.304,28.255c-0.005-0.026-0.05-0.028-0.065-0.041c0.02-0.009,0.046-0.003,0.068,0
	c0.038,0.04-0.026,0.071-0.037,0.098c-0.053,0.01-0.105-0.05-0.14-0.042C11.232,28.291,11.194,28.203,11.304,28.255z"/>
<path class="st8" d="M26.397,19.919c0.057-0.007-0.003-0.056,0.022-0.056c0.024-0.001,0.027,0.034,0.03,0.039l0.005,0.021
	c-0.046,0.017-0.118-0.014-0.127-0.056C26.35,19.877,26.35,19.916,26.397,19.919z"/>
<path class="st8" d="M15.346,27.292c-0.023,0.019-0.007,0.041-0.008,0.064l0.007-0.015l0.024,0.011l-0.01,0.014
	c-0.011-0.01-0.021-0.005-0.028-0.002c0.008,0.042,0.046,0.07,0.09,0.038c-0.106-0.061,0.046-0.09,0.003-0.143
	c0.077,0.017,0.25,0.057,0.223,0.171c-0.027,0.034-0.086,0.047-0.13,0.05c-0.049-0.032-0.133-0.039-0.194-0.054
	c0.01,0.003,0.021,0.015,0.038,0.005l0.007-0.014l-0.085-0.045c0.023-0.008,0.011-0.045,0.054-0.045l-0.054-0.049
	C15.303,27.28,15.326,27.307,15.346,27.292z"/>
<path class="st8" d="M15.424,27.348c0.024,0.011-0.037,0.012-0.031,0.003l0.007-0.013L15.424,27.348z"/>
<path class="st8" d="M15.495,27.328c-0.005,0.02,0.005,0.048,0.012,0.071l-0.033,0.014c0.013,0.011-0.001,0.021-0.009,0.036
	l-0.021-0.065C15.474,27.364,15.509,27.374,15.495,27.328l-0.041,0.021C15.46,27.33,15.481,27.334,15.495,27.328z"/>
<path class="st8" d="M23.384,37.143c0.055,0.028,0.114,0.076,0.11,0.125c-0.024,0.05-0.076,0.056-0.125,0.038
	c-0.071-0.028-0.155-0.06-0.17-0.119C23.23,37.104,23.314,37.152,23.384,37.143z"/>
<path class="st8" d="M25.402,30.022c0.021,0.028,0.016,0.049-0.004,0.07c-0.048,0.003-0.061-0.003-0.083-0.037
	C25.346,30.041,25.349,29.987,25.402,30.022z"/>
<path class="st8" d="M29.614,32.425c0.021,0.05,0.186,0.055,0.089,0.127c-0.042-0.041-0.151-0.012-0.166-0.089
	C29.557,32.455,29.576,32.425,29.614,32.425z"/>
<path class="st8" d="M24.892,34.66c0.018,0.019,0.031,0.048,0.043,0.078c-0.012,0.035-0.076,0.036-0.111,0.036
	c-0.119-0.03-0.193-0.106-0.242-0.173l-0.019,0.006c-0.025,0.003,0.036,0,0.055-0.005c0.025-0.031-0.037-0.039-0.059-0.054
	C24.672,34.55,24.821,34.577,24.892,34.66z"/>
<polygon class="st8" points="25.136,35.005 25.14,35.024 25.127,35.02 "/>
<path class="st8" d="M22.826,34.539L22.8,34.581c-0.117-0.004-0.173-0.096-0.192-0.174C22.664,34.44,22.803,34.457,22.826,34.539z"
	/>
<path class="st8" d="M11.283,28.292c-0.015,0-0.032-0.001-0.03,0.011l-0.008,0.014l-0.031-0.014l0.009-0.012l0.017,0.006
	l-0.009-0.044L11.283,28.292z"/>
<path class="st8" d="M10.193,30.835c0.018,0.021-0.018,0.041-0.023,0.062c-0.068,0.025-0.127-0.014-0.193-0.042
	c0.046-0.004,0.056,0.03,0.11,0.005l-0.002-0.059c-0.031,0.011-0.073,0.011-0.08-0.017C10.066,30.782,10.15,30.781,10.193,30.835z"
	/>
<path class="st8" d="M11.967,28.059l0.005,0.044l-0.093,0.003c0.016-0.001,0.03-0.001,0.032-0.012L11.9,28.073l-0.083,0.022
	c0.003-0.028-0.035-0.026-0.05-0.04l0.041,0.018l0.01-0.018l0.013,0.017l0.059-0.034l-0.144-0.061
	C11.82,28.004,11.912,28,11.967,28.059z"/>
<path class="st8" d="M14.4,17.565c0.014-0.035,0.021-0.021,0.054-0.06c0.053,0.008,0.148,0.028,0.166,0.083
	c0.008,0.05-0.017,0.088-0.068,0.113c-0.073,0.01-0.05-0.006-0.122-0.012c-0.025-0.046-0.084-0.083-0.048-0.131L14.4,17.565z"/>
<path class="st8" d="M14.856,17.558c-0.006,0.026-0.03,0.029-0.057,0.035c-0.021-0.014-0.048-0.043-0.012-0.065L14.856,17.558z"/>
<path class="st8" d="M24.388,31.495l-0.012-0.01c0.011,0.006,0.016,0.004,0.028,0c0-0.001,0.001-0.004,0.001-0.008
	c0.006,0.006,0.012,0.004,0.021,0.004l-0.002-0.012c0.028,0.02,0.083,0.028,0.085,0.072l-0.024,0.034l-0.003-0.002
	c-0.017,0.013-0.035,0.005-0.05,0.013l-0.001,0.005l-0.01-0.015c-0.008,0.003-0.002-0.004-0.008-0.008l-0.028-0.001
	c0-0.005,0.006-0.004,0.009-0.004c0-0.01-0.011-0.008-0.018-0.008c0.008-0.006,0.001-0.018-0.005-0.038
	c-0.001,0.001-0.005,0-0.01-0.004c0.007,0.005,0.012,0,0.016,0l0.001-0.002l-0.018-0.013C24.367,31.493,24.384,31.51,24.388,31.495z
	"/>
<path class="st8" d="M24.616,31.181c0.011-0.002,0.012-0.004,0.011-0.012l-0.003-0.005c-0.003-0.001,0.011,0.002,0.012,0.008
	c0.008,0,0.009-0.014,0.021-0.002c0.013-0.003,0.001-0.015,0.002-0.02c0.015,0.005,0.007,0.018,0.024,0.021
	c0.025-0.017,0.033,0.022,0.054,0.019c0.001,0.003,0.015,0.009,0.012,0.017c0.004,0.002,0.005-0.001,0.008-0.001
	c0.013,0.011,0.005,0.034,0.017,0.037c0.005,0.01,0.001,0.015,0.006,0.022c0,0.001-0.006,0.007-0.001,0.016
	c-0.022-0.001,0.013,0.024-0.012,0.018c-0.006,0.005,0.004,0.014,0.006,0.017c-0.006-0.003-0.013-0.01-0.02-0.01
	c0.014,0.026-0.026,0.007-0.026,0.031c-0.003-0.008-0.012-0.008-0.016-0.002l-0.001,0.005c-0.008-0.017-0.025-0.002-0.034-0.006
	c-0.01-0.002-0.02-0.03-0.044-0.019c-0.012-0.001,0.001-0.033-0.024-0.027l-0.013,0.001c-0.002-0.011,0.021-0.002,0.012-0.017
	c-0.009-0.008-0.011,0.003-0.02,0.002c0.003-0.002,0.032-0.012,0.009-0.026l-0.02-0.005c0.005-0.004,0.014-0.007,0.02-0.013
	c0.001-0.014-0.022-0.006-0.015-0.013c0.005,0,0.016,0.002,0.017-0.005l-0.016-0.02C24.601,31.199,24.602,31.177,24.616,31.181z"/>
<path class="st8" d="M23.606,35.253c-0.01,0.025,0.018,0.054-0.012,0.078c-0.057,0.034-0.111-0.029-0.113-0.06
	C23.554,35.261,23.524,35.212,23.606,35.253z"/>
<path class="st8" d="M22.025,35.656c0.034,0.002,0.036,0.025,0.045,0.048c0.001,0.048-0.077,0.042-0.117,0.045
	c-0.061-0.039,0.013-0.021-0.035-0.069C21.95,35.653,21.984,35.646,22.025,35.656z"/>
<path class="st8" d="M20.599,36.6c0.029,0.031,0.077,0.034,0.079,0.082c-0.029,0.011-0.055,0.053-0.101,0.039l-0.041-0.017
	c-0.015-0.037,0.105-0.003,0.038-0.067l-0.048,0.021C20.548,36.632,20.554,36.6,20.599,36.6z"/>
<path class="st8" d="M11.302,19.994c0.022,0.027,0.016,0.048-0.003,0.068c-0.049,0.005-0.06-0.002-0.085-0.035
	C11.246,20.012,11.249,19.959,11.302,19.994z"/>
<path class="st8" d="M15.987,16.995c-0.014-0.03,0-0.048,0.025-0.065c0.048,0.006,0.058,0.014,0.072,0.051
	C16.048,16.989,16.031,17.039,15.987,16.995z"/>
<polygon class="st8" points="20.374,32.976 20.39,33.021 20.347,33.004 "/>
<path class="st8" d="M25.413,35.795c0.058,0.006,0.016,0.047,0.026,0.07c-0.028,0.022-0.083-0.001-0.085-0.038
	C25.364,35.804,25.388,35.802,25.413,35.795z"/>
<path class="st8" d="M25.468,36.564c0.028,0.028,0.011,0.069-0.023,0.079c-0.03-0.018-0.072-0.018-0.061-0.054
	C25.39,36.543,25.438,36.575,25.468,36.564z"/>
<path class="st8" d="M25.226,37.027c0.023,0.05,0.185,0.055,0.09,0.125c-0.044-0.041-0.153-0.009-0.167-0.087
	C25.17,37.054,25.187,37.027,25.226,37.027z"/>
<path class="st8" d="M24.047,36.56c0.076,0.015,0.104,0.066,0.129,0.121c-0.024,0.051-0.073,0.111-0.134,0.076
	C23.993,36.72,23.918,36.571,24.047,36.56z"/>
<path class="st8" d="M14.906,21.03c0.019,0.021,0.049,0.033,0.052,0.064c-0.042,0.018-0.032,0.063-0.097,0.06
	C14.763,21.117,14.808,21.018,14.906,21.03z"/>
<path class="st8" d="M13.711,23.539c0.023,0.023-0.011,0.042-0.024,0.061c-0.022,0.013-0.049-0.017-0.079-0.021
	C13.59,23.537,13.669,23.498,13.711,23.539z"/>
<path class="st8" d="M14.11,23.056c0.026,0.028,0.012,0.068-0.025,0.078c-0.028-0.02-0.071-0.02-0.059-0.054
	C14.03,23.033,14.08,23.067,14.11,23.056z"/>
<path class="st8" d="M13.868,23.519c0.023,0.049,0.184,0.052,0.086,0.125c-0.042-0.042-0.15-0.01-0.164-0.087
	C13.809,23.547,13.828,23.519,13.868,23.519z"/>
<path class="st8" d="M15.676,15.786c0.023,0.022-0.011,0.043-0.022,0.061c-0.022,0.014-0.05-0.016-0.079-0.021
	C15.557,15.782,15.634,15.745,15.676,15.786z"/>
<path class="st8" d="M15.835,15.764c0.023,0.05,0.184,0.055,0.086,0.126c-0.042-0.041-0.148-0.011-0.164-0.087
	C15.778,15.793,15.794,15.763,15.835,15.764z"/>
<path class="st8" d="M23.544,19.016c0.053,0.029,0.114,0.076,0.108,0.124c-0.024,0.05-0.076,0.056-0.124,0.041
	c-0.072-0.031-0.156-0.062-0.171-0.122C23.389,18.979,23.472,19.024,23.544,19.016z"/>
<path class="st8" d="M28.853,21.183c0.01,0.007,0.004,0.018-0.002,0.027l-0.024-0.029C28.839,21.188,28.848,21.184,28.853,21.183z"
	/>
<path class="st8" d="M25.182,31.124c0.029,0.007,0.056,0.024,0.062,0.051c-0.036,0.008-0.053,0.048-0.095,0.03
	C25.089,31.179,25.141,31.131,25.182,31.124z"/>
<path class="st8" d="M25.381,30.998c0.018,0.007,0.04,0.011,0.042,0.028c-0.015,0.025-0.033,0.042-0.064,0.046
	C25.316,31.051,25.326,30.986,25.381,30.998z"/>
<path class="st8" d="M25.549,36.585c0.02,0.019,0.049,0.032,0.053,0.062c-0.041,0.02-0.03,0.064-0.095,0.06
	C25.407,36.672,25.451,36.573,25.549,36.585z"/>
<polygon class="st8" points="29.412,21.911 29.421,21.899 29.469,21.919 29.46,21.93 "/>
<path class="st8" d="M30.001,22.302l-0.027,0.045c-0.115-0.006-0.173-0.096-0.191-0.175C29.839,22.206,29.977,22.221,30.001,22.302z
	"/>
<path class="st8" d="M29.564,22.519c0.005,0.021,0.035,0.033,0.035,0.056c-0.009,0.031-0.028,0.075-0.107,0.066l-0.175-0.073
	c0-0.013,0.015-0.011,0.028-0.019l-0.054-0.064C29.37,22.416,29.48,22.484,29.564,22.519z"/>
<path class="st8" d="M29.734,22.004c0.021,0.018,0.051,0.032,0.055,0.062c-0.042,0.019-0.032,0.064-0.096,0.06
	C29.592,22.089,29.638,21.992,29.734,22.004z"/>
<path class="st8" d="M22.538,26.87c0.055,0.005,0.015,0.047,0.024,0.069c-0.029,0.022-0.083-0.002-0.083-0.035
	C22.487,26.877,22.511,26.875,22.538,26.87z"/>
<path class="st8" d="M30.412,22.108c0.024,0.022-0.009,0.043-0.022,0.061c-0.023,0.014-0.05-0.016-0.078-0.021
	C30.292,22.104,30.37,22.067,30.412,22.108z"/>
<path class="st8" d="M30.81,21.625c0.03,0.031,0.013,0.069-0.023,0.079c-0.028-0.018-0.072-0.019-0.058-0.055
	C30.733,21.604,30.781,21.636,30.81,21.625z"/>
<path class="st8" d="M30.569,22.086c0.023,0.05,0.186,0.056,0.091,0.128c-0.044-0.042-0.152-0.012-0.168-0.089
	C30.512,22.117,30.529,22.088,30.569,22.086z"/>
<path class="st8" d="M25.174,19.971l-0.05,0.027c-0.101-0.049-0.101-0.147-0.071-0.222C25.085,19.827,25.201,19.894,25.174,19.971z"
	/>
<polygon class="st8" points="14.39,37.791 14.321,37.762 14.327,37.752 "/>
<path class="st8" d="M29.33,21.523c0.016,0.058,0.113,0.11,0.032,0.18c-0.088,0.058-0.108-0.04-0.181-0.047
	c-0.038-0.027,0.007-0.066-0.044-0.091l0.016,0.003C29.181,21.547,29.278,21.449,29.33,21.523z"/>
<path class="st8" d="M11,21.026c0.054,0.026,0.114,0.075,0.109,0.122c-0.023,0.049-0.075,0.056-0.123,0.041
	c-0.071-0.032-0.155-0.059-0.171-0.122C10.846,20.986,10.93,21.034,11,21.026z"/>
<path class="st8" d="M12.746,20.579c0.095,0,0.167,0.03,0.219,0.091c-0.009,0.022,0.017,0.061-0.029,0.065
	c-0.1,0.039-0.175-0.052-0.234-0.1C12.748,20.644,12.722,20.59,12.746,20.579z"/>
<polygon class="st8" points="12.823,20.649 12.753,20.619 12.759,20.609 "/>
<path class="st8" d="M18.229,15.885c0.055,0.009,0.014,0.048,0.024,0.07c-0.029,0.023-0.082,0-0.084-0.034
	C18.177,15.894,18.199,15.893,18.229,15.885z"/>
<path class="st8" d="M16.775,15.56c0.023,0.049,0.186,0.055,0.088,0.126c-0.043-0.042-0.151-0.011-0.167-0.087
	C16.72,15.589,16.736,15.561,16.775,15.56z"/>
<path class="st8" d="M18.576,15.802l-0.025,0.042c-0.116-0.004-0.173-0.095-0.193-0.171C18.415,15.708,18.554,15.721,18.576,15.802z
	"/>
<path class="st8" d="M18.573,32.5l0.074,0.001L18.573,32.5z"/>
</svg>