<!-- Generator: Adobe Illustrator 22.1.0, SVG Export Plug-In  -->
<svg version="1.1"
	 xmlns="http://www.w3.org/2000/svg" xmlns:xlink="http://www.w3.org/1999/xlink" xmlns:a="http://ns.adobe.com/AdobeSVGViewerExtensions/3.0/"
	 x="0px" y="0px" width="99.036px" height="99.035px" viewBox="0 0 99.036 99.035"
	 style="enable-background:new 0 0 99.036 99.035;" xml:space="preserve">
<style type="text/css">
	.st0{fill:#262626;}
	.st1{fill-rule:evenodd;clip-rule:evenodd;fill:#262626;}
</style>
<defs>
</defs>
<path class="st0" d="M49.518,0c13.682,0,26.048,5.538,35.014,14.504c8.966,8.966,14.504,21.331,14.504,35.013
	c0,13.682-5.539,26.047-14.504,35.013c-8.966,8.966-21.332,14.504-35.014,14.504c-13.682,0-26.047-5.538-35.013-14.504
	C5.539,75.565,0,63.199,0,49.518c0-13.682,5.539-26.047,14.504-35.013C23.47,5.538,35.836,0,49.518,0L49.518,0z M81.817,17.246
	C73.537,8.993,62.13,3.865,49.518,3.865c-12.612,0-24.019,5.128-32.271,13.381c-8.253,8.253-13.38,19.659-13.38,32.271
	c0,12.613,5.127,24.019,13.38,32.299c8.253,8.253,19.66,13.353,32.271,13.353c12.612,0,24.019-5.1,32.299-13.353
	C90.07,73.536,95.17,62.13,95.17,49.518C95.17,36.905,90.07,25.499,81.817,17.246L81.817,17.246z"/>
<path class="st1" d="M53.301,39.4v-4.058c0-1.947,1.289-2.413,2.222-2.413c0.904,0,5.675,0,5.675,0v-8.665h-7.814
	c-8.691,0-10.638,6.415-10.638,10.583V39.4H37.7v6.114v4.004h5.1c0,11.488,0,25.28,0,25.28h10.118c0,0,0-13.984,0-25.28h7.485
	l0.33-3.976l0.603-6.142H53.301z"/>
</svg>