<!-- Generator: Adobe Illustrator 22.1.0, SVG Export Plug-In  -->
<svg version="1.1"
	 xmlns="http://www.w3.org/2000/svg" xmlns:xlink="http://www.w3.org/1999/xlink" xmlns:a="http://ns.adobe.com/AdobeSVGViewerExtensions/3.0/"
	 x="0px" y="0px" width="36.467px" height="94.12px" viewBox="0 0 36.467 94.12" style="enable-background:new 0 0 36.467 94.12;"
	 xml:space="preserve">
<style type="text/css">
	.st0{fill:#3131A8;}
	.st1{fill:#E50E38;}
	.st2{fill:#FFFFFF;}
	.st3{fill:none;stroke:#000000;stroke-width:0.25;stroke-miterlimit:10;}
	.st4{fill:none;stroke:#000000;stroke-width:0.3;stroke-miterlimit:10;}
	.st5{stroke:#000000;stroke-width:0.25;stroke-miterlimit:10;}
	.st6{fill:none;stroke:#E3DAC6;stroke-width:0.3;stroke-miterlimit:10;}
</style>
<defs>
</defs>
<polygon class="st0" points="15.737,0.926 24.649,0.926 24.7,4.513 36.28,4.388 36.406,12.676 21.961,12.513 21.963,8.801 
	15.488,8.676 "/>
<rect x="27.501" y="4.263" class="st1" width="8.966" height="8.375"/>
<rect x="21.75" y="4.241" class="st2" width="6.057" height="8.39"/>
<g>
	<path class="st3" d="M15.791,24.977v22.786c0,14.284-2.718,36.546-7.123,46.098"/>
	<path class="st3" d="M15.791,47.763c0,14.284-2.789,36.678-7.192,46.231H0.204c0,0,12.248-24.076,12.248-68.973
		c2.225,0,4.73,0,6.677,0c0,44.897,12.248,68.973,12.248,68.973h-8.371C18.601,84.441,15.791,62.047,15.791,47.763"/>
	<line class="st4" x1="12.463" y1="27.869" x2="19.119" y2="27.869"/>
	<line class="st4" x1="12.463" y1="30.674" x2="19.119" y2="30.674"/>
	<line class="st3" x1="11.948" y1="39.525" x2="19.634" y2="39.525"/>
	<line class="st3" x1="11.76" y1="42.681" x2="19.822" y2="42.681"/>
	<line class="st3" x1="11.526" y1="46.185" x2="20.054" y2="46.185"/>
	<line class="st3" x1="11.01" y1="49.955" x2="20.57" y2="49.955"/>
	<line class="st3" x1="9.7" y1="60.208" x2="15.274" y2="60.208"/>
	<line class="st3" x1="16.352" y1="60.208" x2="21.927" y2="60.208"/>
	<line class="st3" x1="8.949" y1="64.808" x2="14.759" y2="64.808"/>
	<line class="st3" x1="16.822" y1="64.808" x2="22.633" y2="64.808"/>
	<line class="st3" x1="7.964" y1="69.936" x2="14.243" y2="69.936"/>
	<line class="st3" x1="17.384" y1="69.936" x2="23.709" y2="69.936"/>
	<line class="st3" x1="4.38" y1="83.147" x2="11.972" y2="83.147"/>
	<line class="st3" x1="19.562" y1="83.147" x2="27.154" y2="83.147"/>
	<line class="st3" x1="2.411" y1="88.603" x2="10.494" y2="88.603"/>
	<line class="st3" x1="21.039" y1="88.603" x2="29.193" y2="88.603"/>
	<line class="st3" x1="12.463" y1="33.48" x2="19.119" y2="33.48"/>
	<line class="st3" x1="12.041" y1="36.284" x2="19.54" y2="36.284"/>
	<line class="st3" x1="13.4" y1="33.522" x2="13.4" y2="36.241"/>
	<line class="st3" x1="14.572" y1="33.522" x2="14.572" y2="36.241"/>
	<line class="st3" x1="16.916" y1="33.522" x2="16.916" y2="36.241"/>
	<line class="st3" x1="18.086" y1="33.522" x2="18.086" y2="36.241"/>
	<g>
		<rect x="5.529" y="74.67" class="st5" width="20.524" height="2.991"/>
		<line class="st6" x1="5.491" y1="76.327" x2="26.052" y2="76.327"/>
		<line class="st6" x1="7.284" y1="74.734" x2="7.284" y2="77.561"/>
		<line class="st6" x1="9.002" y1="74.734" x2="9.002" y2="77.561"/>
		<line class="st6" x1="10.721" y1="74.734" x2="10.721" y2="77.561"/>
		<line class="st6" x1="12.438" y1="74.734" x2="12.438" y2="77.561"/>
		<line class="st6" x1="14.156" y1="74.734" x2="14.156" y2="77.561"/>
		<line class="st6" x1="15.875" y1="74.734" x2="15.875" y2="77.561"/>
		<line class="st6" x1="17.595" y1="74.734" x2="17.595" y2="77.561"/>
		<line class="st6" x1="19.311" y1="74.734" x2="19.311" y2="77.561"/>
		<line class="st6" x1="21.029" y1="74.734" x2="21.029" y2="77.561"/>
		<line class="st6" x1="22.748" y1="74.734" x2="22.748" y2="77.561"/>
		<line class="st6" x1="24.468" y1="74.734" x2="24.468" y2="77.561"/>
	</g>
	<rect x="9.775" y="53.546" class="st5" width="12.031" height="2.293"/>
	<g>
		<line class="st6" x1="10.025" y1="53.635" x2="12.276" y2="55.738"/>
		<line class="st6" x1="12.276" y1="53.635" x2="10.025" y2="55.738"/>
	</g>
	<g>
		<line class="st6" x1="12.23" y1="53.635" x2="14.479" y2="55.738"/>
		<line class="st6" x1="14.479" y1="53.635" x2="12.23" y2="55.738"/>
	</g>
	<g>
		<line class="st6" x1="14.431" y1="53.635" x2="16.68" y2="55.738"/>
		<line class="st6" x1="16.68" y1="53.635" x2="14.431" y2="55.738"/>
	</g>
	<g>
		<line class="st6" x1="16.822" y1="53.635" x2="19.07" y2="55.738"/>
		<line class="st6" x1="19.07" y1="53.635" x2="16.822" y2="55.738"/>
	</g>
	<g>
		<line class="st6" x1="19.351" y1="53.635" x2="21.601" y2="55.738"/>
		<line class="st6" x1="21.601" y1="53.635" x2="19.351" y2="55.738"/>
	</g>
	<g>
		<line class="st3" x1="12.603" y1="25.196" x2="15.604" y2="27.781"/>
		<line class="st3" x1="12.463" y1="27.869" x2="15.604" y2="25.196"/>
		<line class="st3" x1="12.463" y1="27.869" x2="15.555" y2="30.587"/>
		<line class="st3" x1="12.416" y1="30.587" x2="15.604" y2="27.958"/>
		<line class="st3" x1="12.463" y1="30.674" x2="15.65" y2="33.478"/>
		<line class="st3" x1="12.323" y1="33.435" x2="15.604" y2="30.717"/>
		<line class="st3" x1="12.277" y1="36.414" x2="15.697" y2="39.482"/>
		<line class="st3" x1="12.135" y1="39.437" x2="15.555" y2="36.457"/>
		<line class="st3" x1="12.089" y1="39.569" x2="15.697" y2="42.593"/>
		<line class="st3" x1="11.995" y1="42.549" x2="15.604" y2="39.658"/>
		<line class="st3" x1="11.902" y1="42.769" x2="15.555" y2="46.011"/>
		<line class="st3" x1="11.668" y1="45.966" x2="15.555" y2="42.899"/>
		<line class="st3" x1="11.62" y1="46.318" x2="15.555" y2="49.823"/>
		<line class="st3" x1="11.245" y1="49.867" x2="15.555" y2="46.318"/>
		<line class="st3" x1="11.245" y1="50.13" x2="15.51" y2="53.46"/>
		<line class="st3" x1="10.73" y1="53.372" x2="15.604" y2="49.999"/>
		<line class="st3" x1="10.494" y1="55.915" x2="15.086" y2="60.078"/>
		<line class="st3" x1="9.7" y1="60.208" x2="15.415" y2="56.001"/>
		<line class="st3" x1="9.7" y1="60.208" x2="14.714" y2="64.678"/>
		<line class="st3" x1="9.044" y1="64.59" x2="15.087" y2="60.295"/>
		<line class="st3" x1="8.949" y1="64.808" x2="13.965" y2="69.717"/>
		<line class="st3" x1="7.964" y1="69.673" x2="14.665" y2="64.896"/>
		<line class="st3" x1="7.964" y1="69.936" x2="13.307" y2="74.494"/>
		<line class="st3" x1="6.84" y1="74.274" x2="14.103" y2="70.156"/>
		<line class="st3" x1="5.902" y1="77.824" x2="11.972" y2="83.147"/>
		<line class="st3" x1="4.497" y1="82.951" x2="12.84" y2="77.779"/>
		<line class="st3" x1="4.38" y1="83.147" x2="10.494" y2="88.603"/>
		<line class="st3" x1="2.482" y1="88.472" x2="11.806" y2="83.257"/>
		<line class="st3" x1="2.411" y1="88.603" x2="8.432" y2="93.906"/>
		<line class="st3" x1="0.232" y1="93.861" x2="10.402" y2="88.778"/>
	</g>
	<g>
		<line class="st3" x1="18.979" y1="25.196" x2="15.976" y2="27.781"/>
		<line class="st3" x1="19.119" y1="27.869" x2="15.976" y2="25.196"/>
		<line class="st3" x1="19.119" y1="27.869" x2="16.026" y2="30.587"/>
		<line class="st3" x1="19.165" y1="30.587" x2="15.976" y2="27.958"/>
		<line class="st3" x1="19.119" y1="30.674" x2="15.93" y2="33.478"/>
		<line class="st3" x1="19.258" y1="33.435" x2="15.976" y2="30.717"/>
		<line class="st3" x1="19.304" y1="36.414" x2="15.885" y2="39.482"/>
		<line class="st3" x1="19.445" y1="39.437" x2="16.026" y2="36.457"/>
		<line class="st3" x1="19.492" y1="39.569" x2="15.885" y2="42.593"/>
		<line class="st3" x1="19.586" y1="42.549" x2="15.976" y2="39.658"/>
		<line class="st3" x1="19.679" y1="42.769" x2="16.026" y2="46.011"/>
		<line class="st3" x1="19.914" y1="45.966" x2="16.026" y2="42.899"/>
		<line class="st3" x1="19.962" y1="46.318" x2="16.026" y2="49.823"/>
		<line class="st3" x1="20.336" y1="49.867" x2="16.026" y2="46.318"/>
		<line class="st3" x1="20.336" y1="50.13" x2="16.071" y2="53.46"/>
		<line class="st3" x1="20.851" y1="53.372" x2="15.976" y2="49.999"/>
		<line class="st3" x1="21.088" y1="55.915" x2="16.495" y2="60.078"/>
		<line class="st3" x1="21.881" y1="60.208" x2="16.166" y2="56.001"/>
		<line class="st3" x1="21.881" y1="60.208" x2="16.867" y2="64.678"/>
		<line class="st3" x1="22.537" y1="64.59" x2="16.494" y2="60.295"/>
		<line class="st3" x1="22.633" y1="64.808" x2="17.617" y2="69.717"/>
		<line class="st3" x1="23.617" y1="69.673" x2="16.915" y2="64.896"/>
		<line class="st3" x1="23.617" y1="69.936" x2="18.273" y2="74.494"/>
		<line class="st3" x1="24.74" y1="74.274" x2="17.477" y2="70.156"/>
		<line class="st3" x1="25.678" y1="77.824" x2="19.609" y2="83.147"/>
		<line class="st3" x1="27.084" y1="82.951" x2="18.742" y2="77.779"/>
		<line class="st3" x1="27.202" y1="83.147" x2="21.088" y2="88.603"/>
		<line class="st3" x1="29.098" y1="88.472" x2="19.773" y2="83.257"/>
		<line class="st3" x1="29.171" y1="88.603" x2="23.148" y2="93.906"/>
		<line class="st3" x1="31.349" y1="93.861" x2="21.179" y2="88.778"/>
	</g>
	<path class="st3" d="M12.452,81.045c0,0,3.438-2.235,6.677,0"/>
	<line class="st3" x1="13.167" y1="77.889" x2="15.908" y2="79.927"/>
	<line class="st3" x1="12.533" y1="80.848" x2="15.838" y2="77.757"/>
	<line class="st3" x1="15.838" y1="77.757" x2="19.002" y2="80.715"/>
	<line class="st3" x1="15.908" y1="79.927" x2="18.438" y2="77.824"/>
	<rect x="11.926" y="23.268" class="st5" width="7.731" height="0.854"/>
	<rect x="11.926" y="18.569" class="st5" width="7.731" height="0.854"/>
	<rect x="12.627" y="15.742" class="st5" width="6.326" height="0.855"/>
	<polyline class="st3" points="14.314,15.784 14.314,14.452 17.265,14.452 17.265,15.784 	"/>
	<polyline class="st3" points="14.877,14.469 14.877,13.138 16.705,13.138 16.705,14.469 	"/>
	<rect x="15.473" width="0.634" height="13.155"/>
	<path class="st3" d="M11.926,23.268c0,0-0.521-0.861-0.521-1.922c0-1.062,0.521-1.923,0.521-1.923"/>
	<path class="st3" d="M19.657,23.268c0,0,0.52-0.861,0.52-1.922c0-1.062-0.52-1.923-0.52-1.923"/>
	<g>
		<line class="st3" x1="12.627" y1="19.389" x2="12.627" y2="23.203"/>
		<line class="st3" x1="13.892" y1="19.389" x2="13.892" y2="23.203"/>
		<line class="st3" x1="15.157" y1="19.389" x2="15.157" y2="23.203"/>
		<line class="st3" x1="16.424" y1="19.389" x2="16.424" y2="23.203"/>
		<line class="st3" x1="17.69" y1="19.389" x2="17.69" y2="23.203"/>
		<line class="st3" x1="18.953" y1="19.389" x2="18.953" y2="23.203"/>
	</g>
	<g>
		<line class="st3" x1="13.172" y1="16.564" x2="13.172" y2="18.601"/>
		<line class="st3" x1="14.481" y1="16.564" x2="14.481" y2="18.601"/>
		<line class="st3" x1="15.791" y1="16.564" x2="15.791" y2="18.601"/>
		<line class="st3" x1="17.101" y1="16.564" x2="17.101" y2="18.601"/>
		<line class="st3" x1="18.408" y1="16.564" x2="18.408" y2="18.601"/>
	</g>
</g>
</svg>