<!-- Generator: Adobe Illustrator 22.1.0, SVG Export Plug-In  -->
<svg version="1.1"
	 xmlns="http://www.w3.org/2000/svg" xmlns:xlink="http://www.w3.org/1999/xlink" xmlns:a="http://ns.adobe.com/AdobeSVGViewerExtensions/3.0/"
	 x="0px" y="0px" width="40.239px" height="69.693px" viewBox="0 0 40.239 69.693"
	 style="enable-background:new 0 0 40.239 69.693;" xml:space="preserve">
<style type="text/css">
	.st0{clip-path:url(#SVGID_2_);}
	.st1{fill:none;stroke:#5F5D6D;stroke-width:0.5;stroke-miterlimit:10;}
	.st2{fill:#FFFCED;}
	.st3{fill:#34495E;}
	.st4{fill:#8C442D;}
	.st5{fill:none;stroke:#592B1D;stroke-width:0.2;stroke-miterlimit:10;}
	.st6{fill:#33250A;}
	.st7{fill:none;stroke:#261B14;stroke-width:0.15;stroke-miterlimit:10;}
	.st8{fill:none;stroke:#BF9E4C;stroke-width:0.15;stroke-miterlimit:10;}
	.st9{fill:#4D3913;}
	.st10{fill:none;stroke:#4D3913;stroke-width:0.25;stroke-miterlimit:10;}
	.st11{fill:#261B14;}
	.st12{fill:#708755;}
	.st13{fill:none;stroke:#CDD6CE;stroke-width:0.25;stroke-miterlimit:10;}
	.st14{fill:#96835A;}
	.st15{clip-path:url(#SVGID_4_);}
</style>
<defs>
</defs>
<g>
	<g>
		<g>
			<defs>
				<path id="SVGID_1_" d="M37.506,24.972c-0.533-1.838-2.4-3.824-4.267-5.317c-1.271-1.015-3.94-2.491-5.502-2.891
					c-2.446-0.625-5.524-0.655-5.503-0.559l-2.238,0.186c-1.516,1.516-6.836,3.125-9.77,3.125c-0.57,0-1.304-0.73-2.062-1.798
					l-1.967,1.248c0.378,0.888,0.733,1.617,1.021,2.019c1.618,2.265,8.848,1.637,11.542,1.119c0.08,3.548,0.024,7.159-0.256,10.516
					c1.196,0.507,7.647,1.119,10.726,0.372c-0.187-2.611-0.635-9.101-1.026-11.798c3.219,1.608,6.226,3.358,6.506,4.407
					c0.115,0.431-0.183,1.234-1,2.586l2.089,1.194C37.218,27.612,37.861,26.192,37.506,24.972z"/>
			</defs>
			<use xlink:href="#SVGID_1_"  style="overflow:visible;fill:#CDD6CE;"/>
			<clipPath id="SVGID_2_">
				<use xlink:href="#SVGID_1_"  style="overflow:visible;"/>
			</clipPath>
			<g class="st0">
				<line class="st1" x1="15.752" y1="17.837" x2="31.56" y2="17.557"/>
				<line class="st1" x1="3.51" y1="18.816" x2="36.597" y2="19.096"/>
				<line class="st1" x1="6.099" y1="21.614" x2="39.115" y2="21.264"/>
				<line class="st1" x1="7.709" y1="23.013" x2="40.164" y2="22.523"/>
				<line class="st1" x1="16.731" y1="23.922" x2="40.164" y2="23.783"/>
				<line class="st1" x1="17.151" y1="25.182" x2="40.235" y2="24.832"/>
				<line class="st1" x1="17.291" y1="26.371" x2="40.164" y2="26.09"/>
				<line class="st1" x1="17.85" y1="27.42" x2="39.884" y2="27.42"/>
				<line class="st1" x1="16.871" y1="28.399" x2="38.905" y2="28.399"/>
				<line class="st1" x1="16.801" y1="29.658" x2="30.162" y2="29.867"/>
				<line class="st1" x1="17.43" y1="30.847" x2="30.72" y2="30.777"/>
				<line class="st1" x1="16.941" y1="32.106" x2="30.232" y2="32.037"/>
				<line class="st1" x1="4.701" y1="20.285" x2="37.367" y2="20.215"/>
			</g>
		</g>
		<path class="st2" d="M4.705,11.221c-0.066-0.966,0.232-3.38-0.671-3.057C3.923,8.826,4.26,10.391,2.946,9.517
			c-1.879-1.25,0.347-1.145,0.267-1.663c-0.134-0.878-1.739,0-1.789,0.718C1.392,9.044,1.713,9.471,2.139,9.725
			C1.795,9.579,0.497,8.633,0.28,8.94c-0.118,0.453,1.106,1.183,1.576,1.359c-0.754-0.185-2.411-0.481-1.668,0.203
			c0.481,0.441,2.572,0.648,3.36,0.8c0.483,1.801,1.646,5.311,2.649,7.664l1.967-1.248C6.869,15.899,5.495,13.097,4.705,11.221z"/>
		<path class="st2" d="M35.798,29.381l-2.089-1.194c-0.643,1.063-1.602,2.459-2.988,4.338c0,0-2.043,1.881-0.951,3.094
			c0.958,1.065,1.777,1.365,3.009,1.667c0.011-0.275-0.086-0.442-0.244-0.548c0.393-0.001,0.786-0.029,1.172-0.109
			c0.058-0.121,0.08-0.221,0.099-0.335c-0.358-0.148-0.686-0.173-1.019-0.164c0.369-0.077,0.661-0.259,0.643-0.682
			c-0.836-0.136-1.401-1.244-2.24-1.244C33.124,32.339,34.695,30.755,35.798,29.381z"/>
	</g>
	<polygon class="st3" points="19.529,32.597 19.04,16.368 20.158,16.018 20.299,32.597 	"/>
	<polygon class="st3" points="26.524,32.806 26.034,15.738 27.363,15.949 27.294,32.806 	"/>
	<g>
		<path class="st4" d="M20.275,14.898c0,0,1.967,1.633,4.242-0.357l1.066,1.209c0,0,0.072,5.121-4.766,6.331
			c0.854-1.992,0.143-4.695-1.637-5.904L20.275,14.898z"/>
		<path class="st4" d="M25.158,15.608c0,0,0.568-1.708,2.348-0.854C27.506,14.753,27.008,16.176,25.158,15.608z"/>
		<path class="st4" d="M24.91,15.865c0,0,1.761-1.242,3.419,0.979C28.329,16.844,26.833,17.858,24.91,15.865z"/>
		<path class="st5" d="M22.047,20.075c0,0,1.89-0.77,2.519-4.126"/>
		<path class="st5" d="M21.777,18.364c0,0,1.397,0.174,1.694-1.192"/>
		<path class="st5" d="M27.294,16.578c-0.385-0.525-1.609-0.804-1.609-0.804s0.315-0.804,1.12-0.769"/>
	</g>
	<path class="st6" d="M25.087,3.201c0.462,0.586,1.127,1.184,1.624,1.835c0.454,0.594,0.979,0.734,1.741,1.018
		c-1.182,0.171-1.846,0.171-2.613-0.276c0.544,0.6,1.285,1.014,2.053,1.272c-0.901,0.225-1.675,0.337-2.44-0.056
		c0.058,1.977,0.049,3.987-0.513,5.946c-0.812,2.845-2.274,4.087-3.917,4.383c0.996-0.783-0.086-1.692-0.839-2.705
		c-1.009-1.356-1.407-2.514-1.937-7.38c-0.639,0.866-2.797,0.91-3.367,0.348c1.061-0.138,2.195-0.799,2.529-1.852
		c-0.697,0.259-1.806,0.25-2.412-0.23c0.881-0.171,3.59-1.245,2.835-2.162L25.087,3.201z"/>
	<path class="st2" d="M18.542,4.34c0,0,0.568,9.992,3.557,10.418c2.988,0.427,2.847-10.276,2.847-10.276L18.542,4.34z"/>
	<path class="st7" d="M19.795,6.225c0,0-0.357,2.169,0.418,2.309c0.775,0.14,0.715-2.309,0.715-2.309"/>
	<path class="st7" d="M23.082,6.225c0,0-0.357,2.169,0.418,2.309c0.775,0.14,0.716-2.309,0.716-2.309"/>
	<path class="st8" d="M21.487,6.295c0,0,0.421,2.728-1.469,3.917c0,0,0.84,0.21,1.89-0.489c0,0,0.279,1.609-0.209,2.377
		c0.418,0.211,1.397-0.069,1.397-1.188"/>
	<path class="st3" d="M18.504,32.62c0,0-11.425,24.249,9.28,32.783l0.979-1.259c0,0-15.67-8.114-6.437-27.42l1.679,0.139
		c0,0,0.98,14.271-0.139,30.499l2.237,0.14c0,0,2.938-12.731,3.125-34.509L18.504,32.62z"/>
	<path class="st9" d="M24.146,67.361c0,0-8.814,1.119-8.675,1.959c0.141,0.839,7.415-0.14,9.234-0.42l-0.047,0.793h1.12l0.325-2.192
		L24.146,67.361z"/>
	<path class="st9" d="M27.784,65.403c0,0-0.144,2.731-3.638,2.938c-1.586,0.093,0.559,0.419,0.559,0.419s4.942,0,4.756-2.937
		l0.979,0.28l0.279-0.839l-1.957-1.119L27.784,65.403z"/>
	<g>
		<path class="st10" d="M5.598,10.394c0,0-4.099-1.524-1.44-7.47"/>
		<path class="st4" d="M3.983,2.784c0,0-2.099-0.7-1.399-1.609C3.284,0.266,3.843,2.015,3.983,2.784z"/>
		<path class="st4" d="M4.082,2.8c0,0,0.14-2.206,1.197-1.764C6.338,1.48,4.79,2.468,4.082,2.8z"/>
		<path class="st4" d="M4.067,2.899c0,0,2.188-0.938,2.049,0.2C6.034,3.777,4.738,3.303,4.067,2.899z"/>
		<path class="st4" d="M4.031,2.893c0,0-1.377,2.06-1.783,1.169C1.888,3.273,3.249,2.927,4.031,2.893z"/>
		<path class="st4" d="M4.066,2.957c0,0,1.882,1.612,0.949,1.909C4.187,5.129,4.008,3.736,4.066,2.957z"/>
		<path class="st11" d="M4.368,2.8c0,0.159-0.128,0.287-0.286,0.287c-0.158,0-0.286-0.128-0.286-0.287
			c0-0.157,0.128-0.285,0.286-0.285C4.24,2.515,4.368,2.643,4.368,2.8z"/>
		<path class="st12" d="M3.053,6.398c0,0-1.585,0.061-1.688-1.318C1.365,5.08,2.692,4.714,3.053,6.398z"/>
		<path class="st12" d="M5.179,6.058c0,0-0.296,1.559-1.663,1.351C3.516,7.409,3.458,6.033,5.179,6.058z"/>
	</g>
	<path class="st13" d="M26.943,32.946c0,0-0.699,3.428,2.17,3.638"/>
	<path class="st13" d="M17.22,36.024c0,0,2.448-0.071,2.658-3.218"/>
	<path class="st2" d="M27.504,32.981c0,0.367-0.297,0.664-0.665,0.664c-0.367,0-0.663-0.297-0.663-0.664
		c0-0.367,0.296-0.665,0.663-0.665C27.207,32.316,27.504,32.614,27.504,32.981z"/>
	<path class="st2" d="M20.544,32.806c0,0.367-0.298,0.664-0.665,0.664c-0.366,0-0.663-0.297-0.663-0.664
		c0-0.367,0.297-0.665,0.663-0.665C20.246,32.141,20.544,32.439,20.544,32.806z"/>
	<g>
		<path class="st4" d="M16.193,3.845c-0.328-0.859,2.79-3.586,7.926-3.083c2.912,0.285,4.137,2.749,2.912,3.94
			C26.15,5.557,16.871,5.615,16.193,3.845z"/>
		<polygon class="st4" points="23.308,1.422 23.878,0 24.517,0.142 24.161,1.566 		"/>
		<path class="st5" d="M24.531,4.637c1.697,0.203,3.262-0.574,1.863-2.329"/>
	</g>
	<g>
		<g>
			<path class="st6" d="M22.107,10.679c-0.152-0.333-0.644-0.454-1.12,0.09c-0.58,0.662-1.242,0.454-1.09-0.152
				c-0.213,0.666,0.15,1.103,0.757,1.15C21.41,11.829,22.426,11.382,22.107,10.679z"/>
			<path class="st6" d="M22.077,10.679c0.151-0.333,0.644-0.453,1.118,0.091c0.58,0.662,1.242,0.454,1.092-0.151
				c0.211,0.665-0.152,1.102-0.758,1.149C22.771,11.83,21.758,11.381,22.077,10.679z"/>
		</g>
		<g>
			<g>
				<g>
					<path class="st14" d="M22.117,10.747c0,0,0.077-0.082,0.242-0.121c0.08-0.017,0.188-0.019,0.281,0.037
						c0.098,0.051,0.174,0.122,0.257,0.19c0.162,0.141,0.32,0.282,0.466,0.346c0.146,0.063,0.255,0.071,0.255,0.071l-0.001,0.007
						c0,0-0.109-0.001-0.264-0.055c-0.154-0.055-0.325-0.195-0.49-0.325c-0.168-0.138-0.339-0.25-0.498-0.228
						c-0.155,0.014-0.244,0.083-0.244,0.083L22.117,10.747z"/>
				</g>
			</g>
			<g>
				<g>
					<path class="st14" d="M22.131,10.792c0,0,0.061-0.014,0.158-0.001c0.1,0.002,0.21,0.088,0.307,0.157
						c0.193,0.155,0.387,0.31,0.387,0.31l-0.004,0.006c0,0-0.207-0.135-0.413-0.269c-0.2-0.146-0.427-0.211-0.435-0.197V10.792z"/>
				</g>
			</g>
			<g>
				<g>
					<path class="st14" d="M22.133,10.851c0,0,0.183,0.26,0.436,0.436c0.108,0.119,0.276,0.134,0.378,0.192
						c0.108,0.045,0.182,0.075,0.182,0.075l-0.001,0.007c0,0-0.076-0.023-0.188-0.059c-0.108-0.048-0.282-0.056-0.401-0.169
						c-0.065-0.047-0.13-0.095-0.191-0.14c-0.062-0.044-0.092-0.115-0.127-0.163c-0.07-0.098-0.088-0.177-0.092-0.175L22.133,10.851
						z"/>
				</g>
			</g>
			<g>
				<g>
					<path class="st14" d="M22.049,10.753c0,0-0.09-0.069-0.244-0.083c-0.159-0.022-0.332,0.088-0.498,0.226
						c-0.166,0.13-0.336,0.271-0.491,0.325c-0.154,0.055-0.263,0.055-0.263,0.055l-0.001-0.007c0,0,0.108-0.008,0.254-0.071
						c0.146-0.064,0.304-0.206,0.466-0.346c0.083-0.068,0.159-0.14,0.257-0.19c0.094-0.055,0.202-0.052,0.282-0.035
						c0.164,0.039,0.242,0.121,0.242,0.121L22.049,10.753z"/>
				</g>
			</g>
			<g>
				<g>
					<path class="st14" d="M22.039,10.799c-0.009-0.014-0.234,0.049-0.437,0.196c-0.206,0.134-0.414,0.268-0.414,0.268l-0.004-0.006
						c0,0,0.194-0.155,0.39-0.31c0.095-0.069,0.205-0.155,0.307-0.157c0.098-0.013,0.158,0.001,0.158,0.001V10.799z"/>
				</g>
			</g>
			<g>
				<g>
					<path class="st14" d="M22.042,10.854c-0.003-0.001-0.021,0.077-0.092,0.175c-0.035,0.048-0.066,0.119-0.128,0.163
						c-0.061,0.045-0.127,0.092-0.191,0.14c-0.12,0.114-0.295,0.122-0.402,0.169c-0.113,0.035-0.189,0.059-0.189,0.059v-0.007
						c0,0,0.072-0.03,0.182-0.075c0.101-0.058,0.27-0.073,0.379-0.191c0.254-0.176,0.436-0.436,0.436-0.436L22.042,10.854z"/>
				</g>
			</g>
		</g>
	</g>
</g>
</svg>