<!-- Generator: Adobe Illustrator 22.1.0, SVG Export Plug-In  -->
<svg version="1.1"
	 xmlns="http://www.w3.org/2000/svg" xmlns:xlink="http://www.w3.org/1999/xlink" xmlns:a="http://ns.adobe.com/AdobeSVGViewerExtensions/3.0/"
	 x="0px" y="0px" width="45.566px" height="36.07px" viewBox="0 0 45.566 36.07" style="enable-background:new 0 0 45.566 36.07;"
	 xml:space="preserve">
<style type="text/css">
	.st0{fill:#CF8125;}
	.st1{fill:#EBB578;}
	.st2{fill:#B47936;}
	.st3{fill:#8F581A;}
	.st4{fill:#BF9E4C;}
	.st5{fill:#4D432E;}
	.st6{fill:#572311;}
	.st7{fill:#8C442D;}
	.st8{fill:#E3DAC6;}
	.st9{fill:#4D3913;}
	.st10{fill:#33250A;}
	.st11{fill:none;stroke:#E3DAC6;stroke-width:0.5;stroke-miterlimit:10;}
	.st12{fill:none;stroke:#8C442D;stroke-width:0.85;stroke-miterlimit:10;}
</style>
<defs>
</defs>
<g>
	<path class="st0" d="M2.772,3.265C0.891,7.636,40.712,11.49,39.372,7C37.267-0.049,5.306-2.622,2.772,3.265z"/>
	<path class="st1" d="M33.063,6.688c-0.582,0.11-0.498-3.694-0.483-4.246c0.662,0.214,1.294,0.438,1.884,0.675
		C34.285,3.858,33.603,6.584,33.063,6.688z"/>
	<path class="st1" d="M28.432,6.226c-0.739-0.122-0.862-4.251-0.88-5.055c0.742,0.146,1.461,0.305,2.164,0.475
		C29.607,2.398,29.003,6.32,28.432,6.226z"/>
	<path class="st1" d="M17.193,4.695c-0.551-0.069-0.025-3.707,0.12-4.655c0.732,0.023,1.471,0.057,2.214,0.107
		C19.24,1.002,17.925,4.787,17.193,4.695z"/>
	<path class="st1" d="M12.194,4.225c-0.479-0.06-0.085-3.018,0.082-4.138c0.677-0.04,1.374-0.064,2.088-0.075
		C14.068,0.887,12.864,4.31,12.194,4.225z"/>
	<path class="st1" d="M9.368,0.361C9.189,0.9,8.107,4.058,7.507,3.983C7.086,3.928,7.341,1.509,7.438,0.704
		C8.042,0.572,8.683,0.454,9.368,0.361z"/>
	<path class="st1" d="M22.715,5.644c-0.552-0.052-0.347-4.148-0.283-5.238c0.759,0.084,1.515,0.178,2.261,0.286
		C24.544,1.558,23.774,5.746,22.715,5.644z"/>
</g>
<g>
	<path class="st2" d="M45.515,10.588c1.854,4.505-47.572,5.229-45.448,0.858C3.404,4.582,43.019,4.52,45.515,10.588z"/>
	<path class="st3" d="M7.866,11.628C8.57,11.785,8.87,7.985,8.91,7.434c-0.837,0.161-1.639,0.334-2.39,0.525
		C6.66,8.711,7.212,11.484,7.866,11.628z"/>
	<path class="st3" d="M13.614,11.531c0.924-0.063,1.513-4.171,1.62-4.969c-0.93,0.085-1.831,0.188-2.716,0.302
		C12.575,7.622,12.903,11.579,13.614,11.531z"/>
	<path class="st3" d="M27.61,10.883c0.686-0.024,0.424-3.692,0.345-4.649c-0.904-0.033-1.816-0.058-2.736-0.066
		C25.483,7.042,26.701,10.918,27.61,10.883z"/>
	<path class="st3" d="M33.814,10.809c0.597-0.024,0.425-3.004,0.338-4.134c-0.829-0.092-1.684-0.171-2.561-0.238
		C31.862,7.333,32.98,10.839,33.814,10.809z"/>
	<path class="st3" d="M37.702,7.176c0.164,0.552,1.161,3.786,1.908,3.757c0.523-0.021,0.465-2.453,0.432-3.263
		C39.312,7.492,38.536,7.324,37.702,7.176z"/>
	<path class="st3" d="M20.714,11.399c0.685-0.01,0.866-4.11,0.902-5.2c-0.942,0.023-1.882,0.059-2.813,0.108
		C18.894,7.181,19.401,11.418,20.714,11.399z"/>
</g>
<g>
	<path class="st4" d="M29.116,31.551l2.457-4.053c0,0-1.145-1.301-3.406-2.033c-2.528-0.816-3.95-0.345-3.95-0.345l-0.384,4.723
		c0,0,0.918,0.697,2.525,1.217C27.892,31.556,29.116,31.551,29.116,31.551z"/>
	<path class="st4" d="M23.417,29.685c0,0-0.736,0.187-1.605-0.138l-0.34-3.792c0,0,1.113-0.696,2.287-0.529L23.417,29.685z"/>
	<path class="st4" d="M21.391,29.412l-1.916-1.931c0,0,0.45-0.998,1.542-1.364L21.391,29.412z"/>
	<path class="st4" d="M21.061,29.617c0,0-1.312,0.542-1.601,2.63c-0.67-0.63-0.93-3.013-0.12-4.218L21.061,29.617z"/>
	<path class="st4" d="M29.573,31.676c0,0,0.49,0.582,1.384,0.829l2.495-2.876c0,0-0.495-1.219-1.543-1.77L29.573,31.676z"/>
	<path class="st4" d="M31.38,32.639l2.683-0.443c0,0,0.218-1.07-0.453-2.007L31.38,32.639z"/>
	<path class="st4" d="M31.525,33.001c0,0,0.747,1.206-0.24,3.068c0.912-0.12,2.517-1.898,2.566-3.349L31.525,33.001z"/>
</g>
<g>
	<path class="st5" d="M31.958,21.117l-3.586,3.93c0,0,0.979,1.684,3.31,2.98c2.609,1.448,4.277,1.238,4.277,1.238l1.447-5.12
		c0,0-0.857-0.967-2.517-1.89C33.31,21.376,31.958,21.117,31.958,21.117z"/>
	<path class="st5" d="M37.833,24.409c0,0,0.852-0.044,1.739,0.5l-0.45,4.253c0,0-1.38,0.525-2.634,0.086L37.833,24.409z"/>
	<path class="st5" d="M40.005,25.15l1.691,2.543c0,0-0.712,1.002-1.993,1.169L40.005,25.15z"/>
	<path class="st5" d="M40.414,24.995c0,0,1.562-0.31,2.336-2.548c0.6,0.84,0.368,3.521-0.786,4.673L40.414,24.995z"/>
	<path class="st5" d="M31.483,20.879c0,0-0.413-0.747-1.344-1.214l-3.374,2.626c0,0,0.281,1.447,1.316,2.284L31.483,20.879z"/>
	<path class="st5" d="M29.703,19.424l-3.051-0.093c0,0-0.476,1.132,0.061,2.31L29.703,19.424z"/>
	<path class="st5" d="M29.62,18.996c0,0-0.56-1.492,0.933-3.33c-1.03-0.066-3.185,1.546-3.554,3.134L29.62,18.996z"/>
</g>
<g>
	<rect x="12.095" y="25.788" class="st6" width="5.956" height="0.721"/>
	<path class="st7" d="M25.064,15.508c0,4.721-2.32,9.239-7.261,10.446c-0.835,0.204-4.601,0.215-5.421,0.029
		c-5.153-1.159-7.299-5.715-7.299-10.476c0-2.593,4.13-4.13,9.99-4.13C20.934,11.378,25.064,13.108,25.064,15.508z"/>
	<path class="st8" d="M24.007,15.077c0,1.565-3.999,2.834-8.934,2.834c-4.936,0-8.934-1.269-8.934-2.834s3.999-2.834,8.934-2.834
		C20.008,12.243,24.007,13.511,24.007,15.077z"/>
	<path class="st9" d="M15.073,13.396c-4.312,0-7.91,0.968-8.748,2.257c0.838,1.29,4.436,2.258,8.748,2.258
		c4.311,0,7.908-0.968,8.747-2.258C22.982,14.364,19.384,13.396,15.073,13.396z"/>
	<path class="st10" d="M16.739,13.447c2.784,0.342,4.674,1.008,4.674,1.774c0,1.113-3.999,2.017-8.935,2.017
		c-1.358,0-2.641-0.07-3.794-0.192c1.623,0.53,3.874,0.865,6.389,0.865c4.311,0,7.908-0.968,8.747-2.258
		C23.093,14.534,20.286,13.66,16.739,13.447z"/>
	<path class="st10" d="M14.401,15.317c0,0.404-1.031,0.73-2.306,0.73c-1.273,0-2.305-0.326-2.305-0.73
		c0-0.404,1.031-0.732,2.305-0.732C13.369,14.585,14.401,14.913,14.401,15.317z"/>
	<path class="st10" d="M19.3,14.8c0,0.304-0.645,0.55-1.441,0.55s-1.441-0.246-1.441-0.55c0-0.304,0.644-0.55,1.441-0.55
		S19.3,14.496,19.3,14.8z"/>
	<path class="st11" d="M6.331,17.238c0.289,2.882,1.825,6.052,4.804,7.301"/>
	<path class="st12" d="M23.382,18.15c0.961-1.584,3.171-2.449,4.412-1.592c1.915,1.322,1.065,4.475-1.262,5.517
		c-1.794,0.808-3.619-0.293-3.774-1.139"/>
</g>
<path class="st8" d="M27.126,14.125c-0.023,0.025-0.033-0.002-0.051-0.005c-0.041-0.088,0.033-0.197,0.07-0.263
	c0.055,0.001,0.014-0.089,0.067-0.104C27.191,13.872,27.216,14.02,27.126,14.125z"/>
<path class="st8" d="M26.392,15.185c0.01,0.01,0.016-0.001,0.023-0.006c0.025,0.031-0.014,0.042-0.023,0.047
	c-0.024,0.093-0.033,0.211-0.135,0.252c-0.035-0.007-0.059-0.044-0.059-0.08l0.066-0.145l0.002,0.01
	c0.046-0.052,0.079-0.092,0.139-0.127C26.401,15.154,26.385,15.169,26.392,15.185z"/>
<path class="st8" d="M18.568,13.246c-0.004,0.026-0.02,0.055-0.047,0.063c-0.008-0.034-0.049-0.052-0.033-0.093
	C18.511,13.155,18.562,13.204,18.568,13.246z"/>
<path class="st8" d="M23.803,14.874c-0.009,0.018-0.011,0.039-0.028,0.044c-0.025-0.014-0.041-0.03-0.047-0.061
	C23.745,14.813,23.812,14.821,23.803,14.874z"/>
<path class="st8" d="M18.263,13.925c-0.004,0.058-0.047,0.017-0.068,0.029c-0.025-0.029-0.004-0.083,0.031-0.086
	C18.252,13.874,18.253,13.9,18.263,13.925z"/>
<path class="st8" d="M16.995,13.633c-0.022,0.024-0.044-0.008-0.06-0.021c-0.018-0.021,0.013-0.049,0.016-0.078
	C16.993,13.513,17.034,13.589,16.995,13.633z"/>
<path class="st8" d="M17.495,14.012c-0.028,0.029-0.068,0.014-0.079-0.021c0.017-0.029,0.017-0.074,0.052-0.062
	C17.514,13.933,17.484,13.983,17.495,14.012z"/>
<path class="st8" d="M17.025,13.79c-0.049,0.024-0.049,0.186-0.123,0.093c0.039-0.046,0.005-0.15,0.08-0.169
	C16.991,13.736,17.021,13.75,17.025,13.79z"/>
<path class="st8" d="M14.325,14.947l-0.006-0.017L14.325,14.947l-0.061,0.002C14.283,14.974,14.301,14.956,14.325,14.947z"/>
<polygon class="st8" points="17.493,11.701 17.507,11.708 17.49,11.756 17.478,11.746 "/>
<path class="st8" d="M17.13,12.303l-0.046-0.023c-0.001-0.118,0.087-0.179,0.165-0.2C17.218,12.137,17.209,12.278,17.13,12.303z"/>
<path class="st8" d="M26.819,12.744c-0.049,0.088-0.022,0.242-0.121,0.295c-0.047,0.003-0.062-0.065-0.047-0.105
	c0.024-0.098,0.105-0.124,0.153-0.196L26.819,12.744z"/>
<path class="st8" d="M26.571,13.964c-0.025,0.023-0.047,0.021-0.07,0.001c-0.004-0.049,0-0.061,0.035-0.086
	C26.552,13.911,26.606,13.911,26.571,13.964z"/>
<path class="st8" d="M26.491,16.788l-0.044-0.024c0-0.115,0.088-0.179,0.166-0.197C26.581,16.624,26.572,16.764,26.491,16.788z"/>
<polygon class="st8" points="24.844,16.206 24.885,16.178 24.879,16.226 "/>
<path class="st8" d="M24.59,16.671c-0.021,0.019-0.048,0.033-0.076,0.047c-0.036-0.013-0.042-0.073-0.04-0.111
	c0.024-0.119,0.098-0.197,0.162-0.249l-0.008-0.02c-0.003-0.024,0.002,0.038,0.008,0.056c0.031,0.023,0.036-0.039,0.051-0.06
	C24.691,16.449,24.669,16.598,24.59,16.671z"/>
<path class="st8" d="M24.57,16.535l0.03-0.018c-0.026-0.053,0.005,0.001,0.017-0.043C24.568,16.517,24.645,16.509,24.57,16.535z"/>
<path class="st8" d="M27.653,12.068c-0.027,0.022-0.048,0.019-0.069-0.001c-0.005-0.046-0.001-0.06,0.032-0.086
	C27.634,12.011,27.685,12.011,27.653,12.068z"/>
<path class="st8" d="M31.108,12.424c-0.019,0.018-0.047,0.033-0.075,0.048c-0.036-0.013-0.043-0.075-0.041-0.111
	c0.023-0.12,0.1-0.198,0.163-0.25l-0.01-0.019c-0.003-0.024,0.003,0.038,0.009,0.055c0.031,0.025,0.037-0.037,0.051-0.059
	C31.208,12.2,31.189,12.349,31.108,12.424z"/>
<polygon class="st8" points="30.509,12.159 30.488,12.163 30.492,12.151 "/>
<path class="st8" d="M20.819,16.038c0,0.052-0.014,0.094-0.047,0.125c-0.014-0.004-0.035,0.012-0.037-0.014
	c-0.026-0.057,0.025-0.104,0.052-0.137C20.781,16.04,20.813,16.025,20.819,16.038z"/>
<polygon class="st8" points="20.782,16.082 20.796,16.042 20.801,16.044 "/>
<path class="st8" d="M19.462,15.759l0.004,0.018l-0.01-0.005l-0.012,0.034l-0.019-0.021l0.054-0.04
	C19.472,15.746,19.462,15.746,19.462,15.759z"/>
<path class="st8" d="M19.363,16.051c-0.042-0.018-0.022-0.086-0.024-0.107l0.062-0.122l0.019,0.052
	c-0.048-0.056-0.064,0.036-0.073,0.048c0.017,0.014,0.019,0.05,0.046,0.054c0.076-0.004,0.052-0.1,0.065-0.131l0.006,0.012
	l0.043-0.075C19.488,15.888,19.481,16.04,19.363,16.051z"/>
<path class="st8" d="M21.72,16.023c-0.025,0.027-0.052,0.073-0.08,0.034c-0.044-0.086,0.041-0.169,0.069-0.225l0.005-0.017
	c0.002,0.021,0.024,0.005,0.029,0.026c0.014-0.079,0.059-0.001,0.072-0.074C21.806,15.865,21.774,15.948,21.72,16.023z"/>
<path class="st8" d="M19.05,13.23c-0.012,0.034-0.021,0.061-0.004,0.09c0.016-0.001,0.033-0.028,0.047-0.01
	c-0.071,0.117-0.112,0.294-0.241,0.311c-0.025-0.009-0.037-0.038-0.044-0.07c0.008-0.022,0.023-0.072,0.015-0.106
	c0.058-0.024,0.03-0.147,0.094-0.184c-0.007,0.01,0.005,0.019,0.005,0.036c0.037-0.032,0.083-0.083,0.127-0.101L19.05,13.23z"/>
<path class="st8" d="M17.722,15.438c-0.086-0.028,0.006-0.133,0.023-0.181l0.076-0.064C17.82,15.284,17.798,15.394,17.722,15.438z"
	/>
<polygon class="st8" points="17.746,15.372 17.726,15.327 17.776,15.317 17.733,15.329 "/>
<path class="st8" d="M17.698,14.452c-0.021,0.042-0.056,0.088-0.092,0.086c-0.037-0.018-0.043-0.054-0.033-0.092
	c0.021-0.055,0.038-0.117,0.086-0.133C17.722,14.334,17.689,14.399,17.698,14.452z"/>
<path class="st8" d="M19.681,15.512c0.012,0.011,0.018,0,0.024-0.004c0.027,0.034-0.013,0.046-0.023,0.052
	c-0.025,0.103-0.035,0.231-0.139,0.275c-0.039-0.011-0.063-0.049-0.065-0.091l0.067-0.162l0.002,0.011
	c0.049-0.053,0.084-0.1,0.149-0.135C19.691,15.478,19.673,15.495,19.681,15.512z"/>
<path class="st8" d="M18.478,16.058c0.003,0.061-0.014,0.108-0.053,0.143c-0.016-0.005-0.039,0.011-0.042-0.018
	c-0.028-0.063,0.028-0.113,0.058-0.154C18.435,16.06,18.47,16.043,18.478,16.058z"/>
<polygon class="st8" points="18.435,16.109 18.453,16.062 18.458,16.066 "/>
<path class="st8" d="M20.083,16.076c-0.027,0.055-0.072,0.118-0.119,0.116c-0.05-0.024-0.06-0.074-0.046-0.126
	c0.027-0.072,0.054-0.155,0.113-0.174C20.114,15.919,20.069,16.005,20.083,16.076z"/>
<path class="st8" d="M18.387,10.996c0.023,0.048-0.001,0.138-0.038,0.189c-0.023,0.035-0.059,0.055-0.101,0.039
	c-0.046-0.021-0.053-0.073-0.056-0.118c0.009-0.048,0.044-0.064,0.033-0.111c0.057,0.074,0.059-0.101,0.097-0.017l0.025-0.024
	C18.341,10.979,18.364,11.004,18.387,10.996z"/>
<path class="st8" d="M17.446,14.489c0.002-0.004,0.009-0.004,0.01-0.01l0.006,0.029c0.031-0.004,0.004,0.042,0.019,0.051
	c-0.012,0.04-0.021,0.053-0.055,0.072c-0.029-0.002-0.027-0.014-0.055-0.019c0.006-0.028-0.051-0.025-0.024-0.067
	c-0.007-0.028,0.021-0.033,0.021-0.063c-0.003,0.018,0.017,0,0.026-0.007l0.01-0.013c0.006,0.022,0.021,0.012,0.037,0.003
	C17.433,14.475,17.445,14.482,17.446,14.489z"/>
<path class="st8" d="M24.53,15.755v-0.009c0,0.012,0.008,0.021,0.008,0.034c0.005-0.003,0.008-0.004,0.012-0.012l-0.003-0.006
	c0.004,0.008-0.009,0.024,0.007,0.027l0.004-0.003c-0.015,0.029,0.008,0.047-0.006,0.074c0.012,0.034-0.021,0.049-0.029,0.068
	c-0.008-0.004-0.016,0.005-0.024,0.007l-0.043-0.024c-0.003-0.016-0.009-0.025-0.016-0.041c-0.013,0.012-0.03,0.024-0.048,0.023
	c-0.028-0.002-0.018-0.04-0.031-0.059c0.011-0.01,0.01-0.03,0.01-0.046l-0.003-0.01c0.017,0.025,0.022-0.021,0.032-0.034
	l0.006-0.012c0,0.009-0.004,0.021,0.004,0.025l0.009-0.025c0,0.004-0.003,0.012,0,0.02l0.012-0.004
	c-0.004,0.005-0.001,0.009,0.002,0.013c0.001,0.005,0.007-0.001,0.009-0.002l0.002,0.014c0.008-0.004,0.016-0.013,0.025-0.003
	l0.016-0.032v0.014c0.007-0.001,0.011-0.005,0.014-0.015l-0.002-0.004l0.006,0.011l0.01-0.022
	C24.518,15.731,24.511,15.766,24.53,15.755z"/>
<path class="st8" d="M16.603,14.903c0.008-0.01-0.004,0.023,0.011,0.013c-0.005,0.019,0.013,0.024,0.009,0.038l0.004-0.002
	c-0.018,0.024,0.025,0.042-0.013,0.076c0.011,0.031-0.028,0.027-0.03,0.05c-0.033,0.012-0.047,0.007-0.07-0.02
	c-0.016-0.029-0.002-0.016-0.016-0.053l-0.004-0.017c0.023,0.002-0.016-0.037,0.014-0.036c0.002-0.016-0.002-0.028,0.007-0.043
	c0,0.008,0.004,0.01,0.007,0.011c0.012-0.004,0.012-0.019,0.017-0.027l0.006,0.009l0.016-0.017c0.001,0.005,0.003,0.008,0.008,0.012
	l0.007-0.015C16.593,14.88,16.579,14.92,16.603,14.903z"/>
<path class="st8" d="M24.757,15.254c0.001-0.001,0.002-0.003,0.004-0.003c-0.002,0.003,0,0.004-0.002,0.009l0.009-0.007
	c-0.002,0.007-0.001,0.012,0.003,0.018l0.002-0.002c0.003,0.018-0.002,0.033-0.01,0.045c-0.008,0.007-0.02,0.009-0.022,0.024
	c-0.004,0,0-0.009-0.005-0.005c-0.007,0.005-0.017,0.001-0.024,0.003c-0.002-0.015-0.008-0.016-0.014-0.021
	c-0.002-0.005,0.002-0.014-0.006-0.012l0.008-0.005c-0.002-0.007-0.008-0.005-0.012-0.009l0.01-0.006
	c-0.005-0.009,0.001-0.02,0-0.027c0.012-0.004,0.006-0.021,0.003-0.028c0.007-0.001,0.009,0.019,0.018,0.013
	c0-0.003-0.001-0.004,0.002-0.007c0.01-0.006,0.005,0.015,0.014,0.008l-0.004-0.023C24.739,15.236,24.739,15.252,24.757,15.254z"/>
<path class="st8" d="M17.378,13.372c-0.02,0.007-0.033,0.036-0.057,0.037c-0.029-0.009-0.076-0.025-0.069-0.104l0.066-0.179
	c0.014,0,0.014,0.015,0.021,0.025l0.061-0.055C17.474,13.176,17.408,13.288,17.378,13.372z"/>
<polygon class="st8" points="17.885,12.018 17.898,11.952 17.901,11.975 "/>
<path class="st8" d="M14.646,15.382c0.019,0.034,0.004,0.085-0.021,0.099c-0.023-0.022-0.06-0.021-0.045-0.065
	C14.583,15.359,14.621,15.396,14.646,15.382z"/>
<path class="st8" d="M21.385,12.467c-0.011,0.011-0.021,0.006-0.029,0.001l0.028-0.024C21.377,12.453,21.382,12.462,21.385,12.467z"
	/>
<path class="st8" d="M17.792,15.403c-0.02,0.02-0.029,0.05-0.062,0.057c-0.018-0.043-0.063-0.03-0.063-0.096
	C17.7,15.263,17.8,15.304,17.792,15.403z"/>
<path class="st8" d="M18.985,16.376c-0.005,0.056-0.048,0.017-0.069,0.028c-0.025-0.029-0.004-0.084,0.033-0.088
	C18.972,16.325,18.976,16.35,18.985,16.376z"/>
<path class="st8" d="M17.716,16.084c-0.02,0.023-0.041-0.01-0.061-0.02c-0.014-0.022,0.013-0.051,0.017-0.079
	C17.714,15.964,17.757,16.04,17.716,16.084z"/>
<path class="st8" d="M18.218,16.462c-0.029,0.029-0.07,0.015-0.08-0.021c0.016-0.028,0.016-0.072,0.051-0.062
	C18.235,16.383,18.205,16.433,18.218,16.462z"/>
<path class="st8" d="M17.745,16.24c-0.051,0.024-0.047,0.188-0.122,0.094c0.039-0.044,0.004-0.152,0.079-0.169
	C17.714,16.185,17.743,16.201,17.745,16.24z"/>
<polygon class="st8" points="20.679,13.058 20.693,13.067 20.675,13.114 20.66,13.105 "/>
<path class="st8" d="M20.314,13.662l-0.045-0.024c0.002-0.117,0.087-0.178,0.166-0.198C20.401,13.496,20.394,13.634,20.314,13.662z"
	/>
<path class="st8" d="M17.636,11.747c-0.018,0.019-0.032,0.05-0.06,0.056c-0.022-0.042-0.066-0.028-0.066-0.094
	C17.542,11.609,17.645,11.648,17.636,11.747z"/>
<path class="st8" d="M18.826,12.72c-0.004,0.057-0.047,0.018-0.069,0.029c-0.023-0.03-0.002-0.086,0.033-0.087
	C18.816,12.669,18.819,12.695,18.826,12.72z"/>
<path class="st8" d="M17.562,12.427c-0.023,0.026-0.045-0.007-0.064-0.019c-0.014-0.023,0.015-0.052,0.017-0.079
	C17.558,12.309,17.601,12.382,17.562,12.427z"/>
<path class="st8" d="M18.06,12.806c-0.027,0.028-0.068,0.015-0.079-0.019c0.017-0.028,0.015-0.074,0.05-0.062
	C18.077,12.728,18.047,12.779,18.06,12.806z"/>
<path class="st8" d="M17.588,12.584c-0.05,0.024-0.046,0.187-0.123,0.094c0.04-0.045,0.005-0.152,0.079-0.168
	C17.556,12.53,17.585,12.544,17.588,12.584z"/>
<path class="st8" d="M27.12,14.36c0.012,0.052-0.027,0.075-0.019,0.133c-0.079,0.036-0.12,0.006-0.162-0.054
	c-0.013-0.073,0.016-0.146,0.067-0.177C27.054,14.258,27.108,14.301,27.12,14.36z"/>
<path class="st8" d="M27.407,14.748c-0.031,0.041-0.06-0.006-0.092-0.014c-0.019-0.048-0.013-0.091,0.01-0.135
	C27.387,14.558,27.497,14.664,27.407,14.748z"/>
<path class="st8" d="M26.253,12.191c0.01-0.01,0.024-0.011,0.041-0.015c0.018,0.013,0.015,0.046,0.01,0.066
	c-0.024,0.058-0.07,0.086-0.107,0.101l0.003,0.012c0,0.012,0.002-0.019,0.001-0.029c-0.014-0.017-0.024,0.015-0.033,0.023
	C26.177,12.288,26.204,12.216,26.253,12.191z"/>
<path class="st8" d="M25.575,14.49c0.025-0.019,0.029,0.014,0.047,0.021c0.021,0.1-0.068,0.181-0.118,0.237
	c-0.054-0.019-0.031,0.081-0.086,0.082C25.464,14.716,25.466,14.566,25.575,14.49z"/>
<path class="st8" d="M25.624,14.26c0-0.052,0.041-0.064,0.043-0.121c0.084-0.013,0.117,0.027,0.146,0.1
	c-0.004,0.075-0.043,0.141-0.098,0.155C25.668,14.38,25.626,14.321,25.624,14.26z"/>
<path class="st8" d="M25.423,13.795c0.039-0.031,0.059,0.022,0.084,0.041c0.01,0.051-0.002,0.09-0.033,0.131
	C25.406,13.987,25.32,13.85,25.423,13.795z"/>
<path class="st8" d="M26.714,14.882c-0.025,0.022-0.049,0.018-0.069,0.001c-0.006-0.049-0.001-0.062,0.03-0.087
	C26.693,14.828,26.745,14.827,26.714,14.882z"/>
<polygon class="st8" points="25.502,15.305 25.543,15.275 25.536,15.323 "/>
<path class="st8" d="M29.076,14.289l0.013,0.036c0.024-0.004,0.02-0.036,0.029-0.053c0.041,0.092,0.006,0.177,0,0.289
	c-0.049,0.045-0.09,0.113-0.163,0.09c-0.064-0.016-0.044-0.096-0.064-0.144c-0.003-0.082,0.1-0.109,0.086-0.203l0.008,0.019
	l0.125-0.084C29.097,14.256,29.101,14.291,29.076,14.289z"/>
<path class="st8" d="M28.284,15.161c-0.029,0.066-0.049,0.159-0.122,0.154c-0.077-0.009-0.038-0.085-0.055-0.129
	c0.006-0.064,0.052-0.099,0.077-0.148c0.016,0.015,0.029,0.034,0.039,0.005C28.261,15.105,28.273,15.076,28.284,15.161z"/>
<path class="st8" d="M13.999,6.316c-0.037,0.038-0.061-0.012-0.091-0.024c-0.012-0.049-0.003-0.089,0.024-0.133
	C13.999,6.124,14.099,6.242,13.999,6.316z"/>
<path class="st8" d="M14.111,7.722c-0.054,0.034-0.114,0.101-0.17,0.049c-0.059-0.063,0.011-0.1,0.018-0.149
	c0.036-0.048,0.089-0.046,0.132-0.074c0.005,0.024,0.007,0.052,0.028,0.036C14.121,7.658,14.145,7.641,14.111,7.722z"/>
<path class="st8" d="M7.942,8.844C7.9,8.878,7.841,8.946,7.795,8.891C7.74,8.852,7.728,8.795,7.767,8.721
	C7.775,8.63,7.849,8.682,7.878,8.648C7.942,8.685,7.932,8.764,7.942,8.844z"/>
<path class="st8" d="M11.522,10.536c-0.023,0.017-0.037,0.046-0.067,0.049c-0.016-0.043-0.062-0.037-0.054-0.102
	C11.444,10.387,11.538,10.44,11.522,10.536z"/>
<path class="st8" d="M11.368,11.204c-0.024,0.022-0.043-0.014-0.059-0.026c-0.014-0.023,0.02-0.049,0.025-0.077
	C11.379,11.083,11.412,11.163,11.368,11.204z"/>
<path class="st8" d="M11.378,11.363c-0.051,0.017-0.066,0.18-0.132,0.079c0.044-0.04,0.023-0.15,0.1-0.159
	C11.353,11.304,11.38,11.324,11.378,11.363z"/>
<path class="st8" d="M9.166,5.724C9.13,5.785,9.101,5.875,9.027,5.863C8.95,5.845,8.999,5.775,8.988,5.729
	C9.004,5.666,9.051,5.638,9.081,5.59C9.094,5.605,9.107,5.626,9.12,5.602C9.151,5.665,9.165,5.636,9.166,5.724z"/>
<path class="st8" d="M13.697,9.882c-0.009,0.094-0.044,0.162-0.107,0.209c-0.023-0.01-0.063,0.013-0.063-0.032
	c-0.031-0.104,0.066-0.173,0.117-0.227C13.632,9.877,13.687,9.855,13.697,9.882z"/>
<polygon class="st8" points="13.622,9.951 13.655,9.884 13.663,9.891 "/>
<path class="st8" d="M9.665,5.662L9.663,5.679L9.657,5.674l-0.017,0.03L9.625,5.681l0.057-0.034
	C9.674,5.648,9.664,5.646,9.665,5.662z"/>
<path class="st8" d="M9.532,5.939c-0.04-0.022-0.012-0.09-0.015-0.107l0.077-0.115l0.014,0.053c-0.043-0.061-0.066,0.028-0.077,0.04
	c0.015,0.016,0.012,0.052,0.037,0.057c0.078,0.006,0.064-0.093,0.082-0.123l0.003,0.016l0.052-0.069
	C9.675,5.794,9.651,5.941,9.532,5.939z"/>
<polygon class="st8" points="12.204,9.499 12.23,9.367 12.242,9.376 12.242,9.339 12.267,9.355 "/>
<path class="st8" d="M8.259,9.595c0.014-0.022,0.036-0.044,0.062-0.042C8.319,9.592,8.353,9.621,8.326,9.658
	C8.286,9.706,8.253,9.637,8.259,9.595z"/>
<path class="st8" d="M7.749,8.758c0.046-0.02,0.117-0.068,0.147,0C7.94,8.812,7.942,8.871,7.89,8.934
	c-0.025,0.085-0.082,0.014-0.119,0.04C7.718,8.916,7.743,8.841,7.749,8.758z"/>
<path class="st8" d="M8.192,9.357c0.013-0.015,0.021-0.034,0.04-0.03c0.018,0.023,0.029,0.046,0.023,0.078
	C8.227,9.44,8.168,9.404,8.192,9.357z"/>
<path class="st8" d="M8.454,5.523c0.023-0.012,0.045-0.036,0.074-0.03c0.007,0.05,0.049,0.056,0.029,0.116
	C8.498,5.691,8.418,5.613,8.454,5.523z"/>
<path class="st8" d="M14.274,6.038l-0.001-0.021c-0.012-0.003-0.015,0.016-0.023,0.021c-0.004-0.057,0.028-0.092,0.045-0.148
	c0.033-0.011,0.066-0.038,0.098-0.01c0.028,0.02,0.007,0.058,0.009,0.088c-0.013,0.044-0.067,0.034-0.075,0.084l-0.002-0.01
	l-0.075,0.015C14.257,6.051,14.26,6.031,14.274,6.038z"/>
<path class="st8" d="M9.198,8.927C9.183,8.905,9.156,8.92,9.136,8.915l0.014,0.01L9.136,8.948l-0.013-0.01
	c0.013-0.01,0.007-0.02,0.004-0.028C9.084,8.917,9.055,8.954,9.083,8.997C9.151,8.897,9.169,9.052,9.225,9.01
	C9.203,9.087,9.151,9.255,9.038,9.218C9.006,9.192,8.998,9.13,8.997,9.085c0.035-0.044,0.048-0.127,0.068-0.188
	C9.062,8.908,9.05,8.918,9.057,8.935L9.07,8.944l0.052-0.08c0.007,0.021,0.043,0.013,0.041,0.053l0.055-0.05
	C9.212,8.889,9.185,8.909,9.198,8.927z"/>
<polygon class="st8" points="10.818,9.038 10.823,9.027 10.86,9.052 "/>
<path class="st8" d="M33.332,10.777c-0.038,0.037-0.061-0.011-0.091-0.023c-0.012-0.049-0.003-0.089,0.023-0.133
	C33.331,10.585,33.432,10.704,33.332,10.777z"/>
<path class="st8" d="M33.444,12.184c-0.055,0.033-0.115,0.101-0.17,0.049c-0.059-0.063,0.01-0.101,0.019-0.149
	c0.036-0.049,0.089-0.046,0.132-0.074c0.004,0.024,0.007,0.051,0.027,0.035C33.454,12.119,33.477,12.103,33.444,12.184z"/>
<path class="st8" d="M27.274,13.305c-0.042,0.034-0.1,0.103-0.145,0.047c-0.055-0.039-0.067-0.095-0.028-0.169
	c0.009-0.091,0.082-0.04,0.11-0.074C27.275,13.147,27.264,13.225,27.274,13.305z"/>
<path class="st8" d="M30.538,8.897c-0.009,0.011-0.02,0.003-0.027-0.004l0.03-0.021C30.533,8.879,30.537,8.889,30.538,8.897z"/>
<path class="st8" d="M28.499,10.185c-0.037,0.061-0.065,0.152-0.139,0.14c-0.078-0.019-0.028-0.088-0.039-0.134
	c0.016-0.063,0.062-0.092,0.092-0.14c0.014,0.016,0.026,0.036,0.039,0.012C28.484,10.126,28.498,10.097,28.499,10.185z"/>
<path class="st8" d="M28.154,9.238c-0.009,0.025-0.028,0.05-0.055,0.057c-0.005-0.037-0.044-0.055-0.024-0.096
	C28.106,9.141,28.151,9.195,28.154,9.238z"/>
<path class="st8" d="M28.823,9.875c-0.042,0.034-0.101,0.104-0.146,0.048c-0.054-0.037-0.066-0.096-0.027-0.17
	c0.008-0.089,0.078-0.038,0.108-0.07C28.824,9.72,28.816,9.8,28.823,9.875z"/>
<path class="st8" d="M28.266,9.442c-0.008,0.017-0.013,0.04-0.031,0.041c-0.024-0.015-0.039-0.035-0.039-0.066
	C28.215,9.375,28.28,9.391,28.266,9.442z"/>
<path class="st8" d="M28.997,10.122l-0.001,0.019l-0.007-0.006l-0.017,0.031l-0.015-0.024l0.057-0.034
	C29.007,10.109,28.997,10.107,28.997,10.122z"/>
<path class="st8" d="M28.864,10.4c-0.039-0.022-0.012-0.09-0.014-0.108l0.076-0.115l0.014,0.054
	c-0.042-0.061-0.066,0.028-0.077,0.04c0.015,0.016,0.013,0.051,0.037,0.056c0.079,0.007,0.065-0.093,0.082-0.122l0.003,0.015
	l0.053-0.069C29.008,10.255,28.984,10.402,28.864,10.4z"/>
<polygon class="st8" points="27.941,7.438 27.991,7.389 27.957,7.433 "/>
<polygon class="st8" points="27.856,7.53 27.888,7.467 27.918,7.508 "/>
<polygon class="st8" points="31.537,13.96 31.562,13.829 31.575,13.838 31.575,13.801 31.6,13.817 "/>
<path class="st8" d="M24.484,10.034c-0.006,0.028-0.027,0.053-0.053,0.059c-0.006-0.037-0.045-0.058-0.023-0.097
	C24.438,9.937,24.482,9.991,24.484,10.034z"/>
<path class="st8" d="M24.599,10.241c-0.011,0.018-0.016,0.039-0.033,0.04c-0.023-0.016-0.039-0.034-0.039-0.067
	C24.546,10.173,24.612,10.187,24.599,10.241z"/>
<path class="st8" d="M27.081,13.22c0.047-0.02,0.117-0.069,0.148,0c0.043,0.053,0.045,0.113-0.007,0.176
	c-0.024,0.084-0.082,0.013-0.118,0.039C27.05,13.377,27.075,13.302,27.081,13.22z"/>
<path class="st8" d="M27.786,9.985c0.024-0.013,0.045-0.037,0.074-0.03c0.007,0.05,0.05,0.055,0.029,0.116
	C27.831,10.152,27.751,10.075,27.786,9.985z"/>
<path class="st8" d="M28.064,9.367c0.026-0.018,0.036,0.024,0.05,0.043c0.009,0.025-0.028,0.045-0.038,0.069
	C28.029,9.479,28.013,9.392,28.064,9.367z"/>
<path class="st8" d="M28.083,9.205c0.055-0.002,0.1-0.158,0.141-0.039c-0.049,0.027-0.049,0.142-0.124,0.128
	C28.097,9.27,28.074,9.246,28.083,9.205z"/>
<path class="st8" d="M33.607,10.5l-0.001-0.021c-0.013-0.003-0.015,0.015-0.023,0.019c-0.004-0.057,0.028-0.091,0.045-0.148
	c0.033-0.011,0.066-0.037,0.097-0.009c0.029,0.021,0.008,0.059,0.01,0.088c-0.014,0.043-0.068,0.034-0.075,0.084l-0.003-0.012
	l-0.074,0.017C33.589,10.513,33.593,10.493,33.607,10.5z"/>
<path class="st8" d="M27.069,7.487C27.04,7.504,27.021,7.497,27,7.479c-0.001-0.05,0.007-0.062,0.042-0.083
	C27.054,7.429,27.108,7.433,27.069,7.487z"/>
<path class="st8" d="M26.193,6.319c0.003,0.106-0.072,0.244-0.147,0.31c-0.041,0.02-0.102,0.045-0.1-0.031
	c0.016-0.093,0.045-0.206,0.111-0.277c0.062,0.011,0.09-0.08,0.133-0.119C26.212,6.231,26.109,6.325,26.193,6.319z"/>
<polygon class="st8" points="25.607,6.67 25.561,6.68 25.58,6.638 "/>
<path class="st8" d="M25.557,6.422c-0.032,0.026-0.068,0.007-0.077-0.029c0.02-0.025,0.023-0.07,0.059-0.055
	C25.582,6.345,25.547,6.393,25.557,6.422z"/>
<path class="st8" d="M28.53,13.389c-0.016-0.022-0.042-0.007-0.062-0.012l0.014,0.009l-0.013,0.022L28.456,13.4
	c0.012-0.011,0.006-0.021,0.004-0.028c-0.043,0.008-0.072,0.044-0.045,0.088c0.068-0.101,0.087,0.054,0.143,0.012
	c-0.022,0.078-0.074,0.246-0.188,0.208c-0.031-0.025-0.039-0.087-0.04-0.132c0.034-0.044,0.048-0.127,0.067-0.189
	c-0.003,0.011-0.015,0.021-0.009,0.038l0.015,0.008l0.051-0.079c0.008,0.021,0.045,0.012,0.041,0.053l0.055-0.05
	C28.545,13.35,28.517,13.37,28.53,13.389z"/>
<path class="st8" d="M28.528,7.856c-0.008,0.096-0.043,0.164-0.107,0.212c-0.023-0.011-0.063,0.012-0.062-0.034
	c-0.034-0.102,0.062-0.169,0.116-0.227C28.462,7.854,28.518,7.832,28.528,7.856z"/>
<polygon class="st8" points="28.454,7.926 28.485,7.86 28.495,7.867 "/>
<path class="st8" d="M9.12,16.983c-0.008,0.01-0.019,0.004-0.026-0.004l0.03-0.021C9.116,16.966,9.12,16.975,9.12,16.983z"/>
<path class="st8" d="M7.082,18.271c-0.037,0.061-0.065,0.151-0.14,0.139c-0.076-0.018-0.027-0.088-0.038-0.134
	c0.016-0.062,0.062-0.091,0.093-0.138c0.013,0.015,0.025,0.036,0.039,0.012C7.067,18.212,7.081,18.183,7.082,18.271z"/>
<path class="st8" d="M6.737,17.325c-0.008,0.024-0.028,0.05-0.055,0.055c-0.006-0.036-0.045-0.054-0.024-0.096
	C6.689,17.226,6.734,17.281,6.737,17.325z"/>
<path class="st8" d="M7.405,17.962c-0.041,0.034-0.101,0.103-0.146,0.047c-0.054-0.037-0.065-0.096-0.027-0.171
	c0.009-0.088,0.078-0.037,0.108-0.069C7.407,17.805,7.398,17.886,7.405,17.962z"/>
<path class="st8" d="M6.849,17.529c-0.008,0.017-0.014,0.039-0.031,0.04c-0.025-0.015-0.039-0.035-0.039-0.066
	C6.798,17.461,6.863,17.477,6.849,17.529z"/>
<path class="st8" d="M7.58,18.208l-0.001,0.018l-0.006-0.006l-0.018,0.031L7.54,18.229l0.058-0.034
	C7.589,18.196,7.58,18.193,7.58,18.208z"/>
<path class="st8" d="M7.447,18.487c-0.04-0.023-0.011-0.091-0.013-0.108l0.076-0.115l0.014,0.054
	c-0.043-0.062-0.066,0.029-0.077,0.04c0.014,0.015,0.012,0.052,0.036,0.056c0.079,0.008,0.065-0.092,0.082-0.122l0.004,0.015
	l0.052-0.068C7.591,18.341,7.567,18.488,7.447,18.487z"/>
<polygon class="st8" points="6.524,15.523 6.575,15.475 6.54,15.519 "/>
<polygon class="st8" points="6.439,15.615 6.47,15.554 6.501,15.595 "/>
<path class="st8" d="M6.37,18.071c0.023-0.012,0.045-0.037,0.074-0.03c0.006,0.049,0.049,0.056,0.028,0.117
	C6.414,18.238,6.334,18.161,6.37,18.071z"/>
<path class="st8" d="M6.647,17.452c0.026-0.017,0.036,0.025,0.051,0.044c0.007,0.025-0.029,0.045-0.039,0.068
	C6.612,17.565,6.596,17.479,6.647,17.452z"/>
<path class="st8" d="M6.666,17.291c0.055-0.003,0.099-0.158,0.141-0.04c-0.05,0.028-0.048,0.142-0.124,0.128
	C6.68,17.356,6.657,17.331,6.666,17.291z"/>
<path class="st8" d="M5.651,15.572c-0.028,0.02-0.049,0.012-0.068-0.007c0-0.05,0.007-0.062,0.042-0.083
	C5.638,15.515,5.691,15.518,5.651,15.572z"/>
<path class="st8" d="M4.776,14.405c0.003,0.106-0.072,0.243-0.148,0.309c-0.039,0.021-0.101,0.046-0.099-0.029
	c0.017-0.093,0.044-0.208,0.11-0.278c0.062,0.011,0.09-0.08,0.133-0.119C4.795,14.317,4.692,14.41,4.776,14.405z"/>
<polygon class="st8" points="4.191,14.755 4.144,14.767 4.163,14.725 "/>
<path class="st8" d="M4.14,14.508c-0.031,0.026-0.068,0.006-0.076-0.029c0.018-0.025,0.022-0.07,0.059-0.054
	C4.165,14.431,4.13,14.479,4.14,14.508z"/>
<path class="st8" d="M7.11,15.942c-0.007,0.096-0.043,0.164-0.107,0.213c-0.021-0.012-0.062,0.011-0.062-0.034
	c-0.034-0.104,0.062-0.17,0.116-0.229C7.044,15.939,7.101,15.917,7.11,15.942z"/>
<polygon class="st8" points="7.037,16.013 7.069,15.946 7.079,15.953 "/>
<polygon class="st8" points="30.151,13.5 30.155,13.489 30.193,13.514 "/>
<path class="st8" d="M40.153,31.281c-0.022,0.024-0.033-0.002-0.051-0.006c-0.041-0.088,0.034-0.196,0.07-0.263
	c0.055,0.001,0.015-0.088,0.068-0.104C40.218,31.028,40.243,31.175,40.153,31.281z"/>
<path class="st8" d="M39.419,32.339c0.01,0.01,0.017-0.001,0.024-0.006c0.024,0.031-0.014,0.042-0.023,0.047
	c-0.024,0.094-0.033,0.211-0.136,0.253c-0.035-0.007-0.058-0.045-0.059-0.081l0.066-0.145l0.001,0.009
	c0.046-0.052,0.08-0.091,0.14-0.126C39.429,32.309,39.413,32.324,39.419,32.339z"/>
<path class="st8" d="M36.83,32.03c-0.008,0.018-0.011,0.039-0.028,0.044c-0.024-0.015-0.041-0.03-0.047-0.062
	C36.773,31.967,36.839,31.975,36.83,32.03z"/>
<path class="st8" d="M31.235,32.342c-0.049,0.087-0.023,0.241-0.122,0.295c-0.047,0.003-0.062-0.066-0.047-0.106
	c0.025-0.097,0.106-0.123,0.153-0.196L31.235,32.342z"/>
<path class="st8" d="M39.599,31.119c-0.025,0.024-0.047,0.021-0.069,0.002c-0.005-0.049,0-0.061,0.034-0.087
	C39.58,31.066,39.634,31.066,39.599,31.119z"/>
<path class="st8" d="M39.52,33.944l-0.044-0.024c0-0.115,0.088-0.18,0.165-0.198C39.61,33.78,39.6,33.919,39.52,33.944z"/>
<polygon class="st8" points="37.872,33.362 37.913,33.333 37.907,33.38 "/>
<path class="st8" d="M37.618,33.827c-0.021,0.019-0.049,0.032-0.076,0.047c-0.036-0.014-0.042-0.073-0.04-0.112
	c0.022-0.119,0.097-0.196,0.162-0.249l-0.009-0.019c-0.002-0.025,0.003,0.037,0.009,0.056c0.031,0.023,0.036-0.04,0.051-0.062
	C37.719,33.603,37.697,33.753,37.618,33.827z"/>
<path class="st8" d="M37.599,33.689l0.03-0.018c-0.026-0.053,0.005,0.001,0.017-0.042C37.595,33.671,37.672,33.664,37.599,33.689z"
	/>
<path class="st8" d="M32.069,31.666c-0.027,0.021-0.048,0.018-0.07-0.001c-0.005-0.047-0.001-0.061,0.033-0.086
	C32.05,31.609,32.101,31.609,32.069,31.666z"/>
<path class="st8" d="M35.523,32.022c-0.017,0.02-0.047,0.033-0.074,0.049c-0.037-0.013-0.043-0.075-0.041-0.112
	c0.023-0.12,0.099-0.197,0.162-0.25l-0.01-0.02c-0.002-0.023,0.003,0.039,0.009,0.055c0.032,0.026,0.038-0.036,0.052-0.058
	C35.624,31.797,35.604,31.947,35.523,32.022z"/>
<polygon class="st8" points="34.925,31.757 34.903,31.76 34.907,31.749 "/>
<path class="st8" d="M37.558,32.911v-0.01c0.001,0.012,0.008,0.022,0.008,0.034c0.006-0.002,0.009-0.003,0.012-0.011l-0.002-0.006
	c0.004,0.007-0.009,0.024,0.007,0.026l0.003-0.003c-0.014,0.029,0.008,0.047-0.005,0.075c0.011,0.033-0.022,0.049-0.029,0.068
	c-0.008-0.004-0.017,0.005-0.025,0.006l-0.043-0.024c-0.003-0.016-0.01-0.025-0.016-0.041c-0.013,0.013-0.03,0.025-0.049,0.023
	c-0.027-0.003-0.018-0.041-0.03-0.059c0.011-0.01,0.01-0.03,0.01-0.046l-0.003-0.011c0.016,0.025,0.022-0.021,0.032-0.034
	l0.005-0.012c0.001,0.01-0.003,0.021,0.005,0.025l0.009-0.025c0,0.005-0.003,0.012,0,0.021l0.012-0.004
	c-0.004,0.005-0.001,0.008,0.002,0.012c0.001,0.005,0.006,0,0.009-0.001l0.002,0.014c0.008-0.004,0.015-0.014,0.024-0.004
	l0.017-0.032l-0.001,0.015c0.007-0.002,0.012-0.005,0.014-0.016l-0.001-0.004l0.005,0.012l0.01-0.021
	C37.546,32.886,37.539,32.92,37.558,32.911z"/>
<path class="st8" d="M37.785,32.409c0.001-0.001,0.001-0.002,0.003-0.003c-0.001,0.004,0,0.004-0.001,0.01l0.009-0.008
	c-0.003,0.008-0.001,0.013,0.002,0.019l0.002-0.002c0.004,0.018-0.002,0.033-0.009,0.044c-0.009,0.007-0.02,0.01-0.022,0.023
	c-0.004,0.001,0.001-0.008-0.005-0.004c-0.006,0.004-0.017,0-0.024,0.003c-0.001-0.016-0.008-0.016-0.013-0.021
	c-0.003-0.006,0.002-0.015-0.006-0.012l0.007-0.006c-0.002-0.007-0.008-0.005-0.011-0.009l0.009-0.005
	c-0.004-0.009,0.002-0.021,0.001-0.027c0.011-0.005,0.005-0.022,0.003-0.028c0.006-0.001,0.009,0.019,0.019,0.013
	c0-0.004-0.001-0.004,0.001-0.007c0.01-0.006,0.006,0.015,0.014,0.008l-0.004-0.024C37.767,32.391,37.768,32.408,37.785,32.409z"/>
<path class="st8" d="M40.149,31.515c0.011,0.051-0.027,0.074-0.018,0.132c-0.08,0.037-0.121,0.007-0.162-0.054
	c-0.013-0.072,0.016-0.146,0.066-0.177C40.082,31.413,40.136,31.456,40.149,31.515z"/>
<path class="st8" d="M40.436,31.904c-0.032,0.041-0.061-0.007-0.093-0.015c-0.018-0.048-0.013-0.09,0.01-0.135
	C40.415,31.712,40.526,31.82,40.436,31.904z"/>
<path class="st8" d="M30.668,31.788c0.011-0.009,0.024-0.01,0.042-0.014c0.018,0.013,0.014,0.046,0.009,0.065
	c-0.024,0.057-0.069,0.085-0.107,0.102l0.003,0.012c0,0.011,0.003-0.02,0.001-0.03c-0.013-0.018-0.022,0.015-0.033,0.022
	C30.593,31.887,30.619,31.814,30.668,31.788z"/>
<path class="st8" d="M38.603,31.644c0.025-0.019,0.03,0.014,0.047,0.021c0.023,0.099-0.068,0.181-0.117,0.236
	c-0.055-0.018-0.031,0.082-0.086,0.082C38.491,31.871,38.494,31.72,38.603,31.644z"/>
<path class="st8" d="M38.652,31.415c0-0.052,0.04-0.064,0.043-0.121c0.084-0.013,0.117,0.027,0.146,0.1
	c-0.003,0.075-0.043,0.14-0.098,0.155C38.696,31.535,38.654,31.475,38.652,31.415z"/>
<path class="st8" d="M38.45,30.951c0.039-0.031,0.059,0.021,0.085,0.041c0.009,0.05-0.003,0.09-0.034,0.13
	C38.435,31.141,38.349,31.004,38.45,30.951z"/>
<path class="st8" d="M39.742,32.037c-0.026,0.022-0.049,0.018-0.07,0.001c-0.005-0.049,0-0.061,0.031-0.087
	C39.72,31.983,39.774,31.982,39.742,32.037z"/>
<polygon class="st8" points="38.53,32.46 38.571,32.43 38.564,32.478 "/>
<path class="st8" d="M42.105,31.445l0.012,0.036c0.023-0.004,0.02-0.036,0.03-0.054c0.041,0.092,0.005,0.177,0,0.289
	c-0.049,0.046-0.091,0.113-0.163,0.09c-0.063-0.016-0.045-0.096-0.064-0.145c-0.002-0.081,0.1-0.108,0.086-0.202l0.009,0.019
	l0.125-0.084C42.125,31.412,42.128,31.447,42.105,31.445z"/>
<path class="st8" d="M41.312,32.316c-0.029,0.066-0.049,0.159-0.121,0.154c-0.078-0.01-0.039-0.085-0.055-0.129
	c0.006-0.065,0.052-0.1,0.077-0.148c0.015,0.015,0.028,0.033,0.039,0.004C41.289,32.259,41.301,32.23,41.312,32.316z"/>
<path class="st8" d="M37.747,30.375c-0.037,0.037-0.061-0.012-0.09-0.024c-0.012-0.049-0.004-0.088,0.023-0.133
	C37.747,30.184,37.847,30.301,37.747,30.375z"/>
<path class="st8" d="M37.86,31.782c-0.054,0.034-0.114,0.102-0.169,0.049c-0.06-0.064,0.01-0.101,0.018-0.149
	c0.036-0.048,0.089-0.046,0.133-0.073c0.004,0.023,0.006,0.051,0.027,0.034C37.869,31.717,37.892,31.701,37.86,31.782z"/>
<path class="st8" d="M40.301,30.46c-0.042,0.033-0.1,0.102-0.146,0.047c-0.055-0.039-0.067-0.096-0.027-0.17
	c0.008-0.09,0.082-0.039,0.11-0.073C40.302,30.301,40.292,30.38,40.301,30.46z"/>
<path class="st8" d="M34.953,28.496c-0.009,0.01-0.019,0.003-0.027-0.004l0.03-0.021C34.948,28.478,34.952,28.488,34.953,28.496z"/>
<path class="st8" d="M32.915,29.784c-0.037,0.062-0.066,0.151-0.14,0.139c-0.077-0.018-0.028-0.088-0.039-0.134
	c0.017-0.063,0.062-0.092,0.093-0.139c0.014,0.016,0.025,0.036,0.039,0.012C32.9,29.725,32.913,29.696,32.915,29.784z"/>
<path class="st8" d="M32.569,28.836c-0.008,0.025-0.027,0.05-0.055,0.056c-0.005-0.037-0.044-0.054-0.023-0.096
	C32.522,28.739,32.566,28.792,32.569,28.836z"/>
<path class="st8" d="M33.238,29.474c-0.041,0.034-0.101,0.103-0.146,0.047c-0.055-0.037-0.067-0.096-0.027-0.17
	c0.008-0.088,0.077-0.038,0.107-0.07C33.239,29.318,33.231,29.398,33.238,29.474z"/>
<path class="st8" d="M32.681,29.04c-0.008,0.018-0.013,0.039-0.031,0.041c-0.023-0.015-0.039-0.035-0.039-0.067
	C32.63,28.974,32.696,28.989,32.681,29.04z"/>
<path class="st8" d="M33.413,29.721l-0.002,0.018l-0.006-0.005l-0.018,0.03l-0.015-0.022l0.058-0.035
	C33.422,29.707,33.413,29.704,33.413,29.721z"/>
<path class="st8" d="M33.28,29.998c-0.04-0.022-0.012-0.09-0.014-0.107l0.076-0.116l0.014,0.055
	c-0.043-0.062-0.066,0.028-0.077,0.039c0.014,0.016,0.013,0.052,0.036,0.057c0.08,0.007,0.066-0.093,0.082-0.123l0.004,0.015
	l0.053-0.068C33.423,29.854,33.4,30,33.28,29.998z"/>
<polygon class="st8" points="32.356,27.036 32.407,26.988 32.372,27.031 "/>
<polygon class="st8" points="32.271,27.127 32.303,27.066 32.334,27.107 "/>
<polygon class="st8" points="44.566,31.115 44.59,30.984 44.603,30.993 44.603,30.956 44.628,30.972 "/>
<path class="st8" d="M28.9,29.632c-0.007,0.027-0.027,0.052-0.054,0.058c-0.005-0.036-0.044-0.057-0.024-0.097
	C28.853,29.535,28.898,29.588,28.9,29.632z"/>
<path class="st8" d="M29.014,29.838c-0.011,0.018-0.015,0.04-0.033,0.041c-0.022-0.017-0.038-0.035-0.039-0.067
	C28.962,29.771,29.027,29.785,29.014,29.838z"/>
<path class="st8" d="M40.11,30.374c0.046-0.02,0.116-0.068,0.147,0c0.043,0.054,0.044,0.113-0.007,0.176
	c-0.025,0.085-0.083,0.014-0.118,0.039C40.078,30.533,40.103,30.457,40.11,30.374z"/>
<path class="st8" d="M32.202,29.583c0.024-0.013,0.045-0.037,0.074-0.031c0.006,0.05,0.049,0.056,0.029,0.117
	C32.247,29.75,32.167,29.672,32.202,29.583z"/>
<path class="st8" d="M32.48,28.964c0.025-0.018,0.035,0.024,0.05,0.044c0.008,0.025-0.028,0.044-0.038,0.068
	C32.444,29.077,32.429,28.991,32.48,28.964z"/>
<path class="st8" d="M32.499,28.804c0.055-0.003,0.099-0.158,0.14-0.04c-0.049,0.027-0.048,0.142-0.124,0.128
	C32.513,28.868,32.489,28.843,32.499,28.804z"/>
<path class="st8" d="M38.023,30.099l-0.001-0.022c-0.013-0.002-0.015,0.016-0.024,0.02c-0.004-0.056,0.029-0.091,0.045-0.147
	c0.033-0.011,0.066-0.037,0.097-0.01c0.029,0.02,0.009,0.059,0.01,0.088c-0.013,0.044-0.067,0.035-0.075,0.085L38.071,30.1
	l-0.074,0.017C38.005,30.112,38.009,30.091,38.023,30.099z"/>
<path class="st8" d="M31.485,27.084c-0.029,0.019-0.049,0.012-0.069-0.008c0-0.05,0.007-0.062,0.043-0.083
	C31.47,27.027,31.523,27.031,31.485,27.084z"/>
<path class="st8" d="M30.609,25.916c0.004,0.105-0.072,0.244-0.148,0.31c-0.04,0.021-0.101,0.045-0.1-0.03
	c0.017-0.093,0.045-0.207,0.111-0.278c0.062,0.012,0.09-0.08,0.133-0.119C30.628,25.829,30.525,25.922,30.609,25.916z"/>
<polygon class="st8" points="30.023,26.268 29.976,26.279 29.995,26.237 "/>
<path class="st8" d="M29.972,26.021c-0.031,0.025-0.068,0.006-0.076-0.029c0.02-0.025,0.022-0.07,0.059-0.055
	C29.997,25.943,29.962,25.992,29.972,26.021z"/>
<path class="st8" d="M41.558,30.544c-0.016-0.023-0.041-0.008-0.062-0.012l0.014,0.009l-0.012,0.022l-0.014-0.01
	c0.012-0.01,0.007-0.021,0.004-0.028c-0.043,0.008-0.072,0.045-0.044,0.088c0.068-0.101,0.087,0.055,0.142,0.013
	c-0.021,0.078-0.074,0.245-0.188,0.208c-0.031-0.026-0.039-0.088-0.039-0.132c0.033-0.044,0.047-0.128,0.067-0.189
	c-0.004,0.012-0.015,0.021-0.009,0.038l0.014,0.008l0.052-0.079c0.007,0.021,0.044,0.013,0.041,0.054l0.054-0.05
	C41.573,30.505,41.545,30.525,41.558,30.544z"/>
<path class="st8" d="M32.943,27.454c-0.007,0.096-0.043,0.163-0.107,0.212c-0.022-0.012-0.063,0.011-0.062-0.034
	c-0.035-0.103,0.062-0.17,0.115-0.228C32.877,27.452,32.933,27.43,32.943,27.454z"/>
<polygon class="st8" points="32.87,27.525 32.901,27.458 32.911,27.464 "/>
<polygon class="st8" points="43.179,30.655 43.184,30.643 43.221,30.669 "/>
<path class="st8" d="M17.96,28.008c-0.023,0.022-0.034-0.003-0.051-0.007c-0.041-0.088,0.033-0.196,0.07-0.263
	c0.055,0.002,0.014-0.088,0.067-0.104C18.025,27.754,18.05,27.902,17.96,28.008z"/>
<path class="st8" d="M17.226,29.067c0.01,0.009,0.016-0.001,0.023-0.006c0.025,0.031-0.014,0.042-0.023,0.047
	c-0.024,0.093-0.033,0.21-0.135,0.252c-0.035-0.006-0.059-0.044-0.059-0.08l0.066-0.146l0.001,0.01
	c0.046-0.052,0.079-0.092,0.139-0.127C17.235,29.036,17.219,29.05,17.226,29.067z"/>
<path class="st8" d="M14.637,28.756c-0.009,0.019-0.011,0.04-0.028,0.044c-0.025-0.014-0.041-0.029-0.047-0.062
	C14.579,28.695,14.646,28.702,14.637,28.756z"/>
<path class="st8" d="M17.653,26.625c-0.049,0.088-0.023,0.242-0.121,0.296c-0.047,0.003-0.062-0.066-0.047-0.107
	c0.025-0.097,0.106-0.123,0.153-0.196L17.653,26.625z"/>
<path class="st8" d="M17.405,27.846c-0.025,0.024-0.047,0.021-0.07,0.001c-0.004-0.048,0-0.059,0.035-0.086
	C17.386,27.792,17.441,27.792,17.405,27.846z"/>
<path class="st8" d="M17.325,30.671l-0.044-0.025c0-0.115,0.088-0.179,0.166-0.197C17.415,30.506,17.405,30.646,17.325,30.671z"/>
<polygon class="st8" points="15.678,30.088 15.719,30.06 15.713,30.108 "/>
<path class="st8" d="M15.424,30.554c-0.019,0.017-0.048,0.032-0.076,0.046c-0.036-0.013-0.042-0.073-0.04-0.112
	c0.023-0.119,0.098-0.196,0.162-0.249l-0.008-0.018c-0.003-0.025,0.002,0.037,0.008,0.055c0.031,0.024,0.037-0.039,0.051-0.06
	C15.525,30.329,15.503,30.48,15.424,30.554z"/>
<path class="st8" d="M15.404,30.416l0.03-0.02c-0.026-0.052,0.006,0.002,0.017-0.042C15.401,30.399,15.479,30.392,15.404,30.416z"/>
<path class="st8" d="M18.487,25.95c-0.027,0.021-0.047,0.018-0.069-0.001c-0.005-0.047-0.001-0.061,0.032-0.086
	C18.468,25.892,18.519,25.893,18.487,25.95z"/>
<path class="st8" d="M21.942,26.305c-0.019,0.021-0.047,0.033-0.075,0.049c-0.036-0.012-0.043-0.075-0.041-0.111
	c0.023-0.12,0.1-0.197,0.163-0.25l-0.01-0.021c-0.003-0.023,0.002,0.039,0.009,0.056c0.031,0.026,0.037-0.037,0.051-0.058
	C22.042,26.081,22.023,26.231,21.942,26.305z"/>
<polygon class="st8" points="21.343,26.041 21.322,26.044 21.326,26.033 "/>
<path class="st8" d="M8.685,23.077c-0.025,0.027-0.053,0.073-0.08,0.034c-0.045-0.086,0.041-0.169,0.068-0.225l0.005-0.017
	c0.003,0.021,0.024,0.005,0.03,0.026c0.013-0.079,0.059-0.001,0.072-0.074C8.77,22.919,8.738,23.001,8.685,23.077z"/>
<path class="st8" d="M15.363,29.638l0.001-0.01c0,0.012,0.008,0.021,0.008,0.034c0.006-0.003,0.008-0.004,0.012-0.012l-0.003-0.005
	c0.005,0.007-0.009,0.024,0.007,0.025l0.004-0.002c-0.014,0.029,0.008,0.047-0.006,0.074c0.012,0.034-0.021,0.049-0.029,0.069
	c-0.008-0.005-0.016,0.004-0.024,0.005l-0.043-0.023c-0.003-0.016-0.009-0.026-0.016-0.041c-0.013,0.013-0.03,0.025-0.048,0.022
	c-0.028-0.003-0.018-0.04-0.031-0.059c0.011-0.009,0.01-0.029,0.01-0.046l-0.003-0.01c0.017,0.025,0.022-0.022,0.032-0.035
	l0.005-0.011c0.001,0.01-0.003,0.021,0.005,0.025l0.009-0.026c0.001,0.006-0.003,0.013,0.001,0.021l0.011-0.004
	c-0.004,0.006-0.001,0.009,0.002,0.012c0.001,0.005,0.007,0,0.009-0.001l0.002,0.014c0.008-0.004,0.016-0.014,0.024-0.004
	l0.017-0.031v0.014c0.007-0.001,0.011-0.005,0.013-0.015l-0.001-0.004l0.006,0.011l0.01-0.022
	C15.353,29.613,15.345,29.647,15.363,29.638z"/>
<path class="st8" d="M15.591,29.136c0.001-0.002,0.002-0.003,0.004-0.003c-0.002,0.004,0,0.004-0.002,0.009l0.01-0.008
	c-0.003,0.008-0.002,0.013,0.002,0.02l0.002-0.003c0.003,0.018-0.002,0.033-0.01,0.045c-0.008,0.006-0.02,0.009-0.022,0.022
	c-0.004,0.002,0-0.008-0.005-0.004c-0.007,0.005-0.017,0.001-0.024,0.003c-0.002-0.016-0.008-0.016-0.014-0.021
	c-0.002-0.005,0.002-0.014-0.006-0.012l0.008-0.005c-0.002-0.008-0.008-0.005-0.012-0.009l0.01-0.006
	c-0.005-0.009,0.001-0.021,0-0.026c0.011-0.005,0.006-0.021,0.004-0.029c0.006,0,0.008,0.02,0.018,0.013
	c0-0.004-0.001-0.004,0.002-0.007c0.01-0.006,0.005,0.015,0.014,0.008l-0.004-0.023C15.573,29.118,15.573,29.134,15.591,29.136z"/>
<path class="st8" d="M8.349,19.521c-0.011,0.01-0.019,0.006-0.028,0.001l0.028-0.024C8.341,19.506,8.347,19.516,8.349,19.521z"/>
<path class="st8" d="M17.954,28.242c0.012,0.051-0.027,0.075-0.019,0.133c-0.08,0.036-0.12,0.006-0.162-0.054
	c-0.013-0.073,0.016-0.146,0.067-0.177C17.888,28.141,17.942,28.184,17.954,28.242z"/>
<path class="st8" d="M18.241,28.63c-0.031,0.041-0.061-0.006-0.092-0.014c-0.019-0.049-0.013-0.091,0.01-0.135
	C18.221,28.44,18.331,28.546,18.241,28.63z"/>
<path class="st8" d="M17.087,26.072c0.01-0.009,0.024-0.01,0.041-0.014c0.018,0.013,0.015,0.046,0.01,0.066
	c-0.024,0.056-0.07,0.085-0.107,0.101l0.003,0.013c0,0.011,0.003-0.02,0.001-0.03c-0.014-0.018-0.024,0.015-0.033,0.022
	C17.011,26.171,17.038,26.097,17.087,26.072z"/>
<path class="st8" d="M16.409,28.371c0.025-0.019,0.029,0.013,0.046,0.02c0.022,0.1-0.067,0.181-0.117,0.237
	c-0.054-0.018-0.031,0.081-0.085,0.081C16.297,28.598,16.3,28.447,16.409,28.371z"/>
<path class="st8" d="M16.458,28.142c0-0.051,0.041-0.063,0.043-0.121c0.084-0.013,0.117,0.028,0.146,0.101
	c-0.004,0.074-0.043,0.14-0.098,0.154C16.503,28.262,16.46,28.203,16.458,28.142z"/>
<path class="st8" d="M16.257,27.677c0.039-0.031,0.059,0.023,0.084,0.041c0.01,0.05-0.002,0.091-0.033,0.131
	C16.24,27.868,16.154,27.732,16.257,27.677z"/>
<path class="st8" d="M17.548,28.763c-0.025,0.023-0.049,0.02-0.069,0.001c-0.005-0.048-0.001-0.06,0.03-0.087
	C17.526,28.709,17.579,28.708,17.548,28.763z"/>
<polygon class="st8" points="16.336,29.188 16.378,29.158 16.37,29.204 "/>
<path class="st8" d="M19.91,28.171l0.012,0.037c0.024-0.004,0.021-0.037,0.03-0.054c0.041,0.092,0.006,0.177,0,0.288
	c-0.048,0.046-0.09,0.113-0.163,0.091c-0.063-0.017-0.044-0.096-0.063-0.146c-0.003-0.08,0.1-0.108,0.086-0.201l0.008,0.017
	l0.125-0.083C19.931,28.138,19.935,28.174,19.91,28.171z"/>
<path class="st8" d="M19.118,29.042c-0.029,0.066-0.049,0.159-0.122,0.154c-0.078-0.009-0.038-0.084-0.055-0.129
	c0.007-0.064,0.052-0.099,0.077-0.147c0.016,0.014,0.029,0.033,0.039,0.004C19.095,28.987,19.107,28.957,19.118,29.042z"/>
<path class="st8" d="M20.408,19.238c-0.054,0.033-0.115,0.101-0.17,0.049c-0.059-0.064,0.011-0.101,0.018-0.149
	c0.036-0.049,0.089-0.046,0.132-0.074c0.005,0.024,0.007,0.051,0.028,0.035C20.418,19.172,20.441,19.156,20.408,19.238z"/>
<path class="st8" d="M18.108,27.188c-0.042,0.033-0.1,0.102-0.146,0.046c-0.055-0.038-0.067-0.096-0.028-0.17
	c0.009-0.089,0.082-0.039,0.11-0.072C18.109,27.029,18.099,27.108,18.108,27.188z"/>
<polygon class="st8" points="22.371,27.842 22.396,27.71 22.409,27.72 22.409,27.683 22.434,27.7 "/>
<path class="st8" d="M17.915,27.101c0.047-0.019,0.117-0.067,0.147,0c0.043,0.054,0.045,0.114-0.007,0.176
	c-0.025,0.086-0.082,0.015-0.118,0.04C17.884,27.259,17.909,27.184,17.915,27.101z"/>
<path class="st8" d="M19.364,27.271c-0.016-0.024-0.041-0.008-0.062-0.012l0.014,0.009l-0.013,0.023l-0.013-0.011
	c0.012-0.01,0.006-0.019,0.003-0.027c-0.042,0.008-0.071,0.044-0.044,0.088c0.068-0.102,0.087,0.055,0.143,0.013
	c-0.022,0.077-0.074,0.245-0.188,0.208c-0.032-0.027-0.039-0.088-0.04-0.133c0.034-0.044,0.048-0.128,0.067-0.188
	c-0.003,0.011-0.015,0.021-0.008,0.038l0.014,0.008l0.051-0.079c0.008,0.021,0.045,0.013,0.041,0.053l0.055-0.05
	C19.379,27.233,19.351,27.251,19.364,27.271z"/>
<polygon class="st8" points="20.985,27.382 20.989,27.371 21.026,27.396 "/>
</svg>