<!-- Generator: Adobe Illustrator 22.1.0, SVG Export Plug-In  -->
<svg version="1.1"
	 xmlns="http://www.w3.org/2000/svg" xmlns:xlink="http://www.w3.org/1999/xlink" xmlns:a="http://ns.adobe.com/AdobeSVGViewerExtensions/3.0/"
	 x="0px" y="0px" width="39.25px" height="57.091px" viewBox="0 0 39.25 57.091" style="enable-background:new 0 0 39.25 57.091;"
	 xml:space="preserve">
<style type="text/css">
	.st0{fill:#E50046;}
</style>
<defs>
</defs>
<g>
	<g id="iPhone_2_">
		<g>
			<path class="st0" d="M31.775,0H7.475C3.347,0,0,3.297,0,7.368v42.358c0,4.068,3.347,7.365,7.475,7.365h24.299
				c4.128,0,7.475-3.297,7.475-7.368V7.368C39.25,3.297,35.903,0,31.775,0z M19.625,53.409c-1.549,0-2.805-1.238-2.805-2.762
				c0-1.527,1.256-2.762,2.805-2.762s2.805,1.238,2.805,2.762C22.43,52.17,21.174,53.409,19.625,53.409z M32.114,39.25
				c0,2.034-1.502,3.568-3.568,3.568H10.705c-2.066,0-3.568-1.534-3.568-3.568V10.705c0-2.034,1.502-3.568,3.568-3.568h17.841
				c2.066,0,3.568,1.534,3.568,3.568V39.25z"/>
		</g>
	</g>
</g>
</svg>