<?xml version="1.0" encoding="utf-8"?>
<!-- Generator: Adobe Illustrator 23.0.1, SVG Export Plug-In . SVG Version: 6.00 Build 0)  -->
<svg version="1.1" id="Capa_1" xmlns="http://www.w3.org/2000/svg" xmlns:xlink="http://www.w3.org/1999/xlink" x="0px" y="0px"
	 viewBox="0 0 99 99.1" style="enable-background:new 0 0 99 99.1;" xml:space="preserve">
<style type="text/css">
	.st0{fill:#262626;}
</style>
<path class="st0" d="M49.5,0c13.7,0,26,5.6,35,14.5c9,9,14.5,21.4,14.5,35c0,13.7-5.5,26-14.5,35c-9,8.9-21.3,14.5-35,14.5
	c-13.7,0-26-5.6-35-14.5c-9-9-14.5-21.4-14.5-35c0-13.7,5.5-26.1,14.5-35C23.5,5.6,35.8,0,49.5,0L49.5,0z M81.8,17.2
	C73.5,9,62.1,3.9,49.5,3.9c-12.6,0-24,5.1-32.3,13.4C9,25.5,3.9,36.9,3.9,49.5c0,12.6,5.1,24,13.4,32.3c8.3,8.3,19.7,13.4,32.3,13.4
	c12.6,0,24-5.1,32.3-13.4c8.3-8.3,13.4-19.7,13.4-32.3C95.2,36.9,90.1,25.5,81.8,17.2L81.8,17.2z"/>
<g>
	<g>
		<path d="M79.5,31.3c-1.8-3.2-3.7-3.7-7.6-4C68,27.1,58.1,27,49.5,27c-8.6,0-18.5,0.1-22.4,0.4c-3.9,0.2-5.9,0.8-7.7,4
			c-1.8,3.2-2.8,8.6-2.8,18.2c0,0,0,0,0,0c0,0,0,0,0,0v0c0,9.5,0.9,15,2.8,18.2c1.8,3.2,3.7,3.7,7.7,4c3.9,0.2,13.8,0.4,22.4,0.4
			c8.6,0,18.4-0.1,22.4-0.4c3.9-0.3,5.9-0.8,7.6-4c1.8-3.1,2.8-8.6,2.8-18.2c0,0,0,0,0,0c0,0,0,0,0,0C82.3,39.9,81.4,34.5,79.5,31.3
			z M41.3,61.8V37.2l20.5,12.3L41.3,61.8z"/>
	</g>
</g>
</svg>
